<svg fill="none" height="50" viewBox="0 0 309 50" width="309" xmlns="http://www.w3.org/2000/svg" xmlns:xlink="http://www.w3.org/1999/xlink"><linearGradient id="a" gradientUnits="userSpaceOnUse" x1="34.5703" x2="18.7309" y1="30.7864" y2="48.9133"><stop offset="0" stop-color="#4285f4"/><stop offset="1" stop-color="#1b74e8"/></linearGradient><rect fill="#1f1f1f" height="49" rx="24.5" width="308" x=".5" y=".5"/><path d="m51 22h-30v-5c0-2.7143 2.2018-5 4.8165-5h20.367c2.6147 0 4.8165 2.2857 4.8165 5z" fill="#34a853"/><path d="m51 26.0537h-30v-5c0-2.7143 2.2018-5 4.8165-5h20.367c2.6147 0 4.8165 2.2857 4.8165 5z" fill="#fbbc04"/><path d="m51 30.2468h-30v-5c0-2.7143 2.2018-5 4.8165-5h20.367c2.6147 0 4.8165 2.2857 4.8165 5z" fill="#ea4335"/><path d="m21 23.2752 19.0411 4.4037c2.1918.5505 4.6575 0 6.4384-1.3761l4.5205-3.3028v10.3211c0 2.6147-2.1918 4.6789-4.7945 4.6789h-20.411c-2.6027 0-4.7945-2.0642-4.7945-4.6789z" fill="url(#a)"/><path d="m77.72 32.1.18-1.64c.76 0 1.2933-.0733 1.6-.22s.48-.4.52-.76c.0533-.3733.0667-.9.04-1.58l-.38-10.18h1.62l.4 10c.04.9467-.0267 1.7467-.2 2.4-.16.6533-.5333 1.1467-1.12 1.48-.5733.3333-1.46.5-2.66.5zm-14.12-.08c0-.48.0667-1.0133.2-1.6s.3467-1.2333.64-1.94l1.44.56c-.2133.56-.3733 1.0733-.48 1.54s-.16.9-.16 1.3c0 .7467.2133 1.3467.64 1.8.44.4667 1.0133.8067 1.72 1.02.72.2133 1.5067.32 2.36.32 1.0267 0 1.96-.12 2.8-.36.8533-.2267 1.5333-.54 2.04-.94s.76-.84.76-1.32c0-.3467-.2667-.6467-.8-.9s-1.28-.5133-2.24-.78l.38-1.66c1.3733.5467 2.4467.92 3.22 1.12.7867.1867 1.3867.28 1.8.28.28 0 .48.08.6.24.1333.1467.2.3267.2.54s-.0933.4133-.28.6c-.1867.1733-.4267.26-.72.26h-.74c.0133.12.0267.2133.04.28.0267.08.04.18.04.3 0 .6533-.3 1.28-.9 1.88-.6.6133-1.4667 1.1133-2.6 1.5-1.12.3867-2.4667.58-4.04.58-1.0667 0-2.0467-.1667-2.94-.5s-1.6133-.8467-2.16-1.54c-.5467-.68-.82-1.54-.82-2.58zm21.1619-.02-.4-14.28h1.62l.4 14.28zm-.54 6.06-.24-1.08c.2-.04.3733-.08.52-.12.1466-.04.2866-.0733.42-.1-.2534-.1733-.4734-.4-.66-.68-.1867-.28-.28-.5867-.28-.92 0-.6.2066-1.0533.62-1.36.4266-.3067.9066-.46 1.44-.46.3066 0 .62.0533.94.16l-.16 1c-.1334-.0267-.2667-.0533-.4-.08-.12-.0267-.2467-.04-.38-.04-.6534 0-.98.24-.98.72 0 .3467.1266.6333.38.86.2666.2267.5266.3733.78.44.5066-.1467.9533-.2933 1.34-.44l.32 1.02c-.32.12-.7.2467-1.14.38-.4267.1333-.8667.26-1.32.38-.44.1333-.84.24-1.2.32zm17.8531-5.96c-.866 0-1.613-.1467-2.2395-.44-.6134-.2933-1.0467-.8333-1.3-1.62-.72.1733-1.4134.2467-2.08.22-.6534-.04-1.2467-.1667-1.78-.38-.5334-.2267-.9534-.5333-1.26-.92-.3067-.4-.46-.8733-.46-1.42 0-.72.2266-1.3733.68-1.96.4533-.6 1.0666-1.1067 1.84-1.52.7733-.4133 1.6266-.7 2.56-.86l-.06-1.52h1.62l.32 6.6c.0266.6267.1335 1.1.3195 1.42.2.3067.467.5133.8.62.347.0933.76.14 1.24.14.28 0 .48.08.6.24.134.1467.2.3267.2.54s-.093.4133-.28.6c-.186.1733-.426.26-.72.26zm-7.5395-4.82c0 .3067.12.56.36.76.2533.2.5733.3467.96.44.3866.0933.7933.14 1.22.14.44 0 .8466-.0333 1.22-.1l-.18-3.66c-.76.08-1.4067.2533-1.94.52-.5334.2533-.94.5533-1.22.9-.28.3333-.42.6667-.42 1zm4.1-7.9c-.28 0-.52-.0933-.72-.28-.1867-.2-.28-.4333-.28-.7s.0933-.5.28-.7c.2-.2.44-.3.72-.3.2666 0 .4933.1.68.3.2.2.3.4333.3.7s-.1.5-.3.7c-.1867.1867-.4134.28-.68.28zm-2.74 0c-.28 0-.52-.0933-.72-.28-.1867-.2-.28-.4333-.28-.7s.0933-.5.28-.7c.2-.2.44-.3.72-.3.2666 0 .4933.1.68.3.2.2.3.4333.3.7s-.1.5-.3.7c-.1867.1867-.4134.28-.68.28zm6.1865 12.72.2-1.64h1.5c.573-.0133 1.127-.04 1.66-.08.533-.0533.953-.1333 1.26-.24.427-.1467.767-.3333 1.02-.56.267-.24.467-.5467.6-.92-.24.08-.5.14-.78.18-.267.0267-.533.04-.8.04-1.027 0-1.813-.24-2.36-.72s-.82-1.0867-.82-1.82c0-.5067.08-1.0133.24-1.52.16-.52.387-.9933.68-1.42s.647-.7667 1.06-1.02c.413-.2667.873-.4 1.38-.4.72 0 1.313.24 1.78.72.48.4667.833 1.0733 1.06 1.82.24.7467.36 1.54.36 2.38 0 1-.173 1.86-.52 2.58-.333.7067-.893 1.2933-1.68 1.76-.413.24-.933.4267-1.56.56-.613.12-1.287.2-2.02.24s-1.487.06-2.26.06zm3.06-6.16c0 .4133.133.7467.4 1 .267.24.727.36 1.38.36.573 0 1.12-.08 1.64-.24 0-.08 0-.1733 0-.28 0-.5467-.073-1.06-.22-1.54-.147-.4933-.353-.8867-.62-1.18s-.587-.44-.96-.44c-.32 0-.6.12-.84.36-.24.2267-.433.52-.58.88-.133.36-.2.72-.2 1.08zm1.4-6.02c-.28 0-.52-.0933-.72-.28-.187-.2-.28-.4333-.28-.7s.093-.5.28-.7c.2-.2.44-.3.72-.3.267 0 .493.1.68.3.2.2.3.4333.3.7s-.1.5-.3.7c-.187.1867-.413.28-.68.28zm10.305 12.18c-1.08 0-1.9-.12-2.46-.36s-.946-.6133-1.16-1.12c-.213-.5067-.333-1.16-.36-1.96l-.4-10.94h1.64l.4 10.3c.027.6533.087 1.16.18 1.52.107.3467.334.5867.68.72.36.1333.92.2 1.68.2.28 0 .48.08.6.24.134.1467.2.3267.2.54s-.093.4133-.28.6c-.186.1733-.426.26-.72.26zm9.681.26c-1.427 0-2.58-.0667-3.46-.2-.867-.12-1.527-.3067-1.98-.56-.454-.2667-.767-.6-.94-1-.32.4667-.66.8067-1.02 1.02-.347.2-.714.3267-1.1.38-.374.0667-.767.1-1.18.1l.2-1.64c.626 0 1.106-.12 1.44-.36.333-.2533.593-.6667.78-1.24.2-.5733.42-1.36.66-2.36l1.46.38c-.134.4667-.24.8933-.32 1.28-.067.3733-.1.6467-.1.82 0 .3733.1.6867.3.94.213.24.646.42 1.3.54.426-.6667.933-1.34 1.52-2.02.586-.6933 1.226-1.3267 1.92-1.9.693-.5733 1.413-1.0333 2.16-1.38.76-.36 1.526-.54 2.3-.54.733 0 1.36.1533 1.88.46.533.2933.94.6933 1.22 1.2.293.5067.44 1.08.44 1.72 0 .7867-.234 1.5133-.7 2.18-.467.6533-1.247 1.18-2.34 1.58-1.08.4-2.56.6-4.44.6zm3.82-6.1c-.6 0-1.207.1533-1.82.46-.6.2933-1.174.6733-1.72 1.14-.547.4667-1.04.9533-1.48 1.46-.44.4933-.807.94-1.1 1.34.706.04 1.593.06 2.66.06 1.76 0 3.126-.2133 4.1-.64.986-.44 1.48-1.08 1.48-1.92 0-.2933-.074-.58-.22-.86-.147-.2933-.38-.54-.7-.74-.307-.2-.707-.3-1.2-.3zm-.46-3.7c-.28 0-.52-.0933-.72-.28-.187-.2-.28-.4333-.28-.7s.093-.5.28-.7c.2-.2.44-.3.72-.3.266 0 .493.1.68.3.2.2.3.4333.3.7s-.1.5-.3.7c-.187.1867-.414.28-.68.28zm12.886-1.28c0-.2933-.02-.6467-.06-1.06s-.087-.8267-.14-1.24-.107-.7667-.16-1.06l1.72-.2c.04.2667.08.62.12 1.06.04.4267.073.86.1 1.3.04.4267.06.7733.06 1.04 0 .84-.08 1.66-.24 2.46-.147.7867-.393 1.5533-.74 2.3.627.6533 1.087 1.2533 1.38 1.8s.44 1.0867.44 1.62c0 .3867-.093.7933-.28 1.22-.187.4133-.527.7667-1.02 1.06-.493.28-1.207.42-2.14.42h-4.6v-1.62c2-1.4267 3.427-2.8467 4.28-4.26-.747-.6667-1.627-1.38-2.64-2.14-1-.76-2.047-1.5333-3.14-2.32l.94-1.32c1.187.88 2.24 1.68 3.16 2.4.92.7067 1.713 1.36 2.38 1.96.2-.5333.347-1.08.44-1.64.093-.5733.14-1.1667.14-1.78zm-3.18 9.08h2.52c.68 0 1.127-.12 1.34-.36.213-.2533.32-.54.32-.86 0-.24-.1-.52-.3-.84-.187-.32-.453-.6667-.8-1.04-.373.56-.82 1.1-1.34 1.62-.507.52-1.087 1.0133-1.74 1.48zm-2.74 7.7-.24-1.08c.2-.04.373-.08.52-.12s.287-.0733.42-.1c-.253-.1733-.473-.4-.66-.68s-.28-.5867-.28-.92c0-.6.207-1.0533.62-1.36.427-.3067.907-.46 1.44-.46.307 0 .62.0533.94.16l-.16 1c-.133-.0267-.267-.0533-.4-.08-.12-.0267-.247-.04-.38-.04-.653 0-.98.24-.98.72 0 .3467.127.6333.38.86.267.2267.527.3733.78.44.507-.1467.953-.2933 1.34-.44l.32 1.02c-.32.12-.7.2467-1.14.38-.427.1333-.867.26-1.32.38-.44.1333-.84.24-1.2.32zm11.541-6.06-.4-14.28h1.62l.4 14.28z" fill="#fff"/><path d="m165.4 32.32c-1.027 0-1.993-.1867-2.9-.56-.893-.3733-1.687-.8933-2.38-1.56-.693-.68-1.24-1.4733-1.64-2.38-.387-.92-.58-1.9133-.58-2.98s.193-2.0533.58-2.96c.4-.92.94-1.7133 1.62-2.38.693-.68 1.493-1.2067 2.4-1.58s1.873-.56 2.9-.56c1.093 0 2.1.1933 3.02.58.933.3867 1.713.9267 2.34 1.62l-1.52 1.5c-.467-.52-1.027-.92-1.68-1.2-.64-.28-1.36-.42-2.16-.42-.947 0-1.82.2267-2.62.68-.8.44-1.447 1.0667-1.94 1.88-.48.8-.72 1.7467-.72 2.84s.247 2.0467.74 2.86c.493.8 1.14 1.4267 1.94 1.88.8.44 1.673.66 2.62.66.867 0 1.653-.16 2.36-.48.707-.3333 1.273-.8 1.7-1.4.44-.6.707-1.32.8-2.16h-4.9v-1.94h6.96c.08.36.12.74.12 1.14v.02c0 1.3867-.307 2.6-.92 3.64-.6 1.0267-1.433 1.8267-2.5 2.4s-2.28.86-3.64.86zm13.5 0c-1.053 0-1.98-.24-2.78-.72s-1.427-1.1267-1.88-1.94-.68-1.7333-.68-2.76c0-1.0133.227-1.9267.68-2.74.453-.8267 1.08-1.48 1.88-1.96s1.727-.72 2.78-.72c1.04 0 1.96.24 2.76.72s1.427 1.1333 1.88 1.96c.453.8133.68 1.7267.68 2.74 0 1.0267-.227 1.9467-.68 2.76s-1.08 1.46-1.88 1.94-1.72.72-2.76.72zm0-1.98c.56 0 1.08-.1333 1.56-.4.48-.28.867-.6733 1.16-1.18.307-.52.46-1.14.46-1.86s-.153-1.3333-.46-1.84c-.293-.52-.68-.9133-1.16-1.18-.48-.28-1-.42-1.56-.42s-1.087.14-1.58.42c-.48.2667-.873.66-1.18 1.18-.293.5067-.44 1.12-.44 1.84s.147 1.34.44 1.86c.307.5067.7.9 1.18 1.18.493.2667 1.02.4 1.58.4zm12.109 1.98c-1.053 0-1.98-.24-2.78-.72s-1.426-1.1267-1.88-1.94c-.453-.8133-.68-1.7333-.68-2.76 0-1.0133.227-1.9267.68-2.74.454-.8267 1.08-1.48 1.88-1.96s1.727-.72 2.78-.72c1.04 0 1.96.24 2.76.72s1.427 1.1333 1.88 1.96c.454.8133.68 1.7267.68 2.74 0 1.0267-.226 1.9467-.68 2.76-.453.8133-1.08 1.46-1.88 1.94s-1.72.72-2.76.72zm0-1.98c.56 0 1.08-.1333 1.56-.4.48-.28.867-.6733 1.16-1.18.307-.52.46-1.14.46-1.86s-.153-1.3333-.46-1.84c-.293-.52-.68-.9133-1.16-1.18-.48-.28-1-.42-1.56-.42s-1.086.14-1.58.42c-.48.2667-.873.66-1.18 1.18-.293.5067-.44 1.12-.44 1.84s.147 1.34.44 1.86c.307.5067.7.9 1.18 1.18.494.2667 1.02.4 1.58.4zm11.91 6.3c-.894 0-1.667-.1467-2.32-.44-.64-.28-1.16-.6467-1.56-1.1-.4-.44-.687-.8933-.86-1.36l2-.84c.213.5333.553.9667 1.02 1.3.48.3467 1.053.52 1.72.52.933 0 1.666-.28 2.2-.84.546-.56.82-1.3533.82-2.38v-.98h-.12c-.32.48-.767.8667-1.34 1.16-.56.28-1.2.42-1.92.42-.867 0-1.66-.22-2.38-.66s-1.3-1.0533-1.74-1.84c-.44-.8-.66-1.7333-.66-2.8 0-1.08.22-2.0133.66-2.8.44-.8 1.02-1.42 1.74-1.86s1.513-.66 2.38-.66c.72 0 1.36.1467 1.92.44.573.2933 1.02.68 1.34 1.16h.12v-1.28h2.06v9.66c0 1.1067-.22 2.0467-.66 2.82-.427.7733-1.02 1.36-1.78 1.76s-1.64.6-2.64.6zm.02-6.5c.533 0 1.026-.1267 1.48-.38.453-.2667.82-.6467 1.1-1.14.28-.5067.42-1.1133.42-1.82 0-.7333-.14-1.3467-.42-1.84-.28-.5067-.647-.8867-1.1-1.14-.454-.2533-.947-.38-1.48-.38-.534 0-1.034.1333-1.5.4-.454.2533-.82.6267-1.1 1.12s-.42 1.1067-.42 1.84c0 .72.14 1.3333.42 1.84.28.4933.646.8667 1.1 1.12.466.2533.966.38 1.5.38zm7.607 1.86v-14.32h2.16v14.32zm9.269.32c-1 0-1.894-.2333-2.68-.7-.787-.4667-1.407-1.1067-1.86-1.92-.44-.8133-.66-1.74-.66-2.78 0-.9733.213-1.8733.64-2.7.426-.8267 1.02-1.4867 1.78-1.98.773-.5067 1.66-.76 2.66-.76 1.053 0 1.946.2267 2.68.68.746.4533 1.313 1.0733 1.7 1.86.386.7867.58 1.6733.58 2.66 0 .1467-.007.28-.02.4 0 .12-.007.2133-.02.28h-7.88c.106 1.0133.46 1.7733 1.06 2.28.613.5067 1.306.76 2.08.76.693 0 1.266-.1533 1.72-.46.453-.32.813-.7133 1.08-1.18l1.78.86c-.44.8-1.04 1.4533-1.8 1.96-.76.4933-1.707.74-2.84.74zm-.1-9c-.72 0-1.334.22-1.84.66-.507.44-.847 1.0267-1.02 1.76h5.66c-.027-.3467-.14-.7067-.34-1.08s-.507-.6867-.92-.94c-.4-.2667-.914-.4-1.54-.4zm20.071 8.78c-.866 0-1.613-.1467-2.24-.44-.613-.2933-1.046-.8333-1.3-1.62-.72.1733-1.413.2467-2.08.22-.653-.04-1.246-.1667-1.78-.38-.533-.2267-.953-.5333-1.26-.92-.306-.4-.46-.8733-.46-1.42 0-.72.227-1.3733.68-1.96.454-.6 1.067-1.1067 1.84-1.52.774-.4133 1.627-.7 2.56-.86l-.06-1.52h1.62l.32 6.6c.027.6267.134 1.1.32 1.42.2.3067.467.5133.8.62.347.0933.76.14 1.24.14.28 0 .48.08.6.24.134.1467.2.3267.2.54s-.093.4133-.28.6c-.186.1733-.426.26-.72.26zm-7.54-4.82c0 .3067.12.56.36.76.254.2.574.3467.96.44.387.0933.794.14 1.22.14.44 0 .847-.0333 1.22-.1l-.18-3.66c-.76.08-1.406.2533-1.94.52-.533.2533-.94.5533-1.22.9-.28.3333-.42.6667-.42 1zm4.1-7.9c-.28 0-.52-.0933-.72-.28-.186-.2-.28-.4333-.28-.7s.094-.5.28-.7c.2-.2.44-.3.72-.3.267 0 .494.1.68.3.2.2.3.4333.3.7s-.1.5-.3.7c-.186.1867-.413.28-.68.28zm-2.74 0c-.28 0-.52-.0933-.72-.28-.186-.2-.28-.4333-.28-.7s.094-.5.28-.7c.2-.2.44-.3.72-.3.267 0 .494.1.68.3.2.2.3.4333.3.7s-.1.5-.3.7c-.186.1867-.413.28-.68.28zm6.187 12.72.2-1.64h1c.213-.3333.44-.66.68-.98l-.38-11.76h1.62l.36 9.88c.813-.8267 1.7-1.5267 2.66-2.1.973-.5867 1.96-.88 2.96-.88.733 0 1.36.1533 1.88.46.533.2933.94.6933 1.22 1.2.293.5067.44 1.08.44 1.72 0 .6267-.227 1.26-.68 1.9-.453.6267-1.233 1.12-2.34 1.48-.853.28-1.88.4733-3.08.58-1.2.0933-2.68.14-4.44.14zm8.98-5.84c-.573 0-1.153.14-1.74.42-.573.28-1.127.64-1.66 1.08-.533.4267-1.02.8867-1.46 1.38-.44.48-.807.92-1.1 1.32h1.36c2.32 0 4.02-.2 5.1-.6s1.62-1.0267 1.62-1.88c0-.2267-.073-.4733-.22-.74s-.38-.4933-.7-.68c-.307-.2-.707-.3-1.2-.3zm5.22 5.84c-.347 0-.787-.0333-1.32-.1-.52-.08-1.053-.2133-1.6-.4-.533-.1867-.987-.4467-1.36-.78l1.64-.82c.467.1867.947.3133 1.44.38.507.0533.973.08 1.4.08.28 0 .48.08.6.24.133.1467.2.3267.2.54s-.093.4133-.28.6c-.187.1733-.427.26-.72.26zm-6.08-9.54c-.28 0-.52-.0933-.72-.28-.187-.2-.28-.4333-.28-.7s.093-.5.28-.7c.2-.2.44-.3.72-.3.267 0 .493.1.68.3.2.2.3.4333.3.7s-.1.5-.3.7c-.187.1867-.413.28-.68.28zm6.079 9.54.2-1.64c.454 0 .92-.0067 1.4-.02.494-.0133.967-.0467 1.42-.1-.32-.2933-.633-.6733-.94-1.14-.306-.4667-.46-1.0333-.46-1.7 0-.7067.167-1.3467.5-1.92.334-.5867.76-1.0467 1.28-1.38.534-.3333 1.107-.5 1.72-.5.654 0 1.227.18 1.72.54.494.36.874.82 1.14 1.38.28.5467.42 1.12.42 1.72 0 .6267-.126 1.1867-.38 1.68-.253.4933-.593.9267-1.02 1.3.534.04 1.08.0733 1.64.1s1.047.04 1.46.04c.28 0 .48.08.6.24.134.1467.2.3267.2.54s-.093.4133-.28.6c-.186.1733-.426.26-.72.26-.813 0-1.66-.06-2.54-.18-.88-.1333-1.653-.2933-2.32-.48-.213.08-.433.1533-.66.22-.613.1733-1.313.2867-2.1.34-.786.0667-1.546.1-2.28.1zm3.26-4.56c0 .52.16.98.48 1.38.32.3867.68.7 1.08.94.547-.24 1.007-.56 1.38-.96.374-.4.56-.88.56-1.44 0-.3067-.073-.62-.22-.94-.146-.3333-.346-.6133-.6-.84-.253-.2267-.546-.34-.88-.34-.32 0-.62.1133-.9.34-.266.2133-.486.4867-.66.82-.16.3333-.24.68-.24 1.04zm1.68-5.9c-.28 0-.52-.0933-.72-.28-.186-.2-.28-.4333-.28-.7s.094-.5.28-.7c.2-.2.44-.3.72-.3.267 0 .494.1.68.3.2.2.3.4333.3.7s-.1.5-.3.7c-.186.1867-.413.28-.68.28zm4.963 10.46.18-1.64c1.373 0 2.706-.2 4-.6 1.293-.4133 2.473-.9933 3.54-1.74-.52-.4533-1.16-.82-1.92-1.1-.747-.28-1.574-.42-2.48-.42-.334 0-.627.02-.88.06-.254.0267-.56.08-.92.16l-.32-1.52c.746-.2267 1.453-.34 2.12-.34.693 0 1.32.0867 1.88.26.56.16 1.066.36 1.52.6.466.24.9.48 1.3.72.413.24.813.4467 1.2.62.386.16.786.24 1.2.24h.42l.14 1.44c-.414 0-.814.0467-1.2.14.253.6.613 1 1.08 1.2.466.1867 1.16.28 2.08.28.28 0 .48.08.6.24.133.1467.2.3267.2.54s-.094.4133-.28.6c-.187.1733-.427.26-.72.26-.72 0-1.367-.06-1.94-.18-.56-.1333-1.04-.3867-1.44-.76-.4-.3867-.694-.96-.88-1.72-.507.24-1.027.5133-1.56.82-.52.2933-1.1.58-1.74.86s-1.38.5133-2.22.7-1.827.28-2.96.28zm12.734 0 .2-1.64c.373 0 .687-.08.94-.24s.5-.42.74-.78c.24-.3733.5-.88.78-1.52.387-.8533.767-1.5 1.14-1.94.387-.44.767-.74 1.14-.9.387-.16.767-.24 1.14-.24.453 0 .873.12 1.26.36.387.2267.727.5333 1.02.92s.52.8133.68 1.28c.173.4533.26.9067.26 1.36 0 .8-.14 1.44-.42 1.92-.28.4667-.64.8067-1.08 1.02-.427.2-.873.3-1.34.3-.387 0-.88-.0667-1.48-.2-.587-.1333-1.327-.48-2.22-1.04-.427.6133-.853.9933-1.28 1.14-.427.1333-.92.2-1.48.2zm3.74-3.12c-.08.1733-.153.34-.22.5.573.3333 1.093.5667 1.56.7.48.12.88.18 1.2.18.573 0 .98-.1267 1.22-.38s.36-.5867.36-1c0-.3867-.093-.7733-.28-1.16s-.427-.7067-.72-.96c-.28-.2533-.58-.38-.9-.38-.24 0-.473.0667-.7.2s-.46.38-.7.74-.513.88-.82 1.56z" fill="#fff"/><rect height="49" rx="24.5" stroke="#747775" width="308" x=".5" y=".5"/></svg>