<svg fill="none" height="50" viewBox="0 0 326 50" width="326" xmlns="http://www.w3.org/2000/svg" xmlns:xlink="http://www.w3.org/1999/xlink"><linearGradient id="a" gradientUnits="userSpaceOnUse" x1="34.5703" x2="18.7309" y1="30.7864" y2="48.9133"><stop offset="0" stop-color="#4285f4"/><stop offset="1" stop-color="#1b74e8"/></linearGradient><rect fill="#1f1f1f" height="49" rx="24.5" width="325" x=".5" y=".5"/><path d="m51 22h-30v-5c0-2.7143 2.2018-5 4.8165-5h20.367c2.6147 0 4.8165 2.2857 4.8165 5z" fill="#34a853"/><path d="m51 26.0537h-30v-5c0-2.7143 2.2018-5 4.8165-5h20.367c2.6147 0 4.8165 2.2857 4.8165 5z" fill="#fbbc04"/><path d="m51 30.2468h-30v-5c0-2.7143 2.2018-5 4.8165-5h20.367c2.6147 0 4.8165 2.2857 4.8165 5z" fill="#ea4335"/><path d="m21 23.2752 19.0411 4.4037c2.1918.5505 4.6575 0 6.4384-1.3761l4.5205-3.3028v10.3211c0 2.6147-2.1918 4.6789-4.7945 4.6789h-20.411c-2.6027 0-4.7945-2.0642-4.7945-4.6789z" fill="url(#a)"/><path d="m71.4 32.32c-1.0267 0-1.9933-.1867-2.9-.56-.8933-.3733-1.6867-.8933-2.38-1.56-.6933-.68-1.24-1.4733-1.64-2.38-.3867-.92-.58-1.9133-.58-2.98s.1933-2.0533.58-2.96c.4-.92.94-1.7133 1.62-2.38.6933-.68 1.4933-1.2067 2.4-1.58s1.8733-.56 2.9-.56c1.0933 0 2.1.1933 3.02.58.9333.3867 1.7133.9267 2.34 1.62l-1.52 1.5c-.4667-.52-1.0267-.92-1.68-1.2-.64-.28-1.36-.42-2.16-.42-.9467 0-1.82.2267-2.62.68-.8.44-1.4467 1.0667-1.94 1.88-.48.8-.72 1.7467-.72 2.84s.2467 2.0467.74 2.86c.4933.8 1.14 1.4267 1.94 1.88.8.44 1.6733.66 2.62.66.8667 0 1.6533-.16 2.36-.48.7067-.3333 1.2733-.8 1.7-1.4.44-.6.7067-1.32.8-2.16h-4.9v-1.94h6.96c.08.36.12.74.12 1.14v.02c0 1.3867-.3067 2.6-.92 3.64-.6 1.0267-1.4333 1.8267-2.5 2.4s-2.28.86-3.64.86zm13.4998 0c-1.0533 0-1.98-.24-2.78-.72s-1.4266-1.1267-1.88-1.94c-.4533-.8133-.68-1.7333-.68-2.76 0-1.0133.2267-1.9267.68-2.74.4534-.8267 1.08-1.48 1.88-1.96s1.7267-.72 2.78-.72c1.04 0 1.96.24 2.76.72s1.4267 1.1333 1.88 1.96c.4534.8133.68 1.7267.68 2.74 0 1.0267-.2266 1.9467-.68 2.76-.4533.8133-1.08 1.46-1.88 1.94s-1.72.72-2.76.72zm0-1.98c.56 0 1.08-.1333 1.56-.4.48-.28.8667-.6733 1.16-1.18.3067-.52.46-1.14.46-1.86s-.1533-1.3333-.46-1.84c-.2933-.52-.68-.9133-1.16-1.18-.48-.28-1-.42-1.56-.42s-1.0866.14-1.58.42c-.48.2667-.8733.66-1.18 1.18-.2933.5067-.44 1.12-.44 1.84s.1467 1.34.44 1.86c.3067.5067.7.9 1.18 1.18.4934.2667 1.02.4 1.58.4zm12.1094 1.98c-1.0533 0-1.98-.24-2.78-.72s-1.4266-1.1267-1.88-1.94c-.4533-.8133-.68-1.7333-.68-2.76 0-1.0133.2267-1.9267.68-2.74.4534-.8267 1.08-1.48 1.88-1.96s1.7267-.72 2.78-.72c1.04 0 1.96.24 2.76.72.7998.48 1.4268 1.1333 1.8798 1.96.454.8133.68 1.7267.68 2.74 0 1.0267-.226 1.9467-.68 2.76-.453.8133-1.08 1.46-1.8798 1.94-.8.48-1.72.72-2.76.72zm0-1.98c.56 0 1.08-.1333 1.56-.4.48-.28.8667-.6733 1.16-1.18.3068-.52.4598-1.14.4598-1.86s-.153-1.3333-.4598-1.84c-.2933-.52-.68-.9133-1.16-1.18-.48-.28-1-.42-1.56-.42s-1.0866.14-1.58.42c-.48.2667-.8733.66-1.18 1.18-.2933.5067-.44 1.12-.44 1.84s.1467 1.34.44 1.86c.3067.5067.7.9 1.18 1.18.4934.2667 1.02.4 1.58.4zm11.9098 6.3c-.894 0-1.667-.1467-2.32-.44-.64-.28-1.16-.6467-1.56-1.1-.4-.44-.687-.8933-.86-1.36l2-.84c.213.5333.553.9667 1.02 1.3.48.3467 1.053.52 1.72.52.933 0 1.666-.28 2.2-.84.546-.56.82-1.3533.82-2.38v-.98h-.12c-.32.48-.767.8667-1.34 1.16-.56.28-1.2.42-1.92.42-.867 0-1.66-.22-2.38-.66s-1.3-1.0533-1.74-1.84c-.44-.8-.66-1.7333-.66-2.8 0-1.08.22-2.0133.66-2.8.44-.8 1.02-1.42 1.74-1.86s1.513-.66 2.38-.66c.72 0 1.36.1467 1.92.44.573.2933 1.02.68 1.34 1.16h.12v-1.28h2.06v9.66c0 1.1067-.22 2.0467-.66 2.82-.427.7733-1.02 1.36-1.78 1.76s-1.64.6-2.64.6zm.02-6.5c.533 0 1.026-.1267 1.48-.38.453-.2667.82-.6467 1.1-1.14.28-.5067.42-1.1133.42-1.82 0-.7333-.14-1.3467-.42-1.84-.28-.5067-.647-.8867-1.1-1.14-.454-.2533-.947-.38-1.48-.38-.534 0-1.034.1333-1.5.4-.454.2533-.82.6267-1.1 1.12s-.42 1.1067-.42 1.84c0 .72.14 1.3333.42 1.84.28.4933.646.8667 1.1 1.12.466.2533.966.38 1.5.38zm7.607 1.86v-14.32h2.16v14.32zm9.269.32c-1 0-1.894-.2333-2.68-.7-.787-.4667-1.407-1.1067-1.86-1.92-.44-.8133-.66-1.74-.66-2.78 0-.9733.213-1.8733.64-2.7.426-.8267 1.02-1.4867 1.78-1.98.773-.5067 1.66-.76 2.66-.76 1.053 0 1.946.2267 2.68.68.746.4533 1.313 1.0733 1.7 1.86.386.7867.58 1.6733.58 2.66 0 .1467-.007.28-.02.4 0 .12-.007.2133-.02.28h-7.88c.106 1.0133.46 1.7733 1.06 2.28.613.5067 1.306.76 2.08.76.693 0 1.266-.1533 1.72-.46.453-.32.813-.7133 1.08-1.18l1.78.86c-.44.8-1.04 1.4533-1.8 1.96-.76.4933-1.707.74-2.84.74zm-.1-9c-.72 0-1.334.22-1.84.66-.507.44-.847 1.0267-1.02 1.76h5.66c-.027-.3467-.14-.7067-.34-1.08s-.507-.6867-.92-.94c-.4-.2667-.914-.4-1.54-.4zm11.971 8.68v-14.32h4.92c.867 0 1.654.1867 2.36.56.707.3733 1.267.8867 1.68 1.54.427.6533.64 1.4133.64 2.28s-.213 1.6333-.64 2.3c-.413.6533-.973 1.1667-1.68 1.54-.706.36-1.493.54-2.36.54h-2.72v5.56zm4.98-12.24h-2.78v4.6h2.78c.52 0 .96-.1067 1.32-.32.36-.2267.634-.5133.82-.86.2-.36.3-.7333.3-1.12s-.1-.7533-.3-1.1c-.186-.3467-.46-.6333-.82-.86s-.8-.34-1.32-.34zm10.021 12.56c-1.254 0-2.2-.3733-2.84-1.12-.627-.76-.94-1.7867-.94-3.08v-6.32h2.16v6.02c0 .8667.2 1.5067.6 1.92.413.4.926.6 1.54.6.546 0 1.02-.14 1.42-.42.413-.2933.726-.6667.94-1.12.226-.4667.34-.9733.34-1.52v-5.48h2.14v10.2h-2.02v-1.38h-.12c-.294.48-.734.8867-1.32 1.22-.574.32-1.207.48-1.9.48zm7.921-.32v-14.32h2.16v14.32zm12.249 4.32v-4.26l.12-1.42h-.12c-.267.44-.687.8333-1.26 1.18-.56.3333-1.233.5-2.02.5-.92 0-1.753-.2267-2.5-.68-.733-.4667-1.32-1.1067-1.76-1.92-.427-.8267-.64-1.7667-.64-2.82s.213-1.9867.64-2.8c.44-.8133 1.027-1.4533 1.76-1.92.747-.4667 1.58-.7 2.5-.7.787 0 1.46.1733 2.02.52.573.3467.993.74 1.26 1.18h.12v-1.38h2.02v14.52zm-2.96-5.98c.533 0 1.033-.14 1.5-.42.48-.28.86-.6733 1.14-1.18.293-.52.44-1.1333.44-1.84s-.147-1.3133-.44-1.82c-.28-.52-.66-.92-1.14-1.2-.467-.28-.967-.42-1.5-.42s-1.033.14-1.5.42-.847.68-1.14 1.2c-.293.5067-.44 1.1133-.44 1.82s.147 1.32.44 1.84c.293.5067.673.9 1.14 1.18s.967.42 1.5.42zm10.708 1.98c-.734 0-1.387-.14-1.96-.42-.574-.2933-1.02-.7-1.34-1.22s-.48-1.1133-.48-1.78c0-.72.186-1.3333.56-1.84.386-.52.9-.9133 1.54-1.18s1.346-.4 2.12-.4c.64 0 1.2.06 1.68.18.493.12.866.2467 1.12.38v-.54c0-.6667-.24-1.2-.72-1.6s-1.1-.6-1.86-.6c-.52 0-1.014.12-1.48.36-.467.2267-.84.54-1.12.94l-1.48-1.14c.44-.6133 1.02-1.0933 1.74-1.44.733-.36 1.533-.54 2.4-.54 1.48 0 2.62.3667 3.42 1.1.8.72 1.2 1.7333 1.2 3.04v6.38h-2.1v-1.26h-.12c-.267.4133-.667.78-1.2 1.1-.534.32-1.174.48-1.92.48zm.38-1.76c.56 0 1.053-.1333 1.48-.4.426-.2667.76-.6133 1-1.04.253-.44.38-.9133.38-1.42-.307-.1733-.667-.3133-1.08-.42-.414-.12-.854-.18-1.32-.18-.88 0-1.507.18-1.88.54-.374.3467-.56.7733-.56 1.28 0 .48.18.8733.54 1.18s.84.46 1.44.46zm12.778 1.76c-.787 0-1.467-.1667-2.04-.5-.56-.3467-.974-.74-1.24-1.18h-.12v1.36h-2.04v-14.32h2.16v4.08l-.12 1.42h.12c.266-.44.68-.8333 1.24-1.18.573-.3467 1.253-.52 2.04-.52.933 0 1.766.2333 2.5.7.733.4667 1.313 1.1067 1.74 1.92.44.8133.66 1.7467.66 2.8s-.22 1.9933-.66 2.82c-.427.8133-1.007 1.4533-1.74 1.92-.734.4533-1.567.68-2.5.68zm-.32-1.98c.533 0 1.033-.14 1.5-.42.466-.28.846-.6733 1.14-1.18.293-.52.44-1.1333.44-1.84s-.147-1.3133-.44-1.82c-.294-.52-.674-.92-1.14-1.2-.467-.28-.967-.42-1.5-.42-.534 0-1.034.14-1.5.42-.467.28-.847.68-1.14 1.2-.294.5067-.44 1.1133-.44 1.82s.146 1.32.44 1.84c.293.5067.673.9 1.14 1.18.466.28.966.42 1.5.42zm7.266 1.66v-10.2h2.16v10.2z" fill="#fff"/><path d="m220.78 26.88c0 .9733-.213 1.8733-.64 2.7s-1.027 1.4933-1.8 2c-.76.4933-1.647.74-2.66.74-1.053 0-1.947-.2267-2.68-.68s-1.3-1.0733-1.7-1.86c-.387-.7867-.58-1.6733-.58-2.66 0-.1467.007-.28.02-.4s.027-.2133.04-.28h7.88c-.067-.6933-.253-1.26-.56-1.7-.307-.4533-.693-.7867-1.16-1-.453-.2267-.927-.34-1.42-.34-.693 0-1.267.16-1.72.48-.453.3067-.813.6933-1.08 1.16l-1.78-.86c.44-.8 1.04-1.4467 1.8-1.94.76-.5067 1.7-.76 2.82-.76 1.013 0 1.913.2333 2.7.7s1.4 1.1067 1.84 1.92c.453.8133.68 1.74.68 2.78zm-5.1 3.6c.653 0 1.247-.2067 1.78-.62s.9-1.0133 1.1-1.8h-5.68c.027.3467.14.7067.34 1.08s.5.6933.9.96c.413.2533.933.38 1.56.38zm7.006 1.52v-14.32h2.16v14.32zm7.809.32c-.733 0-1.387-.14-1.96-.42-.573-.2933-1.02-.7-1.34-1.22s-.48-1.1133-.48-1.78c0-.72.187-1.3333.56-1.84.387-.52.9-.9133 1.54-1.18s1.347-.4 2.12-.4c.64 0 1.2.06 1.68.18.493.12.867.2467 1.12.38v-.54c0-.6667-.24-1.2-.72-1.6s-1.1-.6-1.86-.6c-.52 0-1.013.12-1.48.36-.467.2267-.84.54-1.12.94l-1.48-1.14c.44-.6133 1.02-1.0933 1.74-1.44.733-.36 1.533-.54 2.4-.54 1.48 0 2.62.3667 3.42 1.1.8.72 1.2 1.7333 1.2 3.04v6.38h-2.1v-1.26h-.12c-.267.4133-.667.78-1.2 1.1s-1.173.48-1.92.48zm.38-1.76c.56 0 1.053-.1333 1.48-.4s.76-.6133 1-1.04c.253-.44.38-.9133.38-1.42-.307-.1733-.667-.3133-1.08-.42-.413-.12-.853-.18-1.32-.18-.88 0-1.507.18-1.88.54-.373.3467-.56.7733-.56 1.28 0 .48.18.8733.54 1.18s.84.46 1.44.46zm10.243 1.44-4.22-10.2h2.4l2.86 7.42h.1l2.92-7.42h2.36l-4.26 10.2zm17.045-5.12c0 .9733-.214 1.8733-.64 2.7-.427.8267-1.027 1.4933-1.8 2-.76.4933-1.647.74-2.66.74-1.054 0-1.947-.2267-2.68-.68-.734-.4533-1.3-1.0733-1.7-1.86-.387-.7867-.58-1.6733-.58-2.66 0-.1467.006-.28.02-.4.013-.12.026-.2133.04-.28h7.88c-.067-.6933-.254-1.26-.56-1.7-.307-.4533-.694-.7867-1.16-1-.454-.2267-.927-.34-1.42-.34-.694 0-1.267.16-1.72.48-.454.3067-.814.6933-1.08 1.16l-1.78-.86c.44-.8 1.04-1.4467 1.8-1.94.76-.5067 1.7-.76 2.82-.76 1.013 0 1.913.2333 2.7.7.786.4667 1.4 1.1067 1.84 1.92.453.8133.68 1.74.68 2.78zm-5.1 3.6c.653 0 1.246-.2067 1.78-.62.533-.4133.9-1.0133 1.1-1.8h-5.68c.026.3467.14.7067.34 1.08s.5.6933.9.96c.413.2533.933.38 1.56.38zm16.412 1.84c-1 0-1.894-.2333-2.68-.7-.787-.4667-1.407-1.1067-1.86-1.92-.44-.8133-.66-1.74-.66-2.78 0-.9733.213-1.8733.64-2.7.426-.8267 1.02-1.4867 1.78-1.98.773-.5067 1.66-.76 2.66-.76 1.053 0 1.946.2267 2.68.68.746.4533 1.313 1.0733 1.7 1.86.386.7867.58 1.6733.58 2.66 0 .1467-.007.28-.02.4 0 .12-.007.2133-.02.28h-7.88c.106 1.0133.46 1.7733 1.06 2.28.613.5067 1.306.76 2.08.76.693 0 1.266-.1533 1.72-.46.453-.32.813-.7133 1.08-1.18l1.78.86c-.44.8-1.04 1.4533-1.8 1.96-.76.4933-1.707.74-2.84.74zm-.1-9c-.72 0-1.334.22-1.84.66-.507.44-.847 1.0267-1.02 1.76h5.66c-.027-.3467-.14-.7067-.34-1.08s-.507-.6867-.92-.94c-.4-.2667-.914-.4-1.54-.4zm11.401 9c-.92 0-1.753-.2267-2.5-.68-.733-.4667-1.32-1.1067-1.76-1.92-.426-.8267-.64-1.7667-.64-2.82s.214-1.9867.64-2.8c.44-.8133 1.027-1.4533 1.76-1.92.747-.4667 1.58-.7 2.5-.7.787 0 1.46.1733 2.02.52.574.3467.994.74 1.26 1.18h.12l-.12-1.42v-4.08h2.14v14.32h-2.02v-1.36h-.12c-.266.44-.686.8333-1.26 1.18-.56.3333-1.233.5-2.02.5zm.32-1.98c.534 0 1.034-.14 1.5-.42.48-.28.86-.6733 1.14-1.18.294-.52.44-1.1333.44-1.84s-.146-1.3133-.44-1.82c-.28-.52-.66-.92-1.14-1.2-.466-.28-.966-.42-1.5-.42-.533 0-1.033.14-1.5.42-.466.28-.846.68-1.14 1.2-.293.5067-.44 1.1133-.44 1.82s.147 1.32.44 1.84c.294.5067.674.9 1.14 1.18.467.28.967.42 1.5.42zm8.884-10.04c-.4 0-.746-.14-1.04-.42-.28-.2933-.42-.64-.42-1.04s.14-.74.42-1.02c.294-.28.64-.42 1.04-.42s.74.14 1.02.42c.294.28.44.62.44 1.02s-.146.7467-.44 1.04c-.28.28-.62.42-1.02.42zm-1.08 11.7v-10.2h2.16v10.2zm4.84 0v-10.2h2.04v1.4h.12c.294-.4933.727-.9 1.3-1.22.587-.3333 1.227-.5 1.92-.5 1.254 0 2.194.3733 2.82 1.12.627.7467.94 1.7333.94 2.96v6.44h-2.14v-6.16c0-.8267-.206-1.4267-.62-1.8-.413-.3867-.953-.58-1.62-.58-.52 0-.973.1467-1.36.44-.386.28-.693.6533-.92 1.12-.213.4667-.32.9667-.32 1.5v5.48z" fill="#fff"/><rect height="49" rx="24.5" stroke="#747775" width="325" x=".5" y=".5"/></svg>