<svg fill="none" height="50" viewBox="0 0 355 50" width="355" xmlns="http://www.w3.org/2000/svg" xmlns:xlink="http://www.w3.org/1999/xlink"><linearGradient id="a" gradientUnits="userSpaceOnUse" x1="34.5703" x2="18.7309" y1="30.7864" y2="48.9133"><stop offset="0" stop-color="#4285f4"/><stop offset="1" stop-color="#1b74e8"/></linearGradient><rect fill="#1f1f1f" height="49" rx="24.5" width="354" x=".5" y=".5"/><path d="m51 22h-30v-5c0-2.7143 2.2018-5 4.8165-5h20.367c2.6147 0 4.8165 2.2857 4.8165 5z" fill="#34a853"/><path d="m51 26.0537h-30v-5c0-2.7143 2.2018-5 4.8165-5h20.367c2.6147 0 4.8165 2.2857 4.8165 5z" fill="#fbbc04"/><path d="m51 30.2468h-30v-5c0-2.7143 2.2018-5 4.8165-5h20.367c2.6147 0 4.8165 2.2857 4.8165 5z" fill="#ea4335"/><path d="m21 23.2752 19.0411 4.4037c2.1918.5505 4.6575 0 6.4384-1.3761l4.5205-3.3028v10.3211c0 2.6147-2.1918 4.6789-4.7945 4.6789h-20.411c-2.6027 0-4.7945-2.0642-4.7945-4.6789z" fill="url(#a)"/><path d="m63.74 35.04v-5.12h1.26c.3067-.5067.5533-1.16.74-1.96.2-.8133.34-1.7067.42-2.68.0933-.9733.14-1.9533.14-2.94v-4.66h9.18v12.24h1.68v5.12h-2.14v-3.04h-9.14v3.04zm3.66-5.12h5.88v-10.16h-4.84v2.9c0 1.4533-.0933 2.7933-.28 4.02-.1733 1.2267-.4267 2.2667-.76 3.12zm16.3475 2.4c-1.0533 0-1.98-.24-2.78-.72s-1.4267-1.1267-1.88-1.94-.68-1.7333-.68-2.76c0-1.0133.2267-1.9267.68-2.74.4533-.8267 1.08-1.48 1.88-1.96s1.7267-.72 2.78-.72c1.04 0 1.96.24 2.76.72s1.4267 1.1333 1.88 1.96c.4533.8133.68 1.7267.68 2.74 0 1.0267-.2267 1.9467-.68 2.76s-1.08 1.46-1.88 1.94-1.72.72-2.76.72zm0-1.98c.56 0 1.08-.1333 1.56-.4.48-.28.8667-.6733 1.16-1.18.3067-.52.46-1.14.46-1.86s-.1533-1.3333-.46-1.84c-.2933-.52-.68-.9133-1.16-1.18-.48-.28-1-.42-1.56-.42s-1.0867.14-1.58.42c-.48.2667-.8733.66-1.18 1.18-.2933.5067-.44 1.12-.44 1.84s.1467 1.34.44 1.86c.3067.5067.7.9 1.18 1.18.4933.2667 1.02.4 1.58.4zm12.1494 1.98c-1 0-1.8867-.2267-2.66-.68-.76-.4667-1.36-1.1667-1.8-2.1-.44-.9467-.66-2.1333-.66-3.56 0-1.4533.1466-2.6533.44-3.6.2933-.96.78-1.7333 1.46-2.32.4266-.36.9533-.66 1.58-.9.64-.24 1.4333-.4333 2.38-.58.4933-.08.8533-.16 1.08-.24.2266-.08.3666-.1733.42-.28.0666-.1067.1-.2333.1-.38h1.9601c0 .6-.093 1.08-.2801 1.44-.1734.3467-.4934.6133-.96.8-.4534.1867-1.1.34-1.94.46-.88.1333-1.5534.2933-2.02.48-.4534.1867-.8267.4-1.12.64-.6534.5333-1.0534 1.2933-1.2 2.28h.12c.3066-.4667.76-.8533 1.36-1.16.6133-.32 1.32-.48 2.12-.48.9466 0 1.78.22 2.5.66.72.4267 1.2801 1.0133 1.6801 1.76.413.7467.62 1.5933.62 2.54 0 .9867-.22 1.88-.66 2.68-.4268.7867-1.0335 1.4067-1.8201 1.86-.7734.4533-1.6734.68-2.7.68zm.02-1.94c.8533 0 1.5666-.2933 2.14-.88.5733-.5867.86-1.4.86-2.44 0-.9467-.2867-1.6867-.86-2.22-.5734-.5333-1.2867-.8-2.14-.8-.8267 0-1.5334.2667-2.12.8-.5734.5333-.86 1.2733-.86 2.22 0 1.04.28 1.8533.84 2.44.5733.5867 1.2866.88 2.14.88zm10.3321 1.94c-.733 0-1.387-.14-1.96-.42-.573-.2933-1.02-.7-1.34-1.22s-.48-1.1133-.48-1.78c0-.72.187-1.3333.56-1.84.387-.52.9-.9133 1.54-1.18s1.347-.4 2.12-.4c.64 0 1.2.06 1.68.18.493.12.867.2467 1.12.38v-.54c0-.6667-.24-1.2-.72-1.6s-1.1-.6-1.86-.6c-.52 0-1.013.12-1.48.36-.467.2267-.84.54-1.12.94l-1.48-1.14c.44-.6133 1.02-1.0933 1.74-1.44.733-.36 1.533-.54 2.4-.54 1.48 0 2.62.3667 3.42 1.1.8.72 1.2 1.7333 1.2 3.04v6.38h-2.1v-1.26h-.12c-.267.4133-.667.78-1.2 1.1s-1.173.48-1.92.48zm.38-1.76c.56 0 1.053-.1333 1.48-.4s.76-.6133 1-1.04c.253-.44.38-.9133.38-1.42-.307-.1733-.667-.3133-1.08-.42-.413-.12-.853-.18-1.32-.18-.88 0-1.507.18-1.88.54-.373.3467-.56.7733-.56 1.28 0 .48.18.8733.54 1.18s.84.46 1.44.46zm7.338 1.44v-10.2h5.06c.6 0 1.133.12 1.6.36.48.2267.853.54 1.12.94.28.4.42.8467.42 1.34 0 .5333-.12.9933-.36 1.38-.227.3867-.527.6733-.9.86v.12c.507.2.907.5 1.2.9.307.4.46.86.46 1.38 0 .6-.16 1.12-.48 1.56-.307.44-.707.78-1.2 1.02-.493.2267-1.02.34-1.58.34zm2.16-8.44v2.4h2.64c.36 0 .66-.1133.9-.34s.36-.5133.36-.86c0-.36-.12-.6467-.36-.86-.24-.2267-.54-.34-.9-.34zm0 6.64h2.96c.387 0 .707-.12.96-.36.267-.2533.4-.5733.4-.96 0-.3733-.133-.6867-.4-.94-.253-.2533-.573-.38-.96-.38h-2.96zm7.727 1.8v-.12l2.72-3.54-.04-.12c-.64-.2533-1.16-.6467-1.56-1.18s-.6-1.1467-.6-1.84c0-.6533.16-1.2333.48-1.74s.753-.9067 1.3-1.2c.56-.3067 1.187-.46 1.88-.46h4.38v10.2h-2.16v-3.46h-1.42l-2.56 3.46zm4.34-5.18h2.06v-3.22h-2.06c-.467 0-.867.1533-1.2.46-.32.3067-.48.6867-.48 1.14 0 .4667.16.8533.48 1.16.333.3067.733.46 1.2.46zm6.75 5.18v-10.2h2.16v4.1h4.84v-4.1h2.16v10.2h-2.16v-4.22h-4.84v4.22zm16.242.32c-1 0-1.894-.2333-2.68-.7-.787-.4667-1.407-1.1067-1.86-1.92-.44-.8133-.66-1.74-.66-2.78 0-.9733.213-1.8733.64-2.7.426-.8267 1.02-1.4867 1.78-1.98.773-.5067 1.66-.76 2.66-.76 1.053 0 1.946.2267 2.68.68.746.4533 1.313 1.0733 1.7 1.86.386.7867.58 1.6733.58 2.66 0 .1467-.007.28-.02.4 0 .12-.007.2133-.02.28h-7.88c.106 1.0133.46 1.7733 1.06 2.28.613.5067 1.306.76 2.08.76.693 0 1.266-.1533 1.72-.46.453-.32.813-.7133 1.08-1.18l1.78.86c-.44.8-1.04 1.4533-1.8 1.96-.76.4933-1.707.74-2.84.74zm-.1-9c-.72 0-1.334.22-1.84.66-.507.44-.847 1.0267-1.02 1.76h5.66c-.027-.3467-.14-.7067-.34-1.08s-.507-.6867-.92-.94c-.4-.2667-.914-.4-1.54-.4zm11.612 8.68v-10.2h2.16v4.52h.12l4-4.52h2.48v.12l-4.26 4.66 4.42 5.3v.12h-2.56l-4.08-5.02h-.12v5.02zm14.393-10.2v3.4h2.16c.694 0 1.314.1467 1.86.44.547.2933.98.7 1.3 1.22.32.5067.48 1.0867.48 1.74s-.16 1.2333-.48 1.74-.753.9133-1.3 1.22c-.546.2933-1.166.44-1.86.44h-4.3v-8.32h-2.76v-1.88zm0 8.4h1.98c.48 0 .88-.1533 1.2-.46s.48-.6867.48-1.14-.16-.8333-.48-1.14c-.32-.32-.72-.48-1.2-.48h-1.98zm7.599 1.8v-10.2h2.56l3.14 6.24h.1l3.16-6.24h2.5v10.2h-2.06v-4.96l.1-1.96h-.12l-2.94 5.62h-1.42l-2.94-5.62h-.12l.1 1.96v4.96z" fill="#fff"/><path d="m211.4 32.32c-1.027 0-1.993-.1867-2.9-.56-.893-.3733-1.687-.8933-2.38-1.56-.693-.68-1.24-1.4733-1.64-2.38-.387-.92-.58-1.9133-.58-2.98s.193-2.0533.58-2.96c.4-.92.94-1.7133 1.62-2.38.693-.68 1.493-1.2067 2.4-1.58s1.873-.56 2.9-.56c1.093 0 2.1.1933 3.02.58.933.3867 1.713.9267 2.34 1.62l-1.52 1.5c-.467-.52-1.027-.92-1.68-1.2-.64-.28-1.36-.42-2.16-.42-.947 0-1.82.2267-2.62.68-.8.44-1.447 1.0667-1.94 1.88-.48.8-.72 1.7467-.72 2.84s.247 2.0467.74 2.86c.493.8 1.14 1.4267 1.94 1.88.8.44 1.673.66 2.62.66.867 0 1.653-.16 2.36-.48.707-.3333 1.273-.8 1.7-1.4.44-.6.707-1.32.8-2.16h-4.9v-1.94h6.96c.08.36.12.74.12 1.14v.02c0 1.3867-.307 2.6-.92 3.64-.6 1.0267-1.433 1.8267-2.5 2.4s-2.28.86-3.64.86zm13.5 0c-1.053 0-1.98-.24-2.78-.72s-1.427-1.1267-1.88-1.94-.68-1.7333-.68-2.76c0-1.0133.227-1.9267.68-2.74.453-.8267 1.08-1.48 1.88-1.96s1.727-.72 2.78-.72c1.04 0 1.96.24 2.76.72s1.427 1.1333 1.88 1.96c.453.8133.68 1.7267.68 2.74 0 1.0267-.227 1.9467-.68 2.76s-1.08 1.46-1.88 1.94-1.72.72-2.76.72zm0-1.98c.56 0 1.08-.1333 1.56-.4.48-.28.867-.6733 1.16-1.18.307-.52.46-1.14.46-1.86s-.153-1.3333-.46-1.84c-.293-.52-.68-.9133-1.16-1.18-.48-.28-1-.42-1.56-.42s-1.087.14-1.58.42c-.48.2667-.873.66-1.18 1.18-.293.5067-.44 1.12-.44 1.84s.147 1.34.44 1.86c.307.5067.7.9 1.18 1.18.493.2667 1.02.4 1.58.4zm12.109 1.98c-1.053 0-1.98-.24-2.78-.72s-1.426-1.1267-1.88-1.94c-.453-.8133-.68-1.7333-.68-2.76 0-1.0133.227-1.9267.68-2.74.454-.8267 1.08-1.48 1.88-1.96s1.727-.72 2.78-.72c1.04 0 1.96.24 2.76.72s1.427 1.1333 1.88 1.96c.454.8133.68 1.7267.68 2.74 0 1.0267-.226 1.9467-.68 2.76-.453.8133-1.08 1.46-1.88 1.94s-1.72.72-2.76.72zm0-1.98c.56 0 1.08-.1333 1.56-.4.48-.28.867-.6733 1.16-1.18.307-.52.46-1.14.46-1.86s-.153-1.3333-.46-1.84c-.293-.52-.68-.9133-1.16-1.18-.48-.28-1-.42-1.56-.42s-1.086.14-1.58.42c-.48.2667-.873.66-1.18 1.18-.293.5067-.44 1.12-.44 1.84s.147 1.34.44 1.86c.307.5067.7.9 1.18 1.18.494.2667 1.02.4 1.58.4zm11.91 6.3c-.894 0-1.667-.1467-2.32-.44-.64-.28-1.16-.6467-1.56-1.1-.4-.44-.687-.8933-.86-1.36l2-.84c.213.5333.553.9667 1.02 1.3.48.3467 1.053.52 1.72.52.933 0 1.666-.28 2.2-.84.546-.56.82-1.3533.82-2.38v-.98h-.12c-.32.48-.767.8667-1.34 1.16-.56.28-1.2.42-1.92.42-.867 0-1.66-.22-2.38-.66s-1.3-1.0533-1.74-1.84c-.44-.8-.66-1.7333-.66-2.8 0-1.08.22-2.0133.66-2.8.44-.8 1.02-1.42 1.74-1.86s1.513-.66 2.38-.66c.72 0 1.36.1467 1.92.44.573.2933 1.02.68 1.34 1.16h.12v-1.28h2.06v9.66c0 1.1067-.22 2.0467-.66 2.82-.427.7733-1.02 1.36-1.78 1.76s-1.64.6-2.64.6zm.02-6.5c.533 0 1.026-.1267 1.48-.38.453-.2667.82-.6467 1.1-1.14.28-.5067.42-1.1133.42-1.82 0-.7333-.14-1.3467-.42-1.84-.28-.5067-.647-.8867-1.1-1.14-.454-.2533-.947-.38-1.48-.38-.534 0-1.034.1333-1.5.4-.454.2533-.82.6267-1.1 1.12s-.42 1.1067-.42 1.84c0 .72.14 1.3333.42 1.84.28.4933.646.8667 1.1 1.12.466.2533.966.38 1.5.38zm7.607 1.86v-14.32h2.16v14.32zm9.269.32c-1 0-1.894-.2333-2.68-.7-.787-.4667-1.407-1.1067-1.86-1.92-.44-.8133-.66-1.74-.66-2.78 0-.9733.213-1.8733.64-2.7.426-.8267 1.02-1.4867 1.78-1.98.773-.5067 1.66-.76 2.66-.76 1.053 0 1.946.2267 2.68.68.746.4533 1.313 1.0733 1.7 1.86.386.7867.58 1.6733.58 2.66 0 .1467-.007.28-.02.4 0 .12-.007.2133-.02.28h-7.88c.106 1.0133.46 1.7733 1.06 2.28.613.5067 1.306.76 2.08.76.693 0 1.266-.1533 1.72-.46.453-.32.813-.7133 1.08-1.18l1.78.86c-.44.8-1.04 1.4533-1.8 1.96-.76.4933-1.707.74-2.84.74zm-.1-9c-.72 0-1.334.22-1.84.66-.507.44-.847 1.0267-1.02 1.76h5.66c-.027-.3467-.14-.7067-.34-1.08s-.507-.6867-.92-.94c-.4-.2667-.914-.4-1.54-.4zm13.731 8.68-3.84-14.32h2.44l2.28 9.3.24 1.24h.12l.3-1.24 2.88-9.3h2.2l2.76 9.3.3 1.22h.12l.24-1.22 2.28-9.3h2.42l-3.78 14.32h-2.32l-2.74-9.5-.32-1.34h-.12l-.34 1.34-2.86 9.5zm18.756.32c-.733 0-1.386-.14-1.96-.42-.573-.2933-1.02-.7-1.34-1.22s-.48-1.1133-.48-1.78c0-.72.187-1.3333.56-1.84.387-.52.9-.9133 1.54-1.18s1.347-.4 2.12-.4c.64 0 1.2.06 1.68.18.494.12.867.2467 1.12.38v-.54c0-.6667-.24-1.2-.72-1.6s-1.1-.6-1.86-.6c-.52 0-1.013.12-1.48.36-.466.2267-.84.54-1.12.94l-1.48-1.14c.44-.6133 1.02-1.0933 1.74-1.44.734-.36 1.534-.54 2.4-.54 1.48 0 2.62.3667 3.42 1.1.8.72 1.2 1.7333 1.2 3.04v6.38h-2.1v-1.26h-.12c-.266.4133-.666.78-1.2 1.1-.533.32-1.173.48-1.92.48zm.38-1.76c.56 0 1.054-.1333 1.48-.4.427-.2667.76-.6133 1-1.04.254-.44.38-.9133.38-1.42-.306-.1733-.666-.3133-1.08-.42-.413-.12-.853-.18-1.32-.18-.88 0-1.506.18-1.88.54-.373.3467-.56.7733-.56 1.28 0 .48.18.8733.54 1.18s.84.46 1.44.46zm7.358 1.44v-14.32h2.16v14.32zm4.727 0v-14.32h2.16v14.32zm9.269.32c-1 0-1.894-.2333-2.68-.7-.787-.4667-1.407-1.1067-1.86-1.92-.44-.8133-.66-1.74-.66-2.78 0-.9733.213-1.8733.64-2.7.426-.8267 1.02-1.4867 1.78-1.98.773-.5067 1.66-.76 2.66-.76 1.053 0 1.946.2267 2.68.68.746.4533 1.313 1.0733 1.7 1.86.386.7867.58 1.6733.58 2.66 0 .1467-.007.28-.02.4 0 .12-.007.2133-.02.28h-7.88c.106 1.0133.46 1.7733 1.06 2.28.613.5067 1.306.76 2.08.76.693 0 1.266-.1533 1.72-.46.453-.32.813-.7133 1.08-1.18l1.78.86c-.44.8-1.04 1.4533-1.8 1.96-.76.4933-1.707.74-2.84.74zm-.1-9c-.72 0-1.334.22-1.84.66-.507.44-.847 1.0267-1.02 1.76h5.66c-.027-.3467-.14-.7067-.34-1.08s-.507-.6867-.92-.94c-.4-.2667-.914-.4-1.54-.4zm7.731 5.72v-5.36h-1.78v-1.88h1.78v-2.88h2.16v2.88h2.5v1.88h-2.5v4.9c0 .5067.1.8933.3 1.16.213.2667.566.4 1.06.4.253 0 .466-.0333.64-.1.186-.0667.373-.16.56-.28v2.1c-.227.0933-.467.1667-.72.22-.254.0533-.554.08-.9.08-.947 0-1.7-.2733-2.26-.82-.56-.56-.84-1.3267-.84-2.3z" fill="#fff"/><rect height="49" rx="24.5" stroke="#747775" width="354" x=".5" y=".5"/></svg>