<svg fill="none" height="50" viewBox="0 0 354 50" width="354" xmlns="http://www.w3.org/2000/svg" xmlns:xlink="http://www.w3.org/1999/xlink"><linearGradient id="a" gradientUnits="userSpaceOnUse" x1="34.5703" x2="18.7309" y1="30.7864" y2="48.9133"><stop offset="0" stop-color="#4285f4"/><stop offset="1" stop-color="#1b74e8"/></linearGradient><rect fill="#1f1f1f" height="49" rx="24.5" width="353" x=".5" y=".5"/><path d="m51 22h-30v-5c0-2.7143 2.2018-5 4.8165-5h20.367c2.6147 0 4.8165 2.2857 4.8165 5z" fill="#34a853"/><path d="m51 26.0537h-30v-5c0-2.7143 2.2018-5 4.8165-5h20.367c2.6147 0 4.8165 2.2857 4.8165 5z" fill="#fbbc04"/><path d="m51 30.2468h-30v-5c0-2.7143 2.2018-5 4.8165-5h20.367c2.6147 0 4.8165 2.2857 4.8165 5z" fill="#ea4335"/><path d="m21 23.2752 19.0411 4.4037c2.1918.5505 4.6575 0 6.4384-1.3761l4.5205-3.3028v10.3211c0 2.6147-2.1918 4.6789-4.7945 4.6789h-20.411c-2.6027 0-4.7945-2.0642-4.7945-4.6789z" fill="url(#a)"/><path d="m64.62 32v-14.32h2.2v5.96h6.7v-5.96h2.18v14.32h-2.18v-6.28h-6.7v6.28zm15.1964-11.7c-.4 0-.7467-.14-1.04-.42-.28-.2933-.42-.64-.42-1.04s.14-.74.42-1.02c.2933-.28.64-.42 1.04-.42s.74.14 1.02.42c.2933.28.44.62.44 1.02s-.1467.7467-.44 1.04c-.28.28-.62.42-1.02.42zm-1.08 11.7v-10.2h2.16v10.2zm4.84 0v-10.2h2.04v1.4h.12c.2933-.4933.7267-.9 1.3-1.22.5867-.3333 1.2267-.5 1.92-.5 1.2533 0 2.1933.3733 2.82 1.12s.94 1.7333.94 2.96v6.44h-2.14v-6.16c0-.8267-.2067-1.4267-.62-1.8-.4133-.3867-.9533-.58-1.62-.58-.52 0-.9733.1467-1.36.44-.3867.28-.6933.6533-.92 1.12-.2133.4667-.32.9667-.32 1.5v5.48zm11.0816 0v-1.8l5.68-6.52h-5.5v-1.88h8.14v1.8l-5.66 6.52h5.82v1.88zm14.2.32c-1.253 0-2.2-.3733-2.84-1.12-.626-.76-.94-1.7867-.94-3.08v-6.32h2.16v6.02c0 .8667.2 1.5067.6 1.92.414.4.927.6 1.54.6.547 0 1.02-.14 1.42-.42.414-.2933.727-.6667.94-1.12.227-.4667.34-.9733.34-1.52v-5.48h2.14v10.2h-2.02v-1.38h-.12c-.293.48-.733.8867-1.32 1.22-.573.32-1.206.48-1.9.48zm9.16-.32v-8.32h-1.86v-1.88h1.86v-.84c0-.72.153-1.3333.46-1.84.306-.52.72-.9133 1.24-1.18.533-.28 1.133-.42 1.8-.42.36 0 .666.0267.92.08.266.04.486.0933.66.16v2.1c-.174-.0667-.374-.1333-.6-.2-.214-.08-.48-.12-.8-.12-.414 0-.774.14-1.08.42-.307.2667-.46.66-.46 1.18v.66h2.56v1.88h-2.56v8.32zm10.274.32c-1.253 0-2.2-.3733-2.84-1.12-.627-.76-.94-1.7867-.94-3.08v-6.32h2.16v6.02c0 .8667.2 1.5067.6 1.92.413.4.927.6 1.54.6.547 0 1.02-.14 1.42-.42.413-.2933.727-.6667.94-1.12.227-.4667.34-.9733.34-1.52v-5.48h2.14v10.2h-2.02v-1.38h-.12c-.293.48-.733.8867-1.32 1.22-.573.32-1.207.48-1.9.48zm2.56-12.6c-.333 0-.627-.12-.88-.36-.24-.2533-.36-.5533-.36-.9s.12-.6333.36-.86c.253-.24.547-.36.88-.36.36 0 .66.12.9.36.24.2267.36.5133.36.86s-.12.6467-.36.9c-.24.24-.54.36-.9.36zm-3.54 0c-.333 0-.627-.12-.88-.36-.24-.2533-.36-.5533-.36-.9s.12-.6333.36-.86c.253-.24.547-.36.88-.36.36 0 .653.12.88.36.24.2267.36.5133.36.86s-.12.6467-.36.9c-.227.24-.52.36-.88.36zm13.384 16.92c-.893 0-1.667-.1467-2.32-.44-.64-.28-1.16-.6467-1.56-1.1-.4-.44-.687-.8933-.86-1.36l2-.84c.213.5333.553.9667 1.02 1.3.48.3467 1.053.52 1.72.52.933 0 1.667-.28 2.2-.84.547-.56.82-1.3533.82-2.38v-.98h-.12c-.32.48-.767.8667-1.34 1.16-.56.28-1.2.42-1.92.42-.867 0-1.66-.22-2.38-.66s-1.3-1.0533-1.74-1.84c-.44-.8-.66-1.7333-.66-2.8 0-1.08.22-2.0133.66-2.8.44-.8 1.02-1.42 1.74-1.86s1.513-.66 2.38-.66c.72 0 1.36.1467 1.92.44.573.2933 1.02.68 1.34 1.16h.12v-1.28h2.06v9.66c0 1.1067-.22 2.0467-.66 2.82-.427.7733-1.02 1.36-1.78 1.76s-1.64.6-2.64.6zm.02-6.5c.533 0 1.027-.1267 1.48-.38.453-.2667.82-.6467 1.1-1.14.28-.5067.42-1.1133.42-1.82 0-.7333-.14-1.3467-.42-1.84-.28-.5067-.647-.8867-1.1-1.14s-.947-.38-1.48-.38-1.033.1333-1.5.4c-.453.2533-.82.6267-1.1 1.12s-.42 1.1067-.42 1.84c0 .72.14 1.3333.42 1.84.28.4933.647.8667 1.1 1.12.467.2533.967.38 1.5.38zm12.149 2.18c-1 0-1.893-.2333-2.68-.7-.786-.4667-1.406-1.1067-1.86-1.92-.44-.8133-.66-1.74-.66-2.78 0-.9733.214-1.8733.64-2.7.427-.8267 1.02-1.4867 1.78-1.98.774-.5067 1.66-.76 2.66-.76 1.054 0 1.947.2267 2.68.68.747.4533 1.314 1.0733 1.7 1.86.387.7867.58 1.6733.58 2.66 0 .1467-.006.28-.02.4 0 .12-.006.2133-.02.28h-7.88c.107 1.0133.46 1.7733 1.06 2.28.614.5067 1.307.76 2.08.76.694 0 1.267-.1533 1.72-.46.454-.32.814-.7133 1.08-1.18l1.78.86c-.44.8-1.04 1.4533-1.8 1.96-.76.4933-1.706.74-2.84.74zm-.1-9c-.72 0-1.333.22-1.84.66-.506.44-.846 1.0267-1.02 1.76h5.66c-.026-.3467-.14-.7067-.34-1.08s-.506-.6867-.92-.94c-.4-.2667-.913-.4-1.54-.4zm6.944 8.68v-10.2h2.04v1.4h.12c.294-.4933.727-.9 1.3-1.22.587-.3333 1.227-.5 1.92-.5 1.254 0 2.194.3733 2.82 1.12.627.7467.94 1.7333.94 2.96v6.44h-2.14v-6.16c0-.8267-.206-1.4267-.62-1.8-.413-.3867-.953-.58-1.62-.58-.52 0-.973.1467-1.36.44-.386.28-.693.6533-.92 1.12-.213.4667-.32.9667-.32 1.5v5.48zm15.75 0v-1.8l5.68-6.52h-5.5v-1.88h8.14v1.8l-5.66 6.52h5.82v1.88zm14.2.32c-1.253 0-2.2-.3733-2.84-1.12-.626-.76-.94-1.7867-.94-3.08v-6.32h2.16v6.02c0 .8667.2 1.5067.6 1.92.414.4.927.6 1.54.6.547 0 1.02-.14 1.42-.42.414-.2933.727-.6667.94-1.12.227-.4667.34-.9733.34-1.52v-5.48h2.14v10.2h-2.02v-1.38h-.12c-.293.48-.733.8867-1.32 1.22-.573.32-1.206.48-1.9.48z" fill="#fff"/><path d="m210.4 32.32c-1.027 0-1.993-.1867-2.9-.56-.893-.3733-1.687-.8933-2.38-1.56-.693-.68-1.24-1.4733-1.64-2.38-.387-.92-.58-1.9133-.58-2.98s.193-2.0533.58-2.96c.4-.92.94-1.7133 1.62-2.38.693-.68 1.493-1.2067 2.4-1.58s1.873-.56 2.9-.56c1.093 0 2.1.1933 3.02.58.933.3867 1.713.9267 2.34 1.62l-1.52 1.5c-.467-.52-1.027-.92-1.68-1.2-.64-.28-1.36-.42-2.16-.42-.947 0-1.82.2267-2.62.68-.8.44-1.447 1.0667-1.94 1.88-.48.8-.72 1.7467-.72 2.84s.247 2.0467.74 2.86c.493.8 1.14 1.4267 1.94 1.88.8.44 1.673.66 2.62.66.867 0 1.653-.16 2.36-.48.707-.3333 1.273-.8 1.7-1.4.44-.6.707-1.32.8-2.16h-4.9v-1.94h6.96c.08.36.12.74.12 1.14v.02c0 1.3867-.307 2.6-.92 3.64-.6 1.0267-1.433 1.8267-2.5 2.4s-2.28.86-3.64.86zm13.5 0c-1.053 0-1.98-.24-2.78-.72s-1.427-1.1267-1.88-1.94-.68-1.7333-.68-2.76c0-1.0133.227-1.9267.68-2.74.453-.8267 1.08-1.48 1.88-1.96s1.727-.72 2.78-.72c1.04 0 1.96.24 2.76.72s1.427 1.1333 1.88 1.96c.453.8133.68 1.7267.68 2.74 0 1.0267-.227 1.9467-.68 2.76s-1.08 1.46-1.88 1.94-1.72.72-2.76.72zm0-1.98c.56 0 1.08-.1333 1.56-.4.48-.28.867-.6733 1.16-1.18.307-.52.46-1.14.46-1.86s-.153-1.3333-.46-1.84c-.293-.52-.68-.9133-1.16-1.18-.48-.28-1-.42-1.56-.42s-1.087.14-1.58.42c-.48.2667-.873.66-1.18 1.18-.293.5067-.44 1.12-.44 1.84s.147 1.34.44 1.86c.307.5067.7.9 1.18 1.18.493.2667 1.02.4 1.58.4zm12.109 1.98c-1.053 0-1.98-.24-2.78-.72s-1.426-1.1267-1.88-1.94c-.453-.8133-.68-1.7333-.68-2.76 0-1.0133.227-1.9267.68-2.74.454-.8267 1.08-1.48 1.88-1.96s1.727-.72 2.78-.72c1.04 0 1.96.24 2.76.72s1.427 1.1333 1.88 1.96c.454.8133.68 1.7267.68 2.74 0 1.0267-.226 1.9467-.68 2.76-.453.8133-1.08 1.46-1.88 1.94s-1.72.72-2.76.72zm0-1.98c.56 0 1.08-.1333 1.56-.4.48-.28.867-.6733 1.16-1.18.307-.52.46-1.14.46-1.86s-.153-1.3333-.46-1.84c-.293-.52-.68-.9133-1.16-1.18-.48-.28-1-.42-1.56-.42s-1.086.14-1.58.42c-.48.2667-.873.66-1.18 1.18-.293.5067-.44 1.12-.44 1.84s.147 1.34.44 1.86c.307.5067.7.9 1.18 1.18.494.2667 1.02.4 1.58.4zm11.91 6.3c-.894 0-1.667-.1467-2.32-.44-.64-.28-1.16-.6467-1.56-1.1-.4-.44-.687-.8933-.86-1.36l2-.84c.213.5333.553.9667 1.02 1.3.48.3467 1.053.52 1.72.52.933 0 1.666-.28 2.2-.84.546-.56.82-1.3533.82-2.38v-.98h-.12c-.32.48-.767.8667-1.34 1.16-.56.28-1.2.42-1.92.42-.867 0-1.66-.22-2.38-.66s-1.3-1.0533-1.74-1.84c-.44-.8-.66-1.7333-.66-2.8 0-1.08.22-2.0133.66-2.8.44-.8 1.02-1.42 1.74-1.86s1.513-.66 2.38-.66c.72 0 1.36.1467 1.92.44.573.2933 1.02.68 1.34 1.16h.12v-1.28h2.06v9.66c0 1.1067-.22 2.0467-.66 2.82-.427.7733-1.02 1.36-1.78 1.76s-1.64.6-2.64.6zm.02-6.5c.533 0 1.026-.1267 1.48-.38.453-.2667.82-.6467 1.1-1.14.28-.5067.42-1.1133.42-1.82 0-.7333-.14-1.3467-.42-1.84-.28-.5067-.647-.8867-1.1-1.14-.454-.2533-.947-.38-1.48-.38-.534 0-1.034.1333-1.5.4-.454.2533-.82.6267-1.1 1.12s-.42 1.1067-.42 1.84c0 .72.14 1.3333.42 1.84.28.4933.646.8667 1.1 1.12.466.2533.966.38 1.5.38zm7.607 1.86v-14.32h2.16v14.32zm9.269.32c-1 0-1.894-.2333-2.68-.7-.787-.4667-1.407-1.1067-1.86-1.92-.44-.8133-.66-1.74-.66-2.78 0-.9733.213-1.8733.64-2.7.426-.8267 1.02-1.4867 1.78-1.98.773-.5067 1.66-.76 2.66-.76 1.053 0 1.946.2267 2.68.68.746.4533 1.313 1.0733 1.7 1.86.386.7867.58 1.6733.58 2.66 0 .1467-.007.28-.02.4 0 .12-.007.2133-.02.28h-7.88c.106 1.0133.46 1.7733 1.06 2.28.613.5067 1.306.76 2.08.76.693 0 1.266-.1533 1.72-.46.453-.32.813-.7133 1.08-1.18l1.78.86c-.44.8-1.04 1.4533-1.8 1.96-.76.4933-1.707.74-2.84.74zm-.1-9c-.72 0-1.334.22-1.84.66-.507.44-.847 1.0267-1.02 1.76h5.66c-.027-.3467-.14-.7067-.34-1.08s-.507-.6867-.92-.94c-.4-.2667-.914-.4-1.54-.4zm13.731 8.68-3.84-14.32h2.44l2.28 9.3.24 1.24h.12l.3-1.24 2.88-9.3h2.2l2.76 9.3.3 1.22h.12l.24-1.22 2.28-9.3h2.42l-3.78 14.32h-2.32l-2.74-9.5-.32-1.34h-.12l-.34 1.34-2.86 9.5zm18.756.32c-.733 0-1.386-.14-1.96-.42-.573-.2933-1.02-.7-1.34-1.22s-.48-1.1133-.48-1.78c0-.72.187-1.3333.56-1.84.387-.52.9-.9133 1.54-1.18s1.347-.4 2.12-.4c.64 0 1.2.06 1.68.18.494.12.867.2467 1.12.38v-.54c0-.6667-.24-1.2-.72-1.6s-1.1-.6-1.86-.6c-.52 0-1.013.12-1.48.36-.466.2267-.84.54-1.12.94l-1.48-1.14c.44-.6133 1.02-1.0933 1.74-1.44.734-.36 1.534-.54 2.4-.54 1.48 0 2.62.3667 3.42 1.1.8.72 1.2 1.7333 1.2 3.04v6.38h-2.1v-1.26h-.12c-.266.4133-.666.78-1.2 1.1-.533.32-1.173.48-1.92.48zm.38-1.76c.56 0 1.054-.1333 1.48-.4.427-.2667.76-.6133 1-1.04.254-.44.38-.9133.38-1.42-.306-.1733-.666-.3133-1.08-.42-.413-.12-.853-.18-1.32-.18-.88 0-1.506.18-1.88.54-.373.3467-.56.7733-.56 1.28 0 .48.18.8733.54 1.18s.84.46 1.44.46zm7.358 1.44v-14.32h2.16v14.32zm4.727 0v-14.32h2.16v14.32zm9.269.32c-1 0-1.894-.2333-2.68-.7-.787-.4667-1.407-1.1067-1.86-1.92-.44-.8133-.66-1.74-.66-2.78 0-.9733.213-1.8733.64-2.7.426-.8267 1.02-1.4867 1.78-1.98.773-.5067 1.66-.76 2.66-.76 1.053 0 1.946.2267 2.68.68.746.4533 1.313 1.0733 1.7 1.86.386.7867.58 1.6733.58 2.66 0 .1467-.007.28-.02.4 0 .12-.007.2133-.02.28h-7.88c.106 1.0133.46 1.7733 1.06 2.28.613.5067 1.306.76 2.08.76.693 0 1.266-.1533 1.72-.46.453-.32.813-.7133 1.08-1.18l1.78.86c-.44.8-1.04 1.4533-1.8 1.96-.76.4933-1.707.74-2.84.74zm-.1-9c-.72 0-1.334.22-1.84.66-.507.44-.847 1.0267-1.02 1.76h5.66c-.027-.3467-.14-.7067-.34-1.08s-.507-.6867-.92-.94c-.4-.2667-.914-.4-1.54-.4zm7.731 5.72v-5.36h-1.78v-1.88h1.78v-2.88h2.16v2.88h2.5v1.88h-2.5v4.9c0 .5067.1.8933.3 1.16.213.2667.566.4 1.06.4.253 0 .466-.0333.64-.1.186-.0667.373-.16.56-.28v2.1c-.227.0933-.467.1667-.72.22-.254.0533-.554.08-.9.08-.947 0-1.7-.2733-2.26-.82-.56-.56-.84-1.3267-.84-2.3z" fill="#fff"/><rect height="49" rx="24.5" stroke="#747775" width="353" x=".5" y=".5"/></svg>