<svg fill="none" height="50" viewBox="0 0 404 50" width="404" xmlns="http://www.w3.org/2000/svg" xmlns:xlink="http://www.w3.org/1999/xlink"><linearGradient id="a" gradientUnits="userSpaceOnUse" x1="34.5703" x2="18.7309" y1="30.7864" y2="48.9133"><stop offset="0" stop-color="#4285f4"/><stop offset="1" stop-color="#1b74e8"/></linearGradient><rect fill="#1f1f1f" height="49" rx="24.5" width="403" x=".5" y=".5"/><path d="m51 22h-30v-5c0-2.7143 2.2018-5 4.8165-5h20.367c2.6147 0 4.8165 2.2857 4.8165 5z" fill="#34a853"/><path d="m51 26.0537h-30v-5c0-2.7143 2.2018-5 4.8165-5h20.367c2.6147 0 4.8165 2.2857 4.8165 5z" fill="#fbbc04"/><path d="m51 30.2468h-30v-5c0-2.7143 2.2018-5 4.8165-5h20.367c2.6147 0 4.8165 2.2857 4.8165 5z" fill="#ea4335"/><path d="m21 23.2752 19.0411 4.4037c2.1918.5505 4.6575 0 6.4384-1.3761l4.5205-3.3028v10.3211c0 2.6147-2.1918 4.6789-4.7945 4.6789h-20.411c-2.6027 0-4.7945-2.0642-4.7945-4.6789z" fill="url(#a)"/><path d="m64.62 32v-14.32h10.8v14.32h-2.2v-12.24h-6.4v12.24zm13.4077 4.32v-9.26c0-1.1333.22-2.1133.66-2.94.4533-.84 1.0666-1.4867 1.84-1.94.7866-.4667 1.6733-.7 2.66-.7 1.12 0 2.06.2533 2.82.76.7733.4933 1.36 1.16 1.76 2 .4.8267.6 1.72.6 2.68 0 1.0533-.22 1.9867-.66 2.8-.4267.8133-1.0067 1.4533-1.74 1.92-.7334.4533-1.5467.68-2.44.68-.8 0-1.4867-.1667-2.06-.5-.56-.3333-.9867-.7267-1.28-1.18h-.12l.12 1.4v4.28zm5.1-5.98c.5466 0 1.0533-.14 1.52-.42.4666-.2933.8466-.6933 1.14-1.2.2933-.5067.44-1.1.44-1.78 0-.7333-.1534-1.36-.46-1.88-.2934-.52-.6734-.9133-1.14-1.18-.4667-.28-.9667-.42-1.5-.42-.4934 0-.9734.1333-1.44.4-.4667.2667-.8534.66-1.16 1.18-.3067.52-.46 1.1667-.46 1.94 0 .64.14 1.22.42 1.74.28.5067.6533.9067 1.12 1.2.4666.28.9733.42 1.52.42zm12.0261 1.98c-1.0534 0-1.98-.24-2.78-.72s-1.4267-1.1267-1.88-1.94c-.4534-.8133-.68-1.7333-.68-2.76 0-1.0133.2266-1.9267.68-2.74.4533-.8267 1.08-1.48 1.88-1.96s1.7266-.72 2.78-.72c1.04 0 1.96.24 2.76.72s1.4266 1.1333 1.88 1.96c.4532.8133.6802 1.7267.6802 2.74 0 1.0267-.227 1.9467-.6802 2.76-.4534.8133-1.08 1.46-1.88 1.94s-1.72.72-2.76.72zm0-1.98c.56 0 1.08-.1333 1.56-.4.48-.28.8666-.6733 1.16-1.18.3066-.52.46-1.14.46-1.86s-.1534-1.3333-.46-1.84c-.2934-.52-.68-.9133-1.16-1.18-.48-.28-1-.42-1.56-.42s-1.0867.14-1.58.42c-.48.2667-.8734.66-1.18 1.18-.2934.5067-.44 1.12-.44 1.84s.1466 1.34.44 1.86c.3066.5067.7.9 1.18 1.18.4933.2667 1.02.4 1.58.4zm11.9692 1.98c-1.027 0-1.933-.2267-2.72-.68-.787-.4667-1.4-1.0933-1.84-1.88-.427-.8-.64-1.7-.64-2.7 0-1.0133.22-1.9133.66-2.7s1.067-1.4067 1.88-1.86c.827-.4667 1.8-.7 2.92-.7h6.22v1.88h-1.18l-1.58-.14v.12c.467.36.84.82 1.12 1.38s.42 1.2133.42 1.96c0 1-.22 1.9-.66 2.7s-1.06 1.44-1.86 1.92c-.787.4667-1.7.7-2.74.7zm.02-1.98c.547 0 1.053-.1267 1.52-.38.467-.2667.847-.6467 1.14-1.14s.44-1.0867.44-1.78c0-.72-.147-1.3267-.44-1.82-.293-.5067-.673-.8933-1.14-1.16s-.973-.4-1.52-.4c-.533 0-1.04.1333-1.52.4-.467.2667-.847.6533-1.14 1.16-.28.4933-.42 1.1-.42 1.82 0 .6933.14 1.2867.42 1.78.293.4933.673.8733 1.14 1.14.48.2533.987.38 1.52.38zm13.068 1.98c-1.04 0-1.953-.2667-2.74-.8-.773-.5467-1.38-1.3667-1.82-2.46-.426-1.1067-.64-2.4933-.64-4.16 0-1.6533.214-3.0267.64-4.12.44-1.0933 1.047-1.9067 1.82-2.44.787-.5467 1.7-.82 2.74-.82s1.947.2733 2.72.82c.787.5333 1.4 1.3467 1.84 2.44s.66 2.4667.66 4.12c0 1.6667-.22 3.0533-.66 4.16-.44 1.0933-1.053 1.9133-1.84 2.46-.773.5333-1.68.8-2.72.8zm0-12.82c-.506 0-.98.1267-1.42.38-.426.2533-.786.7-1.08 1.34-.293.64-.473 1.54-.54 2.7h6.08c-.053-1.16-.226-2.06-.52-2.7-.293-.64-.66-1.0867-1.1-1.34s-.913-.38-1.42-.38zm0 10.84c.507 0 .974-.14 1.4-.42.44-.28.8-.7467 1.08-1.4.294-.6667.48-1.5733.56-2.72h-6.06c.067 1.1467.24 2.0533.52 2.72.294.6667.654 1.14 1.08 1.42.44.2667.914.4 1.42.4zm7.291 1.66v-10.2h2.04v1.4h.12c.294-.4933.727-.9 1.3-1.22.587-.3333 1.227-.5 1.92-.5 1.254 0 2.194.3733 2.82 1.12.627.7467.94 1.7333.94 2.96v10.76h-2.14v-10.48c0-.8267-.206-1.4267-.62-1.8-.413-.3867-.953-.58-1.62-.58-.52 0-.973.1467-1.36.44-.386.28-.693.6533-.92 1.12-.213.4667-.32.9667-.32 1.5v5.48zm3.38-12.16.74-3.12h2.56l-1.48 3.12zm8.222 12.16v-10.2h2.16v4.34l4.32-4.34h2.68v.12l-3.94 3.9 4.08 6.06v.12h-2.56l-3.02-4.68-1.56 1.52v3.16zm10.644 0v-10.2h2.04v1.4h.12c.294-.4933.727-.9 1.3-1.22.587-.3333 1.227-.5 1.92-.5 1.254 0 2.194.3733 2.82 1.12.627.7467.94 1.7333.94 2.96v10.76h-2.14v-10.48c0-.8267-.206-1.4267-.62-1.8-.413-.3867-.953-.58-1.62-.58-.52 0-.973.1467-1.36.44-.386.28-.693.6533-.92 1.12-.213.4667-.32.9667-.32 1.5v5.48zm20.93.32c-1.027 0-1.934-.2267-2.72-.68-.787-.4667-1.4-1.0933-1.84-1.88-.427-.8-.64-1.7-.64-2.7 0-1.0133.22-1.9133.66-2.7s1.066-1.4067 1.88-1.86c.826-.4667 1.8-.7 2.92-.7h6.22v1.88h-1.18l-1.58-.14v.12c.466.36.84.82 1.12 1.38s.42 1.2133.42 1.96c0 1-.22 1.9-.66 2.7s-1.06 1.44-1.86 1.92c-.787.4667-1.7.7-2.74.7zm.02-1.98c.546 0 1.053-.1267 1.52-.38.466-.2667.846-.6467 1.14-1.14.293-.4933.44-1.0867.44-1.78 0-.72-.147-1.3267-.44-1.82-.294-.5067-.674-.8933-1.14-1.16-.467-.2667-.974-.4-1.52-.4-.534 0-1.04.1333-1.52.4-.467.2667-.847.6533-1.14 1.16-.28.4933-.42 1.1-.42 1.82 0 .6933.14 1.2867.42 1.78.293.4933.673.8733 1.14 1.14.48.2533.986.38 1.52.38zm13.988 1.82c-.933 0-1.687-.2667-2.26-.8s-.86-1.3-.86-2.3v-5.38h-3.26v-1.88h9.24v1.88h-3.84v4.92c0 .52.107.9067.32 1.16.227.2533.58.38 1.06.38.253 0 .467-.0333.64-.1.187-.08.367-.1733.54-.28v2.1c-.48.2-1.007.3-1.58.3zm9.511.16c-1.054 0-1.98-.24-2.78-.72s-1.427-1.1267-1.88-1.94c-.454-.8133-.68-1.7333-.68-2.76 0-1.0133.226-1.9267.68-2.74.453-.8267 1.08-1.48 1.88-1.96s1.726-.72 2.78-.72c1.04 0 1.96.24 2.76.72s1.426 1.1333 1.88 1.96c.453.8133.68 1.7267.68 2.74 0 1.0267-.227 1.9467-.68 2.76-.454.8133-1.08 1.46-1.88 1.94s-1.72.72-2.76.72zm0-1.98c.56 0 1.08-.1333 1.56-.4.48-.28.866-.6733 1.16-1.18.306-.52.46-1.14.46-1.86s-.154-1.3333-.46-1.84c-.294-.52-.68-.9133-1.16-1.18-.48-.28-1-.42-1.56-.42s-1.087.14-1.58.42c-.48.2667-.874.66-1.18 1.18-.294.5067-.44 1.12-.44 1.84s.146 1.34.44 1.86c.306.5067.7.9 1.18 1.18.493.2667 1.02.4 1.58.4z" fill="#fff"/><path d="m207.62 32v-14.32h10.8v14.32h-2.2v-12.24h-6.4v12.24zm18.288.32c-1.054 0-1.98-.24-2.78-.72s-1.427-1.1267-1.88-1.94c-.454-.8133-.68-1.7333-.68-2.76 0-1.0133.226-1.9267.68-2.74.453-.8267 1.08-1.48 1.88-1.96s1.726-.72 2.78-.72c1.04 0 1.96.24 2.76.72s1.426 1.1333 1.88 1.96c.453.8133.68 1.7267.68 2.74 0 1.0267-.227 1.9467-.68 2.76-.454.8133-1.08 1.46-1.88 1.94s-1.72.72-2.76.72zm0-1.98c.56 0 1.08-.1333 1.56-.4.48-.28.866-.6733 1.16-1.18.306-.52.46-1.14.46-1.86s-.154-1.3333-.46-1.84c-.294-.52-.68-.9133-1.16-1.18-.48-.28-1-.42-1.56-.42s-1.087.14-1.58.42c-.48.2667-.874.66-1.18 1.18-.294.5067-.44 1.12-.44 1.84s.146 1.34.44 1.86c.306.5067.7.9 1.18 1.18.493.2667 1.02.4 1.58.4zm7.034 5.98v-9.26c0-1.1333.22-2.1133.66-2.94.453-.84 1.066-1.4867 1.84-1.94.786-.4667 1.673-.7 2.66-.7 1.12 0 2.06.2533 2.82.76.773.4933 1.36 1.16 1.76 2 .4.8267.6 1.72.6 2.68 0 1.0533-.22 1.9867-.66 2.8-.427.8133-1.007 1.4533-1.74 1.92-.734.4533-1.547.68-2.44.68-.8 0-1.487-.1667-2.06-.5-.56-.3333-.987-.7267-1.28-1.18h-.12l.12 1.4v4.28zm5.1-5.98c.546 0 1.053-.14 1.52-.42.466-.2933.846-.6933 1.14-1.2.293-.5067.44-1.1.44-1.78 0-.7333-.154-1.36-.46-1.88-.294-.52-.674-.9133-1.14-1.18-.467-.28-.967-.42-1.5-.42-.494 0-.974.1333-1.44.4-.467.2667-.854.66-1.16 1.18-.307.52-.46 1.1667-.46 1.94 0 .64.14 1.22.42 1.74.28.5067.653.9067 1.12 1.2.466.28.973.42 1.52.42zm12.711 1.82c-.934 0-1.687-.2667-2.26-.8-.574-.5333-.86-1.3-.86-2.3v-5.38h-3.26v-1.88h9.24v1.88h-3.84v4.92c0 .52.106.9067.32 1.16.226.2533.58.38 1.06.38.253 0 .466-.0333.64-.1.186-.08.366-.1733.54-.28v2.1c-.48.2-1.007.3-1.58.3zm9.51.16c-1.053 0-1.98-.24-2.78-.72s-1.427-1.1267-1.88-1.94-.68-1.7333-.68-2.76c0-1.0133.227-1.9267.68-2.74.453-.8267 1.08-1.48 1.88-1.96s1.727-.72 2.78-.72c1.04 0 1.96.24 2.76.72s1.427 1.1333 1.88 1.96c.453.8133.68 1.7267.68 2.74 0 1.0267-.227 1.9467-.68 2.76s-1.08 1.46-1.88 1.94-1.72.72-2.76.72zm0-1.98c.56 0 1.08-.1333 1.56-.4.48-.28.867-.6733 1.16-1.18.307-.52.46-1.14.46-1.86s-.153-1.3333-.46-1.84c-.293-.52-.68-.9133-1.16-1.18-.48-.28-1-.42-1.56-.42s-1.087.14-1.58.42c-.48.2667-.873.66-1.18 1.18-.293.5067-.44 1.12-.44 1.84s.147 1.34.44 1.86c.307.5067.7.9 1.18 1.18.493.2667 1.02.4 1.58.4zm6.77-3.44c0-.96.193-1.8333.58-2.62.4-.7867 1.013-1.4267 1.84-1.92.826-.5067 1.886-.82 3.18-.94v-2.5h2.16v2.5c1.293.12 2.346.4333 3.16.94.826.4933 1.433 1.1333 1.82 1.92.4.7867.6 1.66.6 2.62 0 .92-.2 1.7733-.6 2.56-.387.7867-.994 1.44-1.82 1.96-.827.52-1.88.84-3.16.96v3.94h-2.16v-3.94c-1.294-.12-2.354-.44-3.18-.96-.827-.52-1.44-1.1733-1.84-1.96-.387-.7867-.58-1.64-.58-2.56zm11.2 0c0-1.0133-.274-1.8333-.82-2.46-.534-.64-1.407-1.0267-2.62-1.16v7.24c1.2-.1467 2.073-.5467 2.62-1.2.546-.6667.82-1.4733.82-2.42zm-9.04 0c0 .9333.266 1.7333.8 2.4.533.6533 1.413 1.06 2.64 1.22v-7.24c-1.214.1467-2.094.54-2.64 1.18-.534.6267-.8 1.44-.8 2.44zm17.965 5.42c-1.054 0-1.98-.24-2.78-.72s-1.427-1.1267-1.88-1.94c-.454-.8133-.68-1.7333-.68-2.76 0-1.0133.226-1.9267.68-2.74.453-.8267 1.08-1.48 1.88-1.96s1.726-.72 2.78-.72c1.04 0 1.96.24 2.76.72s1.426 1.1333 1.88 1.96c.453.8133.68 1.7267.68 2.74 0 1.0267-.227 1.9467-.68 2.76-.454.8133-1.08 1.46-1.88 1.94s-1.72.72-2.76.72zm0-1.98c.56 0 1.08-.1333 1.56-.4.48-.28.866-.6733 1.16-1.18.306-.52.46-1.14.46-1.86s-.154-1.3333-.46-1.84c-.294-.52-.68-.9133-1.16-1.18-.48-.28-1-.42-1.56-.42s-1.087.14-1.58.42c-.48.2667-.874.66-1.18 1.18-.294.5067-.44 1.12-.44 1.84s.146 1.34.44 1.86c.306.5067.7.9 1.18 1.18.493.2667 1.02.4 1.58.4zm-.92-10.5.74-3.12h2.56l-1.48 3.12zm6.738 12.16 4.24-9.56-.74-1.58c-.24-.52-.473-.8667-.7-1.04-.226-.1867-.513-.28-.86-.28-.32 0-.626.0867-.92.26v-2.1c.187-.0533.387-.0933.6-.12.214-.04.46-.06.74-.06.547 0 .994.08 1.34.24.36.16.667.4333.92.82.267.3733.534.8733.8 1.5l5.18 11.92h-2.36l-2.82-6.96h-.1l-2.92 6.96zm14.863.16c-.96 0-1.72-.2733-2.28-.82-.56-.56-.84-1.3267-.84-2.3v-7.24h2.16v6.78c0 .5067.107.8933.32 1.16s.56.4 1.04.4c.253 0 .467-.0333.64-.1.187-.0667.373-.16.56-.28v2.1c-.227.0933-.467.1667-.72.22s-.547.08-.88.08zm14.862.16c-1.027 0-1.994-.1867-2.9-.56-.894-.3733-1.687-.8933-2.38-1.56-.694-.68-1.24-1.4733-1.64-2.38-.387-.92-.58-1.9133-.58-2.98s.193-2.0533.58-2.96c.4-.92.94-1.7133 1.62-2.38.693-.68 1.493-1.2067 2.4-1.58.906-.3733 1.873-.56 2.9-.56 1.093 0 2.1.1933 3.02.58.933.3867 1.713.9267 2.34 1.62l-1.52 1.5c-.467-.52-1.027-.92-1.68-1.2-.64-.28-1.36-.42-2.16-.42-.947 0-1.82.2267-2.62.68-.8.44-1.447 1.0667-1.94 1.88-.48.8-.72 1.7467-.72 2.84s.246 2.0467.74 2.86c.493.8 1.14 1.4267 1.94 1.88.8.44 1.673.66 2.62.66.866 0 1.653-.16 2.36-.48.706-.3333 1.273-.8 1.7-1.4.44-.6.706-1.32.8-2.16h-4.9v-1.94h6.96c.08.36.12.74.12 1.14v.02c0 1.3867-.307 2.6-.92 3.64-.6 1.0267-1.434 1.8267-2.5 2.4-1.067.5733-2.28.86-3.64.86zm13.5 0c-1.054 0-1.98-.24-2.78-.72s-1.427-1.1267-1.88-1.94c-.454-.8133-.68-1.7333-.68-2.76 0-1.0133.226-1.9267.68-2.74.453-.8267 1.08-1.48 1.88-1.96s1.726-.72 2.78-.72c1.04 0 1.96.24 2.76.72s1.426 1.1333 1.88 1.96c.453.8133.68 1.7267.68 2.74 0 1.0267-.227 1.9467-.68 2.76-.454.8133-1.08 1.46-1.88 1.94s-1.72.72-2.76.72zm0-1.98c.56 0 1.08-.1333 1.56-.4.48-.28.866-.6733 1.16-1.18.306-.52.46-1.14.46-1.86s-.154-1.3333-.46-1.84c-.294-.52-.68-.9133-1.16-1.18-.48-.28-1-.42-1.56-.42s-1.087.14-1.58.42c-.48.2667-.874.66-1.18 1.18-.294.5067-.44 1.12-.44 1.84s.146 1.34.44 1.86c.306.5067.7.9 1.18 1.18.493.2667 1.02.4 1.58.4zm12.109 1.98c-1.053 0-1.98-.24-2.78-.72s-1.427-1.1267-1.88-1.94-.68-1.7333-.68-2.76c0-1.0133.227-1.9267.68-2.74.453-.8267 1.08-1.48 1.88-1.96s1.727-.72 2.78-.72c1.04 0 1.96.24 2.76.72s1.427 1.1333 1.88 1.96c.453.8133.68 1.7267.68 2.74 0 1.0267-.227 1.9467-.68 2.76s-1.08 1.46-1.88 1.94-1.72.72-2.76.72zm0-1.98c.56 0 1.08-.1333 1.56-.4.48-.28.867-.6733 1.16-1.18.307-.52.46-1.14.46-1.86s-.153-1.3333-.46-1.84c-.293-.52-.68-.9133-1.16-1.18-.48-.28-1-.42-1.56-.42s-1.087.14-1.58.42c-.48.2667-.873.66-1.18 1.18-.293.5067-.44 1.12-.44 1.84s.147 1.34.44 1.86c.307.5067.7.9 1.18 1.18.493.2667 1.02.4 1.58.4zm11.909 6.3c-.893 0-1.666-.1467-2.32-.44-.64-.28-1.16-.6467-1.56-1.1-.4-.44-.686-.8933-.86-1.36l2-.84c.214.5333.554.9667 1.02 1.3.48.3467 1.054.52 1.72.52.934 0 1.667-.28 2.2-.84.547-.56.82-1.3533.82-2.38v-.98h-.12c-.32.48-.766.8667-1.34 1.16-.56.28-1.2.42-1.92.42-.866 0-1.66-.22-2.38-.66s-1.3-1.0533-1.74-1.84c-.44-.8-.66-1.7333-.66-2.8 0-1.08.22-2.0133.66-2.8.44-.8 1.02-1.42 1.74-1.86s1.514-.66 2.38-.66c.72 0 1.36.1467 1.92.44.574.2933 1.02.68 1.34 1.16h.12v-1.28h2.06v9.66c0 1.1067-.22 2.0467-.66 2.82-.426.7733-1.02 1.36-1.78 1.76s-1.64.6-2.64.6zm.02-6.5c.534 0 1.027-.1267 1.48-.38.454-.2667.82-.6467 1.1-1.14.28-.5067.42-1.1133.42-1.82 0-.7333-.14-1.3467-.42-1.84-.28-.5067-.646-.8867-1.1-1.14-.453-.2533-.946-.38-1.48-.38-.533 0-1.033.1333-1.5.4-.453.2533-.82.6267-1.1 1.12s-.42 1.1067-.42 1.84c0 .72.14 1.3333.42 1.84.28.4933.647.8667 1.1 1.12.467.2533.967.38 1.5.38zm7.607 1.86v-14.32h2.16v14.32zm9.269.32c-1 0-1.893-.2333-2.68-.7-.786-.4667-1.406-1.1067-1.86-1.92-.44-.8133-.66-1.74-.66-2.78 0-.9733.214-1.8733.64-2.7.427-.8267 1.02-1.4867 1.78-1.98.774-.5067 1.66-.76 2.66-.76 1.054 0 1.947.2267 2.68.68.747.4533 1.314 1.0733 1.7 1.86.387.7867.58 1.6733.58 2.66 0 .1467-.006.28-.02.4 0 .12-.006.2133-.02.28h-7.88c.107 1.0133.46 1.7733 1.06 2.28.614.5067 1.307.76 2.08.76.694 0 1.267-.1533 1.72-.46.454-.32.814-.7133 1.08-1.18l1.78.86c-.44.8-1.04 1.4533-1.8 1.96-.76.4933-1.706.74-2.84.74zm-.1-9c-.72 0-1.333.22-1.84.66-.506.44-.846 1.0267-1.02 1.76h5.66c-.026-.3467-.14-.7067-.34-1.08s-.506-.6867-.92-.94c-.4-.2667-.913-.4-1.54-.4z" fill="#fff"/><rect height="49" rx="24.5" stroke="#747775" width="403" x=".5" y=".5"/></svg>