<svg fill="none" height="50" viewBox="0 0 292 50" width="292" xmlns="http://www.w3.org/2000/svg" xmlns:xlink="http://www.w3.org/1999/xlink"><linearGradient id="a" gradientUnits="userSpaceOnUse" x1="34.5703" x2="18.7309" y1="30.7864" y2="48.9133"><stop offset="0" stop-color="#4285f4"/><stop offset="1" stop-color="#1b74e8"/></linearGradient><rect fill="#1f1f1f" height="49" rx="24.5" width="291" x=".5" y=".5"/><path d="m51 22h-30v-5c0-2.7143 2.2018-5 4.8165-5h20.367c2.6147 0 4.8165 2.2857 4.8165 5z" fill="#34a853"/><path d="m51 26.0537h-30v-5c0-2.7143 2.2018-5 4.8165-5h20.367c2.6147 0 4.8165 2.2857 4.8165 5z" fill="#fbbc04"/><path d="m51 30.2468h-30v-5c0-2.7143 2.2018-5 4.8165-5h20.367c2.6147 0 4.8165 2.2857 4.8165 5z" fill="#ea4335"/><path d="m21 23.2752 19.0411 4.4037c2.1918.5505 4.6575 0 6.4384-1.3761l4.5205-3.3028v10.3211c0 2.6147-2.1918 4.6789-4.7945 4.6789h-20.411c-2.6027 0-4.7945-2.0642-4.7945-4.6789z" fill="url(#a)"/><path d="m64.62 32v-14.32h5.36c.7733 0 1.48.1667 2.12.5.6533.3333 1.1667.7867 1.54 1.36.3867.5733.58 1.22.58 1.94 0 .7333-.1867 1.36-.56 1.88-.36.52-.82.9133-1.38 1.18v.1c.72.2533 1.3067.6733 1.76 1.26.4533.5733.68 1.2667.68 2.08 0 .8-.2067 1.5067-.62 2.12-.4.6-.9467 1.0667-1.64 1.4-.68.3333-1.4267.5-2.24.5zm5.34-12.3h-3.14v4h3.06c.6933 0 1.2333-.2067 1.62-.62.3867-.4267.58-.8933.58-1.4 0-.4933-.1867-.9467-.56-1.36s-.8933-.62-1.56-.62zm-3.14 10.26h3.4c.72 0 1.28-.2133 1.68-.64.4133-.44.62-.94.62-1.5s-.2067-1.06-.62-1.5-1-.66-1.76-.66h-3.32zm13.2595 2.36c-.7733 0-1.4533-.14-2.04-.42-.5733-.2933-1.0266-.7-1.36-1.22-.32-.52-.48-1.1133-.48-1.78 0-.72.1867-1.3333.56-1.84.3867-.52.9-.9133 1.54-1.18s1.3467-.4 2.12-.4c.64 0 1.1934.06 1.66.18.48.12.8534.2533 1.12.4v-.5c0-.6933-.2266-1.24-.68-1.64-.44-.4133-1.04-.62-1.8-.62-.52 0-.9666.12-1.34.36-.3733.24-.6533.5533-.84.94l-1.7-.8c.3467-.7467.8734-1.32 1.58-1.72.7067-.4 1.48-.6 2.32-.6.92 0 1.6934.16 2.32.48.64.3067 1.1467.7467 1.52 1.32.4134-.56.9267-.9933 1.54-1.3.6267-.32 1.3267-.48 2.1-.48 1.0534 0 1.9467.2267 2.68.68.7467.4533 1.3134 1.0733 1.7 1.86.3867.7733.58 1.6533.58 2.64 0 .1467-.0066.28-.02.4 0 .12-.0066.2133-.02.28h-7.86c.08.7467.2734 1.34.58 1.78.32.44.7067.76 1.16.96.4534.2.92.3 1.4.3.68 0 1.2467-.1533 1.7-.46.4534-.32.8134-.7133 1.08-1.18l1.78.86c-.44.8-1.04 1.4533-1.8 1.96-.76.4933-1.7.74-2.82.74-.96 0-1.8-.22-2.52-.66s-1.2866-1.0067-1.7-1.7c-.5466.8267-1.1533 1.4267-1.82 1.8-.6533.3733-1.4.56-2.24.56zm8.16-8.98c-.6266 0-1.22.1867-1.78.56s-.9333.9867-1.12 1.84h5.68c-.0266-.3467-.14-.7067-.34-1.08-.1866-.3733-.4866-.6867-.9-.94-.4-.2533-.9133-.38-1.54-.38zm-7.88 7.22c.56 0 1.0534-.1333 1.48-.4.4267-.2667.76-.6133 1-1.04.24-.44.36-.9133.36-1.42-.6933-.4-1.4866-.6-2.38-.6-.88 0-1.5066.18-1.88.54-.3733.3467-.56.7733-.56 1.28 0 .48.18.8733.54 1.18s.84.46 1.44.46zm15.6055-1.52v-5.36h-1.78v-1.88h1.78v-2.88h2.16v2.88h2.5v1.88h-2.5v4.9c0 .5067.1.8933.3 1.16.2133.2667.5667.4 1.06.4.2533 0 .4667-.0333.64-.1.187-.0667.373-.16.56-.28v2.1c-.227.0933-.467.1667-.72.22-.2533.0533-.5533.08-.9.08-.9467 0-1.7-.2733-2.26-.82-.56-.56-.84-1.3267-.84-2.3zm9.737 3.28c-.733 0-1.386-.14-1.96-.42-.573-.2933-1.02-.7-1.34-1.22s-.48-1.1133-.48-1.78c0-.72.187-1.3333.56-1.84.387-.52.9-.9133 1.54-1.18s1.347-.4 2.12-.4c.64 0 1.2.06 1.68.18.494.12.867.2467 1.12.38v-.54c0-.6667-.24-1.2-.72-1.6s-1.1-.6-1.86-.6c-.52 0-1.013.12-1.48.36-.466.2267-.84.54-1.12.94l-1.48-1.14c.44-.6133 1.02-1.0933 1.74-1.44.734-.36 1.534-.54 2.4-.54 1.48 0 2.62.3667 3.42 1.1.8.72 1.2 1.7333 1.2 3.04v6.38h-2.1v-1.26h-.12c-.266.4133-.666.78-1.2 1.1-.533.32-1.173.48-1.92.48zm.38-1.76c.56 0 1.054-.1333 1.48-.4.427-.2667.76-.6133 1-1.04.254-.44.38-.9133.38-1.42-.306-.1733-.666-.3133-1.08-.42-.413-.12-.853-.18-1.32-.18-.88 0-1.506.18-1.88.54-.373.3467-.56.7733-.56 1.28 0 .48.18.8733.54 1.18s.84.46 1.44.46zm15.106 1.44-4.22-10.2h2.4l2.86 7.42h.1l2.92-7.42h2.36l-4.26 10.2zm9.058-11.7c-.4 0-.747-.14-1.04-.42-.28-.2933-.42-.64-.42-1.04s.14-.74.42-1.02c.293-.28.64-.42 1.04-.42s.74.14 1.02.42c.293.28.44.62.44 1.02s-.147.7467-.44 1.04c-.28.28-.62.42-1.02.42zm-1.08 11.7v-10.2h2.16v10.2zm9.46.32c-.92 0-1.753-.2267-2.5-.68-.747-.4667-1.347-1.0867-1.8-1.86-.44-.7733-.66-1.6267-.66-2.56 0-.9733.227-1.84.68-2.6s1.04-1.3533 1.76-1.78c.72-.44 1.493-.66 2.32-.66.587 0 1.093.1067 1.52.32.427.2.747.4067.96.62l.12-.08c-.147-.4133-.387-.8067-.72-1.18-.32-.3867-.7-.74-1.14-1.06l-2.42 1.08-.6-1.42 1.44-.64c-.72-.36-1.407-.6-2.06-.72l.68-1.7c.6.1333 1.193.3267 1.78.58.6.24 1.167.5467 1.7.92l2.02-.9.6 1.4-1.28.58c.787.7733 1.427 1.7267 1.92 2.86s.74 2.46.74 3.98c0 1.1067-.22 2.0733-.66 2.9-.427.8133-1.02 1.4533-1.78 1.92-.76.4533-1.633.68-2.62.68zm.02-1.98c.547 0 1.033-.1267 1.46-.38.427-.2667.767-.6333 1.02-1.1.267-.4667.4-1.0133.4-1.64 0-.6-.133-1.1333-.4-1.6-.253-.4667-.593-.8333-1.02-1.1s-.907-.4-1.44-.4-1.02.1333-1.46.4c-.427.2533-.773.6133-1.04 1.08-.253.4667-.38 1.0067-.38 1.62 0 .6267.127 1.1733.38 1.64.267.4667.613.8333 1.04 1.1.44.2533.92.38 1.44.38z" fill="#fff"/><path d="m158.4 32.32c-1.027 0-1.993-.1867-2.9-.56-.893-.3733-1.687-.8933-2.38-1.56-.693-.68-1.24-1.4733-1.64-2.38-.387-.92-.58-1.9133-.58-2.98s.193-2.0533.58-2.96c.4-.92.94-1.7133 1.62-2.38.693-.68 1.493-1.2067 2.4-1.58s1.873-.56 2.9-.56c1.093 0 2.1.1933 3.02.58.933.3867 1.713.9267 2.34 1.62l-1.52 1.5c-.467-.52-1.027-.92-1.68-1.2-.64-.28-1.36-.42-2.16-.42-.947 0-1.82.2267-2.62.68-.8.44-1.447 1.0667-1.94 1.88-.48.8-.72 1.7467-.72 2.84s.247 2.0467.74 2.86c.493.8 1.14 1.4267 1.94 1.88.8.44 1.673.66 2.62.66.867 0 1.653-.16 2.36-.48.707-.3333 1.273-.8 1.7-1.4.44-.6.707-1.32.8-2.16h-4.9v-1.94h6.96c.08.36.12.74.12 1.14v.02c0 1.3867-.307 2.6-.92 3.64-.6 1.0267-1.433 1.8267-2.5 2.4s-2.28.86-3.64.86zm13.5 0c-1.053 0-1.98-.24-2.78-.72s-1.427-1.1267-1.88-1.94-.68-1.7333-.68-2.76c0-1.0133.227-1.9267.68-2.74.453-.8267 1.08-1.48 1.88-1.96s1.727-.72 2.78-.72c1.04 0 1.96.24 2.76.72s1.427 1.1333 1.88 1.96c.453.8133.68 1.7267.68 2.74 0 1.0267-.227 1.9467-.68 2.76s-1.08 1.46-1.88 1.94-1.72.72-2.76.72zm0-1.98c.56 0 1.08-.1333 1.56-.4.48-.28.867-.6733 1.16-1.18.307-.52.46-1.14.46-1.86s-.153-1.3333-.46-1.84c-.293-.52-.68-.9133-1.16-1.18-.48-.28-1-.42-1.56-.42s-1.087.14-1.58.42c-.48.2667-.873.66-1.18 1.18-.293.5067-.44 1.12-.44 1.84s.147 1.34.44 1.86c.307.5067.7.9 1.18 1.18.493.2667 1.02.4 1.58.4zm12.109 1.98c-1.053 0-1.98-.24-2.78-.72s-1.426-1.1267-1.88-1.94c-.453-.8133-.68-1.7333-.68-2.76 0-1.0133.227-1.9267.68-2.74.454-.8267 1.08-1.48 1.88-1.96s1.727-.72 2.78-.72c1.04 0 1.96.24 2.76.72s1.427 1.1333 1.88 1.96c.454.8133.68 1.7267.68 2.74 0 1.0267-.226 1.9467-.68 2.76-.453.8133-1.08 1.46-1.88 1.94s-1.72.72-2.76.72zm0-1.98c.56 0 1.08-.1333 1.56-.4.48-.28.867-.6733 1.16-1.18.307-.52.46-1.14.46-1.86s-.153-1.3333-.46-1.84c-.293-.52-.68-.9133-1.16-1.18-.48-.28-1-.42-1.56-.42s-1.086.14-1.58.42c-.48.2667-.873.66-1.18 1.18-.293.5067-.44 1.12-.44 1.84s.147 1.34.44 1.86c.307.5067.7.9 1.18 1.18.494.2667 1.02.4 1.58.4zm11.91 6.3c-.894 0-1.667-.1467-2.32-.44-.64-.28-1.16-.6467-1.56-1.1-.4-.44-.687-.8933-.86-1.36l2-.84c.213.5333.553.9667 1.02 1.3.48.3467 1.053.52 1.72.52.933 0 1.666-.28 2.2-.84.546-.56.82-1.3533.82-2.38v-.98h-.12c-.32.48-.767.8667-1.34 1.16-.56.28-1.2.42-1.92.42-.867 0-1.66-.22-2.38-.66s-1.3-1.0533-1.74-1.84c-.44-.8-.66-1.7333-.66-2.8 0-1.08.22-2.0133.66-2.8.44-.8 1.02-1.42 1.74-1.86s1.513-.66 2.38-.66c.72 0 1.36.1467 1.92.44.573.2933 1.02.68 1.34 1.16h.12v-1.28h2.06v9.66c0 1.1067-.22 2.0467-.66 2.82-.427.7733-1.02 1.36-1.78 1.76s-1.64.6-2.64.6zm.02-6.5c.533 0 1.026-.1267 1.48-.38.453-.2667.82-.6467 1.1-1.14.28-.5067.42-1.1133.42-1.82 0-.7333-.14-1.3467-.42-1.84-.28-.5067-.647-.8867-1.1-1.14-.454-.2533-.947-.38-1.48-.38-.534 0-1.034.1333-1.5.4-.454.2533-.82.6267-1.1 1.12s-.42 1.1067-.42 1.84c0 .72.14 1.3333.42 1.84.28.4933.646.8667 1.1 1.12.466.2533.966.38 1.5.38zm7.607 1.86v-14.32h2.16v14.32zm9.269.32c-1 0-1.894-.2333-2.68-.7-.787-.4667-1.407-1.1067-1.86-1.92-.44-.8133-.66-1.74-.66-2.78 0-.9733.213-1.8733.64-2.7.426-.8267 1.02-1.4867 1.78-1.98.773-.5067 1.66-.76 2.66-.76 1.053 0 1.946.2267 2.68.68.746.4533 1.313 1.0733 1.7 1.86.386.7867.58 1.6733.58 2.66 0 .1467-.007.28-.02.4 0 .12-.007.2133-.02.28h-7.88c.106 1.0133.46 1.7733 1.06 2.28.613.5067 1.306.76 2.08.76.693 0 1.266-.1533 1.72-.46.453-.32.813-.7133 1.08-1.18l1.78.86c-.44.8-1.04 1.4533-1.8 1.96-.76.4933-1.707.74-2.84.74zm-.1-9c-.72 0-1.334.22-1.84.66-.507.44-.847 1.0267-1.02 1.76h5.66c-.027-.3467-.14-.7067-.34-1.08s-.507-.6867-.92-.94c-.4-.2667-.914-.4-1.54-.4zm14.711 8.68-4.22-10.2h2.4l2.86 7.42h.1l2.92-7.42h2.36l-4.26 10.2zm12.185.32c-1 0-1.893-.2333-2.68-.7-.786-.4667-1.406-1.1067-1.86-1.92-.44-.8133-.66-1.74-.66-2.78 0-.9733.214-1.8733.64-2.7.427-.8267 1.02-1.4867 1.78-1.98.774-.5067 1.66-.76 2.66-.76 1.054 0 1.947.2267 2.68.68.747.4533 1.314 1.0733 1.7 1.86.387.7867.58 1.6733.58 2.66 0 .1467-.006.28-.02.4 0 .12-.006.2133-.02.28h-7.88c.107 1.0133.46 1.7733 1.06 2.28.614.5067 1.307.76 2.08.76.694 0 1.267-.1533 1.72-.46.454-.32.814-.7133 1.08-1.18l1.78.86c-.44.8-1.04 1.4533-1.8 1.96-.76.4933-1.706.74-2.84.74zm-.1-9c-.72 0-1.333.22-1.84.66-.506.44-.846 1.0267-1.02 1.76h5.66c-.026-.3467-.14-.7067-.34-1.08s-.506-.6867-.92-.94c-.4-.2667-.913-.4-1.54-.4zm10.762 9c-1.227 0-2.207-.2667-2.94-.8-.733-.5467-1.24-1.1933-1.52-1.94l1.94-.84c.24.5467.587.9667 1.04 1.26.453.28.967.42 1.54.42.533 0 .993-.0933 1.38-.28.387-.2.58-.52.58-.96 0-.4267-.193-.74-.58-.94s-.867-.3733-1.44-.52l-1.22-.28c-.493-.12-.953-.3067-1.38-.56s-.773-.58-1.04-.98c-.267-.4133-.4-.8933-.4-1.44 0-.6.18-1.12.54-1.56.36-.4533.833-.8 1.42-1.04.6-.2533 1.247-.38 1.94-.38.947 0 1.773.1867 2.48.56.72.36 1.247.9067 1.58 1.64l-1.86.84c-.24-.4533-.553-.7667-.94-.94-.373-.1867-.787-.28-1.24-.28-.507 0-.933.1067-1.28.32-.333.2133-.5.48-.5.8 0 .3467.147.62.44.82.307.2.68.36 1.12.48l1.48.36c1.013.2533 1.773.64 2.28 1.16.507.5067.76 1.1267.76 1.86 0 .6533-.187 1.2267-.56 1.72-.373.48-.88.8533-1.52 1.12-.627.2533-1.327.38-2.1.38zm6.065-.32v-14.32h2.16v8.44l4.32-4.32h2.68v.12l-3.94 3.9 4.08 6.06v.12h-2.56l-3.04-4.68-1.54 1.52v3.16zm11.885-11.7c-.4 0-.747-.14-1.04-.42-.28-.2933-.42-.64-.42-1.04s.14-.74.42-1.02c.293-.28.64-.42 1.04-.42s.74.14 1.02.42c.293.28.44.62.44 1.02s-.147.7467-.44 1.04c-.28.28-.62.42-1.02.42zm-1.08 11.7v-10.2h2.16v10.2z" fill="#fff"/><rect height="49" rx="24.5" stroke="#747775" width="291" x=".5" y=".5"/></svg>