<svg fill="none" height="50" viewBox="0 0 363 50" width="363" xmlns="http://www.w3.org/2000/svg" xmlns:xlink="http://www.w3.org/1999/xlink"><linearGradient id="a" gradientUnits="userSpaceOnUse" x1="34.5703" x2="18.7309" y1="30.7864" y2="48.9133"><stop offset="0" stop-color="#4285f4"/><stop offset="1" stop-color="#1b74e8"/></linearGradient><rect fill="#1f1f1f" height="49" rx="24.5" width="362" x=".5" y=".5"/><path d="m51 22h-30v-5c0-2.7143 2.2018-5 4.8165-5h20.367c2.6147 0 4.8165 2.2857 4.8165 5z" fill="#34a853"/><path d="m51 26.0537h-30v-5c0-2.7143 2.2018-5 4.8165-5h20.367c2.6147 0 4.8165 2.2857 4.8165 5z" fill="#fbbc04"/><path d="m51 30.2468h-30v-5c0-2.7143 2.2018-5 4.8165-5h20.367c2.6147 0 4.8165 2.2857 4.8165 5z" fill="#ea4335"/><path d="m21 23.2752 19.0411 4.4037c2.1918.5505 4.6575 0 6.4384-1.3761l4.5205-3.3028v10.3211c0 2.6147-2.1918 4.6789-4.7945 4.6789h-20.411c-2.6027 0-4.7945-2.0642-4.7945-4.6789z" fill="url(#a)"/><path d="m71.4 32.32c-1.0267 0-1.9933-.1867-2.9-.56-.8933-.3733-1.6867-.8933-2.38-1.56-.6933-.68-1.24-1.4733-1.64-2.38-.3867-.92-.58-1.9133-.58-2.98s.1933-2.0533.58-2.96c.4-.92.94-1.7133 1.62-2.38.6933-.68 1.4933-1.2067 2.4-1.58s1.8733-.56 2.9-.56c1.0933 0 2.1.1933 3.02.58.9333.3867 1.7133.9267 2.34 1.62l-1.52 1.5c-.4667-.52-1.0267-.92-1.68-1.2-.64-.28-1.36-.42-2.16-.42-.9467 0-1.82.2267-2.62.68-.8.44-1.4467 1.0667-1.94 1.88-.48.8-.72 1.7467-.72 2.84s.2467 2.0467.74 2.86c.4933.8 1.14 1.4267 1.94 1.88.8.44 1.6733.66 2.62.66.8667 0 1.6533-.16 2.36-.48.7067-.3333 1.2733-.8 1.7-1.4.44-.6.7067-1.32.8-2.16h-4.9v-1.94h6.96c.08.36.12.74.12 1.14v.02c0 1.3867-.3067 2.6-.92 3.64-.6 1.0267-1.4333 1.8267-2.5 2.4s-2.28.86-3.64.86zm13.4998 0c-1.0533 0-1.98-.24-2.78-.72s-1.4266-1.1267-1.88-1.94c-.4533-.8133-.68-1.7333-.68-2.76 0-1.0133.2267-1.9267.68-2.74.4534-.8267 1.08-1.48 1.88-1.96s1.7267-.72 2.78-.72c1.04 0 1.96.24 2.76.72s1.4267 1.1333 1.88 1.96c.4534.8133.68 1.7267.68 2.74 0 1.0267-.2266 1.9467-.68 2.76-.4533.8133-1.08 1.46-1.88 1.94s-1.72.72-2.76.72zm0-1.98c.56 0 1.08-.1333 1.56-.4.48-.28.8667-.6733 1.16-1.18.3067-.52.46-1.14.46-1.86s-.1533-1.3333-.46-1.84c-.2933-.52-.68-.9133-1.16-1.18-.48-.28-1-.42-1.56-.42s-1.0866.14-1.58.42c-.48.2667-.8733.66-1.18 1.18-.2933.5067-.44 1.12-.44 1.84s.1467 1.34.44 1.86c.3067.5067.7.9 1.18 1.18.4934.2667 1.02.4 1.58.4zm12.1094 1.98c-1.0533 0-1.98-.24-2.78-.72s-1.4266-1.1267-1.88-1.94c-.4533-.8133-.68-1.7333-.68-2.76 0-1.0133.2267-1.9267.68-2.74.4534-.8267 1.08-1.48 1.88-1.96s1.7267-.72 2.78-.72c1.04 0 1.96.24 2.76.72.7998.48 1.4268 1.1333 1.8798 1.96.454.8133.68 1.7267.68 2.74 0 1.0267-.226 1.9467-.68 2.76-.453.8133-1.08 1.46-1.8798 1.94-.8.48-1.72.72-2.76.72zm0-1.98c.56 0 1.08-.1333 1.56-.4.48-.28.8667-.6733 1.16-1.18.3068-.52.4598-1.14.4598-1.86s-.153-1.3333-.4598-1.84c-.2933-.52-.68-.9133-1.16-1.18-.48-.28-1-.42-1.56-.42s-1.0866.14-1.58.42c-.48.2667-.8733.66-1.18 1.18-.2933.5067-.44 1.12-.44 1.84s.1467 1.34.44 1.86c.3067.5067.7.9 1.18 1.18.4934.2667 1.02.4 1.58.4zm11.9098 6.3c-.894 0-1.667-.1467-2.32-.44-.64-.28-1.16-.6467-1.56-1.1-.4-.44-.687-.8933-.86-1.36l2-.84c.213.5333.553.9667 1.02 1.3.48.3467 1.053.52 1.72.52.933 0 1.666-.28 2.2-.84.546-.56.82-1.3533.82-2.38v-.98h-.12c-.32.48-.767.8667-1.34 1.16-.56.28-1.2.42-1.92.42-.867 0-1.66-.22-2.38-.66s-1.3-1.0533-1.74-1.84c-.44-.8-.66-1.7333-.66-2.8 0-1.08.22-2.0133.66-2.8.44-.8 1.02-1.42 1.74-1.86s1.513-.66 2.38-.66c.72 0 1.36.1467 1.92.44.573.2933 1.02.68 1.34 1.16h.12v-1.28h2.06v9.66c0 1.1067-.22 2.0467-.66 2.82-.427.7733-1.02 1.36-1.78 1.76s-1.64.6-2.64.6zm.02-6.5c.533 0 1.026-.1267 1.48-.38.453-.2667.82-.6467 1.1-1.14.28-.5067.42-1.1133.42-1.82 0-.7333-.14-1.3467-.42-1.84-.28-.5067-.647-.8867-1.1-1.14-.454-.2533-.947-.38-1.48-.38-.534 0-1.034.1333-1.5.4-.454.2533-.82.6267-1.1 1.12s-.42 1.1067-.42 1.84c0 .72.14 1.3333.42 1.84.28.4933.646.8667 1.1 1.12.466.2533.966.38 1.5.38zm7.607 1.86v-14.32h2.16v14.32zm9.269.32c-1 0-1.894-.2333-2.68-.7-.787-.4667-1.407-1.1067-1.86-1.92-.44-.8133-.66-1.74-.66-2.78 0-.9733.213-1.8733.64-2.7.426-.8267 1.02-1.4867 1.78-1.98.773-.5067 1.66-.76 2.66-.76 1.053 0 1.946.2267 2.68.68.746.4533 1.313 1.0733 1.7 1.86.386.7867.58 1.6733.58 2.66 0 .1467-.007.28-.02.4 0 .12-.007.2133-.02.28h-7.88c.106 1.0133.46 1.7733 1.06 2.28.613.5067 1.306.76 2.08.76.693 0 1.266-.1533 1.72-.46.453-.32.813-.7133 1.08-1.18l1.78.86c-.44.8-1.04 1.4533-1.8 1.96-.76.4933-1.707.74-2.84.74zm-.1-9c-.72 0-1.334.22-1.84.66-.507.44-.847 1.0267-1.02 1.76h5.66c-.027-.3467-.14-.7067-.34-1.08s-.507-.6867-.92-.94c-.4-.2667-.914-.4-1.54-.4zm21.151-7.32h-1.9c.08.62.1 1.08.1 1.5v2.66h1.7c0-.7 0-2.2 0-2.66 0-.42.02-.88.1-1.5zm6.82 3.88-1.08-.68c-.26.08-.62.16-1.36.16h-10.6c-.7 0-1.3-.04-1.88-.08.08.42.08 1.1.08 1.52v3.52c0 .4-.02.94-.08 1.28h1.74c-.04-.3-.06-.84-.06-1.18 0-.62 0-2.76 0-3.58h11.16c-.18 1.7-.8 4.12-1.88 5.82-1.24 1.9-3.42 3.38-5.44 4.04-.64.24-1.4.44-2.06.56l1.3 1.48c3.66-1 6.42-3.04 7.9-5.66 1.12-1.9 1.7-4.4 1.98-6 .06-.38.18-.92.28-1.2zm15.4-.1h-1.7c.08.44.12.96.12 1.36.08 1.76.18 7.76.18 10.12 0 .38-.18.6-.56.6-.58 0-1.62-.08-2.44-.2l.1 1.48c.78.04 2.1.1 2.88.1.88 0 1.52-.5 1.52-1.36-.04-2.9-.14-8.98-.18-10.74 0-.46 0-.94.08-1.36zm-9.02 2.88v1.6c.48-.04 1-.06 1.52-.06h10.38c.38 0 .94.02 1.28.04v-1.58c-.28.06-.92.1-1.34.1-.82 0-9.5 0-10.34 0-.48 0-1.02-.02-1.5-.1zm-.52 7.66 1.1 1.22c3.06-1.6 6.34-4.62 7.4-6.58l-.02-1.2-.82-.02c-1.16 2.1-4.44 5.04-7.66 6.58zm20.96 1.06 1.14.98c.32-.18.64-.28.84-.34 5-1.46 9.12-3.92 11.72-7.14l-.9-1.4c-2.5 3.22-7.12 5.84-10.96 6.82 0-1.02 0-9.46 0-11.36 0-.56.08-1.32.14-1.8h-1.96c.08.38.16 1.28.16 1.82v11.44c0 .38-.04.66-.18.98zm25.22-10.88-1.48.5c.42.88 1.34 3.42 1.56 4.34l1.48-.54c-.24-.86-1.22-3.5-1.56-4.3zm7.24 1.12-1.72-.56c-.32 2.56-1.34 5.12-2.76 6.86-1.64 2.04-4.2 3.56-6.5 4.24l1.32 1.34c2.22-.84 4.66-2.4 6.52-4.74 1.42-1.8 2.3-3.96 2.82-6.16.08-.26.18-.58.32-.98zm-11.9-.12-1.48.56c.4.7 1.48 3.48 1.8 4.52l1.5-.56c-.36-1.06-1.42-3.68-1.82-4.52zm21.72 8.74c0 .74-.02 1.74-.12 2.38h1.94c-.08-.66-.12-1.74-.12-2.38 0-.94-.02-8.52-.02-11.62 0-.62.06-1.48.14-2.1h-1.96c.1.64.14 1.52.14 2.1zm1.32-8.46v1.76c2.18.68 5.92 2.1 8.2 3.32l.7-1.7c-2.22-1.08-6.26-2.62-8.9-3.38z" fill="#fff"/><path d="m251.1 18.5.02 1.62c2.18.24 6.06.24 8.2 0v-1.62c-1.98.3-6.04.38-8.22 0zm.78 8.16-1.44-.14c-.22.96-.32 1.68-.32 2.34 0 1.88 1.5 3 4.84 3 2.08 0 3.76-.16 5-.42l-.04-1.68c-1.6.38-3.16.54-4.94.54-2.74 0-3.38-.9-3.38-1.82 0-.54.1-1.1.28-1.82zm-4.58-9.7-1.78-.14c-.02.44-.08.94-.14 1.4-.24 1.66-.9 5.08-.9 8.02 0 2.72.34 5.02.74 6.44l1.42-.1c-.02-.22-.04-.5-.06-.7 0-.24.04-.62.1-.9.18-.96.92-3.06 1.42-4.48l-.84-.66c-.34.82-.8 2.02-1.14 2.92-.12-.98-.18-1.82-.18-2.78 0-2.26.62-5.82 1-7.68.08-.36.24-1 .36-1.34zm19.92 6.14h-4.26v1.4h2.8v5.68h1.46zm0 6.42h-1.36c-1.02.86-2.2 1.74-3.16 2.38l.8 1.54c1.08-.88 2.1-1.74 3.06-2.6 1.28 1.58 3.08 2.28 5.68 2.38 2.22.08 6.36.04 8.56-.04.06-.46.32-1.18.48-1.54-2.36.16-6.86.22-9.04.14-2.3-.1-4.08-.78-5.02-2.26zm-4.04-12.92c1.3.88 2.8 2.24 3.44 3.2l1.18-.98c-.7-.98-2.2-2.28-3.52-3.12zm7 .7v1.26h7.42v2.7h-7.42v1.28h8.88v-5.24zm3.26-2.16c-.16.78-.52 1.9-.82 2.66l1.38.3c.34-.68.78-1.7 1.16-2.68zm-3.98 2.16v12.84h1.46v-12.84zm.8 7.14v1.28h8.12v3.12h-8.12v1.3h9.6v-5.7zm23.84 5.94v1.46h5.44v-1.46zm-11.04-11.38v1.46h7.68v-1.46zm10.36-1.3v15.6h1.46v-14.16h3.86v14.02h1.52v-15.46zm-3.08 1.3v.36c-.14 8.56-.32 11.52-.78 12.14-.18.26-.36.32-.66.3-.38 0-1.24 0-2.18-.08.26.42.42 1.08.44 1.52.9.06 1.82.06 2.38-.02.6-.06.96-.24 1.32-.76.64-.88.78-3.8.94-12.7 0-.2 0-.76 0-.76zm-4.44-3.52c-.02 7 0 13.6-3.34 17.12.38.22.9.68 1.16 1.02 3.52-3.82 3.62-10.76 3.64-18.14zm28.64.68h-1.84c.04.18.1.74.14 1.28.06 1.1.08 5.08.08 5.96l1.52.78c-.02-1.6-.06-5.46 0-6.76 0-.24.06-1.02.1-1.26zm-10.64 2.8.04 1.54c3.02-.22 7.3-.36 10.74-.36 2.94 0 4.74.04 5.86.1l.02-1.48c-.94-.02-3.42-.02-5.86-.02-3.08 0-8.08.18-10.8.22zm10.5 5.8-1.1-.56c.32 2.14-.48 3.18-1.72 3.18-1.1 0-2.04-.72-2.04-1.98 0-1.3.98-2.12 2.04-2.12 1.08 0 1.96.76 1.96 2.56 0 3.3-2.12 5.08-5.76 5.94l1.34 1.3c4.64-1.38 5.96-4.38 5.96-7.1 0-2.3-1.18-4.02-3.5-4.02-1.9 0-3.54 1.48-3.54 3.46 0 2.18 1.62 3.36 3.3 3.36 1.82 0 3.06-1.34 3.06-4.02zm12.36-7.48.04 1.64c.44-.06.88-.08 1.34-.12 1.04-.06 5.04-.22 6.1-.28-1 .9-3.52 3-4.64 3.92-1.14.98-3.72 3.14-5.38 4.5l1.16 1.16c2.52-2.58 4.32-3.98 7.64-3.98 2.62 0 4.5 1.46 4.5 3.44 0 2.5-2.14 3.9-5.54 3.9-1.58 0-2.68-.58-2.68-1.56 0-.7.7-1.26 1.62-1.26 1.6 0 2.58 1.22 2.7 2.92l1.44-.24c-.14-2.02-1.48-3.9-4.14-3.9-1.84 0-3.08 1.24-3.08 2.6 0 1.68 1.66 2.86 4.38 2.86 4.24 0 6.9-2.1 6.9-5.32 0-2.7-2.38-4.68-5.7-4.68-.9 0-1.86.1-2.78.4 1.56-1.28 4.28-3.62 5.26-4.38.38-.3.78-.56 1.14-.8l-.92-1.18c-.22.08-.5.12-1.1.18-1.06.1-5.8.24-6.86.24-.4 0-.96-.02-1.4-.06z" fill="#fff"/><rect height="49" rx="24.5" stroke="#747775" width="362" x=".5" y=".5"/></svg>