<svg fill="none" height="50" viewBox="0 0 367 50" width="367" xmlns="http://www.w3.org/2000/svg" xmlns:xlink="http://www.w3.org/1999/xlink"><linearGradient id="a" gradientUnits="userSpaceOnUse" x1="34.5703" x2="18.7309" y1="30.7864" y2="48.9133"><stop offset="0" stop-color="#4285f4"/><stop offset="1" stop-color="#1b74e8"/></linearGradient><rect fill="#1f1f1f" height="49" rx="24.5" width="366" x=".5" y=".5"/><path d="m51 22h-30v-5c0-2.7143 2.2018-5 4.8165-5h20.367c2.6147 0 4.8165 2.2857 4.8165 5z" fill="#34a853"/><path d="m51 26.0537h-30v-5c0-2.7143 2.2018-5 4.8165-5h20.367c2.6147 0 4.8165 2.2857 4.8165 5z" fill="#fbbc04"/><path d="m51 30.2468h-30v-5c0-2.7143 2.2018-5 4.8165-5h20.367c2.6147 0 4.8165 2.2857 4.8165 5z" fill="#ea4335"/><path d="m21 23.2752 19.0411 4.4037c2.1918.5505 4.6575 0 6.4384-1.3761l4.5205-3.3028v10.3211c0 2.6147-2.1918 4.6789-4.7945 4.6789h-20.411c-2.6027 0-4.7945-2.0642-4.7945-4.6789z" fill="url(#a)"/><path d="m71.4 32.32c-1.0267 0-1.9933-.1867-2.9-.56-.8933-.3733-1.6867-.8933-2.38-1.56-.6933-.68-1.24-1.4733-1.64-2.38-.3867-.92-.58-1.9133-.58-2.98s.1933-2.0533.58-2.96c.4-.92.94-1.7133 1.62-2.38.6933-.68 1.4933-1.2067 2.4-1.58s1.8733-.56 2.9-.56c1.0933 0 2.1.1933 3.02.58.9333.3867 1.7133.9267 2.34 1.62l-1.52 1.5c-.4667-.52-1.0267-.92-1.68-1.2-.64-.28-1.36-.42-2.16-.42-.9467 0-1.82.2267-2.62.68-.8.44-1.4467 1.0667-1.94 1.88-.48.8-.72 1.7467-.72 2.84s.2467 2.0467.74 2.86c.4933.8 1.14 1.4267 1.94 1.88.8.44 1.6733.66 2.62.66.8667 0 1.6533-.16 2.36-.48.7067-.3333 1.2733-.8 1.7-1.4.44-.6.7067-1.32.8-2.16h-4.9v-1.94h6.96c.08.36.12.74.12 1.14v.02c0 1.3867-.3067 2.6-.92 3.64-.6 1.0267-1.4333 1.8267-2.5 2.4s-2.28.86-3.64.86zm13.4998 0c-1.0533 0-1.98-.24-2.78-.72s-1.4266-1.1267-1.88-1.94c-.4533-.8133-.68-1.7333-.68-2.76 0-1.0133.2267-1.9267.68-2.74.4534-.8267 1.08-1.48 1.88-1.96s1.7267-.72 2.78-.72c1.04 0 1.96.24 2.76.72s1.4267 1.1333 1.88 1.96c.4534.8133.68 1.7267.68 2.74 0 1.0267-.2266 1.9467-.68 2.76-.4533.8133-1.08 1.46-1.88 1.94s-1.72.72-2.76.72zm0-1.98c.56 0 1.08-.1333 1.56-.4.48-.28.8667-.6733 1.16-1.18.3067-.52.46-1.14.46-1.86s-.1533-1.3333-.46-1.84c-.2933-.52-.68-.9133-1.16-1.18-.48-.28-1-.42-1.56-.42s-1.0866.14-1.58.42c-.48.2667-.8733.66-1.18 1.18-.2933.5067-.44 1.12-.44 1.84s.1467 1.34.44 1.86c.3067.5067.7.9 1.18 1.18.4934.2667 1.02.4 1.58.4zm12.1094 1.98c-1.0533 0-1.98-.24-2.78-.72s-1.4266-1.1267-1.88-1.94c-.4533-.8133-.68-1.7333-.68-2.76 0-1.0133.2267-1.9267.68-2.74.4534-.8267 1.08-1.48 1.88-1.96s1.7267-.72 2.78-.72c1.04 0 1.96.24 2.76.72.7998.48 1.4268 1.1333 1.8798 1.96.454.8133.68 1.7267.68 2.74 0 1.0267-.226 1.9467-.68 2.76-.453.8133-1.08 1.46-1.8798 1.94-.8.48-1.72.72-2.76.72zm0-1.98c.56 0 1.08-.1333 1.56-.4.48-.28.8667-.6733 1.16-1.18.3068-.52.4598-1.14.4598-1.86s-.153-1.3333-.4598-1.84c-.2933-.52-.68-.9133-1.16-1.18-.48-.28-1-.42-1.56-.42s-1.0866.14-1.58.42c-.48.2667-.8733.66-1.18 1.18-.2933.5067-.44 1.12-.44 1.84s.1467 1.34.44 1.86c.3067.5067.7.9 1.18 1.18.4934.2667 1.02.4 1.58.4zm11.9098 6.3c-.894 0-1.667-.1467-2.32-.44-.64-.28-1.16-.6467-1.56-1.1-.4-.44-.687-.8933-.86-1.36l2-.84c.213.5333.553.9667 1.02 1.3.48.3467 1.053.52 1.72.52.933 0 1.666-.28 2.2-.84.546-.56.82-1.3533.82-2.38v-.98h-.12c-.32.48-.767.8667-1.34 1.16-.56.28-1.2.42-1.92.42-.867 0-1.66-.22-2.38-.66s-1.3-1.0533-1.74-1.84c-.44-.8-.66-1.7333-.66-2.8 0-1.08.22-2.0133.66-2.8.44-.8 1.02-1.42 1.74-1.86s1.513-.66 2.38-.66c.72 0 1.36.1467 1.92.44.573.2933 1.02.68 1.34 1.16h.12v-1.28h2.06v9.66c0 1.1067-.22 2.0467-.66 2.82-.427.7733-1.02 1.36-1.78 1.76s-1.64.6-2.64.6zm.02-6.5c.533 0 1.026-.1267 1.48-.38.453-.2667.82-.6467 1.1-1.14.28-.5067.42-1.1133.42-1.82 0-.7333-.14-1.3467-.42-1.84-.28-.5067-.647-.8867-1.1-1.14-.454-.2533-.947-.38-1.48-.38-.534 0-1.034.1333-1.5.4-.454.2533-.82.6267-1.1 1.12s-.42 1.1067-.42 1.84c0 .72.14 1.3333.42 1.84.28.4933.646.8667 1.1 1.12.466.2533.966.38 1.5.38zm7.607 1.86v-14.32h2.16v14.32zm9.269.32c-1 0-1.894-.2333-2.68-.7-.787-.4667-1.407-1.1067-1.86-1.92-.44-.8133-.66-1.74-.66-2.78 0-.9733.213-1.8733.64-2.7.426-.8267 1.02-1.4867 1.78-1.98.773-.5067 1.66-.76 2.66-.76 1.053 0 1.946.2267 2.68.68.746.4533 1.313 1.0733 1.7 1.86.386.7867.58 1.6733.58 2.66 0 .1467-.007.28-.02.4 0 .12-.007.2133-.02.28h-7.88c.106 1.0133.46 1.7733 1.06 2.28.613.5067 1.306.76 2.08.76.693 0 1.266-.1533 1.72-.46.453-.32.813-.7133 1.08-1.18l1.78.86c-.44.8-1.04 1.4533-1.8 1.96-.76.4933-1.707.74-2.84.74zm-.1-9c-.72 0-1.334.22-1.84.66-.507.44-.847 1.0267-1.02 1.76h5.66c-.027-.3467-.14-.7067-.34-1.08s-.507-.6867-.92-.94c-.4-.2667-.914-.4-1.54-.4zm16.411 9c-.986 0-1.846-.22-2.58-.66-.733-.44-1.306-1.0467-1.72-1.82-.413-.7867-.62-1.6867-.62-2.7v-9.46h2.16v9.5c0 .96.267 1.7333.8 2.32.534.5733 1.18.86 1.94.86.56 0 1.054-.12 1.48-.36.427-.24.76-.56 1-.96s.36-.8467.36-1.34c0-.5867-.18-1.1533-.54-1.7l-.56-.86c-.28-.4133-.493-.84-.64-1.28-.146-.44-.213-.96-.2-1.56h2.16c-.013.3333.027.66.12.98.107.32.254.62.44.9l.6.9c.254.36.44.76.56 1.2.134.4267.2.8867.2 1.38 0 .84-.206 1.6133-.62 2.32-.4.7067-.973 1.2733-1.72 1.7-.746.4267-1.62.64-2.62.64zm10.839 0c-.854 0-1.634-.1733-2.34-.52-.694-.3467-1.247-.8267-1.66-1.44-.4-.6267-.6-1.36-.6-2.2 0-.2133.013-.4267.04-.64.04-.2267.093-.44.16-.64l2.04.32c-.054.3067-.08.5733-.08.8 0 .76.233 1.3467.7 1.76.466.4133 1.04.62 1.72.62.706 0 1.286-.2 1.74-.6.466-.4133.7-.9467.7-1.6 0-.3733-.074-.6933-.22-.96-.134-.28-.3-.5133-.5-.7-.187-.2-.347-.36-.48-.48l-.84-.66c-.387-.3067-.734-.7-1.04-1.18-.294-.4933-.44-1.1267-.44-1.9h2.16c0 .4267.106.7867.32 1.08.226.2933.48.56.76.8l.86.72c.413.3467.773.7733 1.08 1.28.32.4933.48 1.1733.48 2.04 0 .8-.2 1.5067-.6 2.12s-.947 1.1-1.64 1.46c-.68.3467-1.454.52-2.32.52zm15.111 4.32c-1.094 0-2.067-.16-2.92-.48-.84-.32-1.494-.7867-1.96-1.4-.454-.6133-.647-1.3467-.58-2.2l2.2.1c-.014.4533.126.8333.42 1.14.293.32.693.56 1.2.72.506.16 1.073.24 1.7.24.986 0 1.773-.2267 2.36-.68.586-.4533.88-1.0133.88-1.68 0-.5867-.2-1.0733-.6-1.46-.387-.3867-.9-.5867-1.54-.6l-.26-.02v-1.92h.58c.653 0 1.173-.1867 1.56-.56.4-.3867.6-.9333.6-1.64 0-.7333-.18-1.2933-.54-1.68-.347-.3867-.807-.58-1.38-.58-.56 0-1.014.1867-1.36.56-.347.36-.52.9-.52 1.62v.78c0 .8-.194 1.5267-.58 2.18-.374.64-.9 1.1533-1.58 1.54-.68.3733-1.46.56-2.34.56-.894 0-1.68-.1933-2.36-.58s-1.214-.9267-1.6-1.62c-.374-.6933-.56-1.4867-.56-2.38s.186-1.6867.56-2.38c.386-.7067.913-1.2533 1.58-1.64.68-.4 1.46-.6 2.34-.6.733 0 1.4.16 2 .48.613.3067 1.066.74 1.36 1.3h.06c.266-.56.666-.9933 1.2-1.3.546-.32 1.193-.48 1.94-.48.746 0 1.413.16 2 .48.6.3067 1.073.76 1.42 1.36.346.5867.52 1.3.52 2.14 0 .9867-.22 1.7533-.66 2.3s-.96.92-1.56 1.12v.12c.6.2133 1.06.5867 1.38 1.12.32.52.48 1.1267.48 1.82 0 .8133-.22 1.5333-.66 2.16-.44.64-1.067 1.14-1.88 1.5-.814.36-1.78.54-2.9.54zm-4.66-7.38c.693 0 1.266-.24 1.72-.72.453-.48.68-1.1267.68-1.94 0-.8267-.227-1.48-.68-1.96-.454-.48-1.027-.72-1.72-.72-.707 0-1.287.24-1.74.72-.454.48-.68 1.1333-.68 1.96 0 .8133.226 1.46.68 1.94.466.48 1.046.72 1.74.72zm16.746 7.38c-.934 0-1.767-.2-2.5-.6-.734-.4-1.307-.9533-1.72-1.66-.414-.6933-.62-1.4867-.62-2.38 0-.6267.12-1.26.36-1.9l2 .44c-.147.4667-.22.92-.22 1.36 0 .76.233 1.4067.7 1.94.48.5467 1.146.82 2 .82.773 0 1.426-.26 1.96-.78.533-.52.8-1.2467.8-2.18v-6.3c0-.4533-.127-.8133-.38-1.08-.24-.28-.587-.42-1.04-.42-.454 0-.8.14-1.04.42-.227.2667-.34.6267-.34 1.08v2.46h-2.12v-2.34c0-.48-.134-.8333-.4-1.06-.254-.2267-.594-.34-1.02-.34h-1.26v-2.02h1.44c.506 0 .96.1 1.36.3s.7.5067.9.92h.12c.226-.4133.566-.74 1.02-.98.453-.24 1-.36 1.64-.36.613 0 1.16.1333 1.64.4.493.2533.88.6267 1.16 1.12.293.4933.44 1.08.44 1.76v6.36c0 .9867-.207 1.8533-.62 2.6-.4.76-.967 1.3533-1.7 1.78-.734.4267-1.587.64-2.56.64zm17.903-.32c-.04-.52-.26-.96-.66-1.32-.387-.3467-.9-.6133-1.54-.8-.627-.1867-1.327-.28-2.1-.28-.613 0-1.24.0733-1.88.22-.64.16-1.247.3867-1.82.68l-.8-1.44c.6-.3333 1.167-.56 1.7-.68v-.12c-.773-.24-1.473-.6067-2.1-1.1-.613-.5067-1.1-1.1467-1.46-1.92-.36-.7867-.547-1.7067-.56-2.76-.013-1.0667.153-1.9533.5-2.66.36-.72.827-1.26 1.4-1.62.587-.36 1.227-.54 1.92-.54.52 0 1.047.14 1.58.42.547.2667.967.7333 1.26 1.4h.12c.253-.64.62-1.1 1.1-1.38.493-.2933 1.04-.44 1.64-.44s1.147.1467 1.64.44c.493.28.86.74 1.1 1.38h.12c.28-.64.673-1.1 1.18-1.38.507-.2933 1.06-.44 1.66-.44.693 0 1.327.18 1.9.54.587.36 1.053.9 1.4 1.62.347.7067.52 1.5867.52 2.64 0 .88-.113 1.72-.34 2.52-.213.8-.487 1.5067-.82 2.12l-2.04-.46c.333-.6667.593-1.34.78-2.02s.28-1.3867.28-2.12c0-.8667-.173-1.5533-.52-2.06-.333-.52-.773-.78-1.32-.78-.52 0-.94.1867-1.26.56-.307.3733-.46.96-.46 1.76v2.84h-2.12v-3.04c0-.6933-.167-1.22-.5-1.58-.32-.36-.72-.54-1.2-.54-.507 0-.927.18-1.26.54-.32.36-.48.8867-.48 1.58v3.04h-2.14v-2.84c0-.7733-.16-1.3533-.48-1.74-.307-.3867-.7-.58-1.18-.58-.573 0-1.027.2467-1.36.74-.32.4933-.48 1.2-.48 2.12.013 2.7333 1.567 4.3867 4.66 4.96l2.14.4c1.28.24 2.307.7133 3.08 1.42s1.22 1.6067 1.34 2.7zm14.048.32c-.933 0-1.766-.2-2.5-.6-.733-.4-1.306-.9533-1.72-1.66-.413-.6933-.62-1.4867-.62-2.38 0-.6267.12-1.26.36-1.9l2 .44c-.146.4667-.22.92-.22 1.36 0 .76.234 1.4067.7 1.94.48.5467 1.147.82 2 .82.774 0 1.427-.26 1.96-.78.534-.52.8-1.2467.8-2.18v-5.16c0-.8-.246-1.4267-.74-1.88-.493-.4667-1.12-.7-1.88-.7-.44 0-.86.0933-1.26.28-.386.1867-.7.4533-.94.8s-.36.7667-.36 1.26c0 .2667.034.54.1.82l-2.08.26c-.093-.3867-.14-.7933-.14-1.22 0-.84.207-1.5733.62-2.2.427-.6267.994-1.1133 1.7-1.46.707-.3467 1.494-.52 2.36-.52.934 0 1.754.1867 2.46.56.72.3733 1.28.9133 1.68 1.62.4.6933.6 1.52.6 2.48v4.98c0 .9867-.206 1.8533-.62 2.6-.413.76-.986 1.3533-1.72 1.78-.72.4267-1.566.64-2.54.64zm11.846-4.32c-1.027 0-1.92-.2267-2.68-.68-.747-.4667-1.327-1.0867-1.74-1.86-.414-.7733-.62-1.62-.62-2.54 0-.9467.2-1.8.6-2.56s.953-1.36 1.66-1.8c.706-.4533 1.513-.68 2.42-.68.72 0 1.333.16 1.84.48.52.32.933.6867 1.24 1.1h.12l-.08-1.08v-1.9c0-.44-.12-.8-.36-1.08-.24-.2933-.6-.44-1.08-.44-.454 0-.8.1333-1.04.4-.227.2533-.34.5733-.34.96v.52h-2.12v-.48c0-.4667-.134-.8067-.4-1.02-.254-.2133-.594-.32-1.02-.32-.32 0-.594.0333-.82.1-.227.0533-.427.1133-.6.18v-2.04c.186-.0533.413-.1.68-.14.266-.0533.58-.08.94-.08.506 0 .953.1133 1.34.34.4.2133.72.54.96.98h.12c.24-.4133.58-.7333 1.02-.96.453-.24 1.006-.36 1.66-.36.586 0 1.12.1333 1.6.4s.86.6467 1.14 1.14c.293.4933.44 1.08.44 1.76v6.46c0 .96-.207 1.8333-.62 2.62-.414.7867-.987 1.4133-1.72 1.88-.734.4667-1.58.7-2.54.7zm-.02-1.98c.52 0 1-.1267 1.44-.38s.793-.6133 1.06-1.08c.266-.4667.4-1.0133.4-1.64s-.14-1.1667-.42-1.62c-.267-.4667-.62-.8267-1.06-1.08-.427-.2533-.894-.38-1.4-.38-.52 0-1 .1267-1.44.38s-.794.6133-1.06 1.08c-.267.4533-.4.9933-.4 1.62s.133 1.1733.4 1.64c.266.4533.62.8133 1.06 1.08.44.2533.913.38 1.42.38zm7.875 1.66c-.307-.6133-.58-1.34-.82-2.18-.24-.8533-.36-1.76-.36-2.72 0-1.0267.2-1.92.6-2.68.413-.7733.98-1.3733 1.7-1.8.733-.4267 1.593-.64 2.58-.64.973 0 1.827.2133 2.56.64.747.4267 1.327 1.0267 1.74 1.8.413.76.62 1.6533.62 2.68 0 .96-.12 1.8667-.36 2.72-.24.84-.513 1.5667-.82 2.18h-2.22c.413-.8133.727-1.6133.94-2.4.227-.8.34-1.6267.34-2.48 0-1.0267-.273-1.8133-.82-2.36s-1.207-.82-1.98-.82c-.76 0-1.4.2733-1.92.82-.52.5333-.787 1.32-.8 2.36-.013.84.08 1.66.28 2.46.213.7867.533 1.5933.96 2.42z" fill="#fff"/><path d="m257.04 36.32c-.067-.6267-.4-1.12-1-1.48-.6-.3467-1.313-.52-2.14-.52-.6 0-1.16.0733-1.68.22-.52.16-1.053.3867-1.6.68l-.8-1.44c.627-.3467 1.227-.5733 1.8-.68v-.12c-.72-.28-1.373-.7067-1.96-1.28-.573-.5733-1.033-1.26-1.38-2.06-.347-.8133-.52-1.6933-.52-2.64 0-1.0667.18-1.9733.54-2.72.373-.76.867-1.3333 1.48-1.72s1.293-.58 2.04-.58c.68 0 1.293.1667 1.84.5.547.32.96.7933 1.24 1.42h.1c.333-.6267.807-1.1 1.42-1.42.627-.3333 1.34-.5 2.14-.5.907 0 1.707.2133 2.4.64.693.4133 1.233.9867 1.62 1.72.387.72.58 1.5533.58 2.5s-.193 1.7867-.58 2.52c-.387.72-.933 1.2933-1.64 1.72-.693.4133-1.5.62-2.42.62s-1.733-.2067-2.44-.62-1.26-.9733-1.66-1.68c-.4-.72-.6-1.5333-.6-2.44v-.56c0-.8133-.173-1.42-.52-1.82-.347-.4133-.787-.62-1.32-.62-.627 0-1.133.26-1.52.78-.373.52-.56 1.2733-.56 2.26 0 1.3733.393 2.5267 1.18 3.46.8.9333 1.873 1.5733 3.22 1.92l1.3.34c1.107.28 1.953.7267 2.54 1.34.6.6133.947 1.3667 1.04 2.26zm1.46-6.58c.707 0 1.307-.2533 1.8-.76.507-.52.76-1.2333.76-2.14s-.253-1.6133-.76-2.12c-.493-.52-1.093-.78-1.8-.78s-1.313.26-1.82.78c-.507.5067-.76 1.2133-.76 2.12s.253 1.62.76 2.14c.507.5067 1.113.76 1.82.76zm10.535 2.58c-.853 0-1.633-.1733-2.34-.52-.693-.3467-1.247-.8267-1.66-1.44-.4-.6267-.6-1.36-.6-2.2 0-.2133.013-.4267.04-.64.04-.2267.093-.44.16-.64l2.04.32c-.053.3067-.08.5733-.08.8 0 .76.233 1.3467.7 1.76s1.04.62 1.72.62c.707 0 1.287-.2 1.74-.6.467-.4133.7-.9467.7-1.6 0-.3733-.073-.6933-.22-.96-.133-.28-.3-.5133-.5-.7-.187-.2-.347-.36-.48-.48l-.84-.66c-.387-.3067-.733-.7-1.04-1.18-.293-.4933-.44-1.1267-.44-1.9h2.16c0 .4267.107.7867.32 1.08.227.2933.48.56.76.8l.86.72c.413.3467.773.7733 1.08 1.28.32.4933.48 1.1733.48 2.04 0 .8-.2 1.5067-.6 2.12s-.947 1.1-1.64 1.46c-.68.3467-1.453.52-2.32.52zm11.051 0c-1.027 0-1.92-.2333-2.68-.7-.747-.4667-1.327-1.0867-1.74-1.86-.413-.7867-.62-1.66-.62-2.62 0-.9733.2-1.8467.6-2.62.4-.7867.953-1.4067 1.66-1.86s1.513-.68 2.42-.68c.72 0 1.333.16 1.84.48s.907.6867 1.2 1.1h.12l-.04-1.06v-.66c0-.8-.273-1.4267-.82-1.88-.533-.4533-1.18-.68-1.94-.68-.707 0-1.307.1733-1.8.52-.48.3333-.827.7667-1.04 1.3l-1.96-.84c.16-.4667.447-.92.86-1.36.427-.4533.967-.82 1.62-1.1.653-.2933 1.427-.44 2.32-.44s1.707.18 2.44.54c.747.3467 1.34.8667 1.78 1.56s.66 1.5333.66 2.52v5.04c0 .9867-.207 1.8867-.62 2.7-.413.8-.987 1.4333-1.72 1.9s-1.58.7-2.54.7zm-.02-1.98c.52 0 1-.1333 1.44-.4s.793-.64 1.06-1.12.4-1.04.4-1.68-.14-1.2-.42-1.68c-.267-.48-.62-.8467-1.06-1.1-.427-.2667-.893-.4-1.4-.4-.52 0-1 .1333-1.44.4-.44.2533-.793.62-1.06 1.1s-.4 1.04-.4 1.68.133 1.2.4 1.68.62.8533 1.06 1.12.913.4 1.42.4zm11.137 1.98c-.853 0-1.633-.1733-2.34-.52-.693-.3467-1.247-.8267-1.66-1.44-.4-.6267-.6-1.36-.6-2.2 0-.2133.013-.4267.04-.64.04-.2267.093-.44.16-.64l2.04.32c-.053.3067-.08.5733-.08.8 0 .76.233 1.3467.7 1.76s1.04.62 1.72.62c.707 0 1.287-.2 1.74-.6.467-.4133.7-.9467.7-1.6 0-.3733-.073-.6933-.22-.96-.133-.28-.3-.5133-.5-.7-.187-.2-.347-.36-.48-.48l-.84-.66c-.387-.3067-.733-.7-1.04-1.18-.293-.4933-.44-1.1267-.44-1.9h2.16c0 .4267.107.7867.32 1.08.227.2933.48.56.76.8l.86.72c.413.3467.773.7733 1.08 1.28.32.4933.48 1.1733.48 2.04 0 .8-.2 1.5067-.6 2.12s-.947 1.1-1.64 1.46c-.68.3467-1.453.52-2.32.52zm12.991 4.32c-1.013 0-1.96-.1867-2.84-.56-.867-.3733-1.627-.9-2.28-1.58-.653-.6667-1.16-1.44-1.52-2.32s-.54-1.8267-.54-2.84c0-1.24.26-2.3667.78-3.38.533-1.0267 1.26-1.8733 2.18-2.54s1.973-1.0867 3.16-1.26v-2.32h2.12v2.32c1.187.1733 2.24.5933 3.16 1.26s1.647 1.5133 2.18 2.54c.533 1.0133.8 2.14.8 3.38 0 1.0133-.187 1.96-.56 2.84-.36.88-.867 1.6533-1.52 2.32-.64.68-1.4 1.2067-2.28 1.58-.867.3733-1.813.56-2.84.56zm-1.06-7.14v-3.88c0-.56.04-1.0733.12-1.54-.773.1467-1.473.4467-2.1.9-.613.4533-1.1 1.0533-1.46 1.8-.36.7333-.54 1.5867-.54 2.56 0 1.08.227 2.0133.68 2.8.453.8 1.06 1.42 1.82 1.86.773.44 1.62.66 2.54.66s1.76-.22 2.52-.66c.773-.44 1.387-1.06 1.84-1.86.467-.7867.7-1.72.7-2.8 0-.9733-.187-1.8267-.56-2.56-.36-.7467-.853-1.3467-1.48-1.8-.613-.4533-1.307-.7533-2.08-.9.08.4533.12.9467.12 1.48v3.94zm14.366 7.14c-.933 0-1.767-.2-2.5-.6s-1.307-.9533-1.72-1.66c-.413-.6933-.62-1.4867-.62-2.38 0-.6267.12-1.26.36-1.9l2 .44c-.147.4667-.22.92-.22 1.36 0 .76.233 1.4067.7 1.94.48.5467 1.147.82 2 .82.773 0 1.427-.26 1.96-.78s.8-1.2467.8-2.18v-5.16c0-.8-.247-1.4267-.74-1.88-.493-.4667-1.12-.7-1.88-.7-.44 0-.86.0933-1.26.28-.387.1867-.7.4533-.94.8s-.36.7667-.36 1.26c0 .2667.033.54.1.82l-2.08.26c-.093-.3867-.14-.7933-.14-1.22 0-.84.207-1.5733.62-2.2.427-.6267.993-1.1133 1.7-1.46s1.493-.52 2.36-.52c.933 0 1.753.1867 2.46.56.72.3733 1.28.9133 1.68 1.62.4.6933.6 1.52.6 2.48v4.98c0 .9867-.207 1.8533-.62 2.6-.413.76-.987 1.3533-1.72 1.78-.72.4267-1.567.64-2.54.64zm11.785-4.32c-1 0-1.886-.2267-2.66-.68-.773-.4667-1.38-1.0867-1.82-1.86-.426-.7867-.64-1.66-.64-2.62 0-.8933.18-1.7.54-2.42.36-.7333.867-1.3333 1.52-1.8.654-.4667 1.414-.76 2.28-.88v-.56c0-.2933-.026-.5333-.08-.72-.053-.1867-.213-.3733-.48-.56l-.54-.36c-.373-.24-.62-.54-.74-.9-.106-.3733-.153-.8-.14-1.28h2.14c0 .2533.034.4667.1.64.08.16.254.34.52.54l.52.36c.347.24.574.52.68.84.107.32.16.7.16 1.14v.98c.76.1867 1.42.52 1.98 1 .574.4667 1.014 1.04 1.32 1.72.307.68.46 1.4333.46 2.26 0 .96-.22 1.8333-.66 2.62-.426.7733-1.026 1.3933-1.8 1.86-.76.4533-1.646.68-2.66.68zm.02-1.98c.52 0 1.007-.1267 1.46-.38.454-.2533.814-.6133 1.08-1.08.28-.48.42-1.0533.42-1.72 0-.68-.14-1.2533-.42-1.72-.266-.48-.626-.8467-1.08-1.1-.453-.2533-.94-.38-1.46-.38-.533 0-1.026.1267-1.48.38-.453.24-.82.6-1.1 1.08s-.42 1.06-.42 1.74c0 .6667.14 1.24.42 1.72.28.4667.647.8267 1.1 1.08.454.2533.947.38 1.48.38zm10.98 1.98c-.853 0-1.633-.1733-2.34-.52-.693-.3467-1.247-.8267-1.66-1.44-.4-.6267-.6-1.36-.6-2.2 0-.2133.013-.4267.04-.64.04-.2267.093-.44.16-.64l2.04.32c-.053.3067-.08.5733-.08.8 0 .76.233 1.3467.7 1.76s1.04.62 1.72.62c.707 0 1.287-.2 1.74-.6.467-.4133.7-.9467.7-1.6 0-.3733-.073-.6933-.22-.96-.133-.28-.3-.5133-.5-.7-.187-.2-.347-.36-.48-.48l-.84-.66c-.387-.3067-.733-.7-1.04-1.18-.293-.4933-.44-1.1267-.44-1.9h2.16c0 .4267.107.7867.32 1.08.227.2933.48.56.76.8l.86.72c.413.3467.773.7733 1.08 1.28.32.4933.48 1.1733.48 2.04 0 .8-.2 1.5067-.6 2.12s-.947 1.1-1.64 1.46c-.68.3467-1.453.52-2.32.52z" fill="#fff"/><rect height="49" rx="24.5" stroke="#747775" width="366" x=".5" y=".5"/></svg>