<svg fill="none" height="50" viewBox="0 0 420 50" width="420" xmlns="http://www.w3.org/2000/svg" xmlns:xlink="http://www.w3.org/1999/xlink"><linearGradient id="a" gradientUnits="userSpaceOnUse" x1="34.5703" x2="18.7309" y1="30.7864" y2="48.9133"><stop offset="0" stop-color="#4285f4"/><stop offset="1" stop-color="#1b74e8"/></linearGradient><rect fill="#1f1f1f" height="49" rx="24.5" width="419" x=".5" y=".5"/><path d="m51 22h-30v-5c0-2.7143 2.2018-5 4.8165-5h20.367c2.6147 0 4.8165 2.2857 4.8165 5z" fill="#34a853"/><path d="m51 26.0537h-30v-5c0-2.7143 2.2018-5 4.8165-5h20.367c2.6147 0 4.8165 2.2857 4.8165 5z" fill="#fbbc04"/><path d="m51 30.2468h-30v-5c0-2.7143 2.2018-5 4.8165-5h20.367c2.6147 0 4.8165 2.2857 4.8165 5z" fill="#ea4335"/><path d="m21 23.2752 19.0411 4.4037c2.1918.5505 4.6575 0 6.4384-1.3761l4.5205-3.3028v10.3211c0 2.6147-2.1918 4.6789-4.7945 4.6789h-20.411c-2.6027 0-4.7945-2.0642-4.7945-4.6789z" fill="url(#a)"/><path d="m67.54 32v-12.24h-4.02v-2.08h10.2v2.08h-4v12.24zm11.1489.32c-1.0533 0-1.98-.24-2.78-.72s-1.4267-1.1267-1.88-1.94-.68-1.7333-.68-2.76c0-1.0133.2267-1.9267.68-2.74.4533-.8267 1.08-1.48 1.88-1.96s1.7267-.72 2.78-.72c1.04 0 1.96.24 2.76.72s1.4267 1.1333 1.88 1.96c.4533.8133.68 1.7267.68 2.74 0 1.0267-.2267 1.9467-.68 2.76s-1.08 1.46-1.88 1.94-1.72.72-2.76.72zm0-1.92c.56 0 1.0867-.1333 1.58-.4.4933-.28.8933-.68 1.2-1.2s.46-1.1533.46-1.9c0-.7333-.1533-1.36-.46-1.88-.2933-.52-.6867-.92-1.18-1.2s-1.0267-.42-1.6-.42-1.1133.14-1.62.42c-.4933.28-.8933.68-1.2 1.2-.2933.52-.44 1.1467-.44 1.88s.1467 1.36.44 1.88c.3067.52.7067.92 1.2 1.2.5067.28 1.0467.42 1.62.42zm-4.3-2.68v-1.7h8.5v1.7zm11.4141 4.28v-10.2h2.56l3.14 6.24h.1l3.16-6.24h2.5v10.2h-2.06v-4.96l.1-1.96h-.12l-2.94 5.62h-1.42l-2.94-5.62h-.12l.1 1.96v4.96zm18.687.32c-1.054 0-1.98-.24-2.78-.72s-1.427-1.1267-1.8803-1.94-.68-1.7333-.68-2.76c0-1.0133.2267-1.9267.68-2.74.4533-.8267 1.0803-1.48 1.8803-1.96s1.726-.72 2.78-.72c1.04 0 1.96.24 2.76.72s1.426 1.1333 1.88 1.96c.453.8133.68 1.7267.68 2.74 0 1.0267-.227 1.9467-.68 2.76-.454.8133-1.08 1.46-1.88 1.94s-1.72.72-2.76.72zm0-1.92c.56 0 1.086-.1333 1.58-.4.493-.28.893-.68 1.2-1.2.306-.52.46-1.1533.46-1.9 0-.7333-.154-1.36-.46-1.88-.294-.52-.687-.92-1.18-1.2-.494-.28-1.027-.42-1.6-.42-.574 0-1.114.14-1.62.42-.494.28-.894.68-1.2 1.2-.294.52-.44 1.1467-.44 1.88s.146 1.36.44 1.88c.306.52.706.92 1.2 1.2.506.28 1.046.42 1.62.42zm-4.3-2.68v-1.7h8.5v1.7zm11.414 4.28v-10.2h2.16v4.1h4.84v-4.1h2.16v10.2h-2.16v-4.22h-4.84v4.22zm11.679 0v-10.2h2.16v4.52h.12l4-4.52h2.48v.12l-4.26 4.66 4.42 5.3v.12h-2.56l-4.08-5.02h-.12v5.02zm13.45 4.32v-4.32l-4.12-10.2h2.38l2.84 7.62h.02l2.88-7.62h2.34l-4.18 10.2v4.32zm7.296-4.16c-.306 0-.6-.0333-.88-.1v-2c.187.0933.394.14.62.14.454 0 .774-.1733.96-.52.187-.36.3-.8133.34-1.36s.06-1.1133.06-1.7v-4.82h7.8v10.2h-2.14v-8.32h-3.62v3.28c0 .6933-.046 1.3533-.14 1.98-.08.6133-.233 1.1667-.46 1.66-.226.48-.546.86-.96 1.14-.4.28-.926.42-1.58.42zm16.144.16c-1.053 0-1.98-.24-2.78-.72s-1.426-1.1267-1.88-1.94c-.453-.8133-.68-1.7333-.68-2.76 0-1.0133.227-1.9267.68-2.74.454-.8267 1.08-1.48 1.88-1.96s1.727-.72 2.78-.72c1.04 0 1.96.24 2.76.72s1.427 1.1333 1.88 1.96c.454.8133.68 1.7267.68 2.74 0 1.0267-.226 1.9467-.68 2.76-.453.8133-1.08 1.46-1.88 1.94s-1.72.72-2.76.72zm0-1.92c.56 0 1.087-.1333 1.58-.4.494-.28.894-.68 1.2-1.2.307-.52.46-1.1533.46-1.9 0-.7333-.153-1.36-.46-1.88-.293-.52-.686-.92-1.18-1.2-.493-.28-1.026-.42-1.6-.42-.573 0-1.113.14-1.62.42-.493.28-.893.68-1.2 1.2-.293.52-.44 1.1467-.44 1.88s.147 1.36.44 1.88c.307.52.707.92 1.2 1.2.507.28 1.047.42 1.62.42zm-4.3-2.68v-1.7h8.5v1.7zm11.492 8.6v-14.52h2.02v1.38h.12c.267-.44.68-.8333 1.24-1.18.573-.3467 1.253-.52 2.04-.52.933 0 1.767.2333 2.5.7s1.313 1.1067 1.74 1.92c.44.8133.66 1.7467.66 2.8s-.22 1.9933-.66 2.82c-.427.8133-1.007 1.4533-1.74 1.92-.733.4533-1.567.68-2.5.68-.787 0-1.467-.1667-2.04-.5-.56-.3467-.973-.74-1.24-1.18h-.12l.12 1.42v4.26zm5.1-5.98c.533 0 1.033-.14 1.5-.42s.847-.6733 1.14-1.18c.293-.52.44-1.1333.44-1.84s-.147-1.3133-.44-1.82c-.293-.52-.673-.92-1.14-1.2s-.967-.42-1.5-.42-1.033.14-1.5.42-.847.68-1.14 1.2c-.293.5067-.44 1.1133-.44 1.82s.147 1.32.44 1.84c.293.5067.673.9 1.14 1.18s.967.42 1.5.42zm7.068 1.66v-10.2h6.68v1.88h-4.52v8.32zm12.652.32c-1.053 0-1.98-.24-2.78-.72s-1.427-1.1267-1.88-1.94-.68-1.7333-.68-2.76c0-1.0133.227-1.9267.68-2.74.453-.8267 1.08-1.48 1.88-1.96s1.727-.72 2.78-.72c1.04 0 1.96.24 2.76.72s1.427 1.1333 1.88 1.96c.453.8133.68 1.7267.68 2.74 0 1.0267-.227 1.9467-.68 2.76s-1.08 1.46-1.88 1.94-1.72.72-2.76.72zm0-1.92c.56 0 1.087-.1333 1.58-.4.493-.28.893-.68 1.2-1.2s.46-1.1533.46-1.9c0-.7333-.153-1.36-.46-1.88-.293-.52-.687-.92-1.18-1.2s-1.027-.42-1.6-.42-1.113.14-1.62.42c-.493.28-.893.68-1.2 1.2-.293.52-.44 1.1467-.44 1.88s.147 1.36.44 1.88c.307.52.707.92 1.2 1.2.507.28 1.047.42 1.62.42zm-4.3-2.68v-1.7h8.5v1.7zm16.277 4.28v-10.2h2.16v4.52h.12l4-4.52h2.48v.12l-4.26 4.66 4.42 5.3v.12h-2.56l-4.08-5.02h-.12v5.02zm14.859.32c-1.053 0-1.98-.24-2.78-.72s-1.427-1.1267-1.88-1.94-.68-1.7333-.68-2.76c0-1.0133.227-1.9267.68-2.74.453-.8267 1.08-1.48 1.88-1.96s1.727-.72 2.78-.72c1.04 0 1.96.24 2.76.72s1.427 1.1333 1.88 1.96c.453.8133.68 1.7267.68 2.74 0 1.0267-.227 1.9467-.68 2.76s-1.08 1.46-1.88 1.94-1.72.72-2.76.72zm0-1.98c.56 0 1.08-.1333 1.56-.4.48-.28.867-.6733 1.16-1.18.307-.52.46-1.14.46-1.86s-.153-1.3333-.46-1.84c-.293-.52-.68-.9133-1.16-1.18-.48-.28-1-.42-1.56-.42s-1.087.14-1.58.42c-.48.2667-.873.66-1.18 1.18-.293.5067-.44 1.12-.44 1.84s.147 1.34.44 1.86c.307.5067.7.9 1.18 1.18.493.2667 1.02.4 1.58.4zm7.114 1.66v-10.2h2.14v8.32h3.36v-8.32h2.14v8.32h3.36v-8.32h2.14v10.2zm19.164 3.82c-.04.1067-.087.2067-.14.3-.04.0933-.067.16-.08.2h-2.3c.066-.1467.16-.36.28-.64.133-.2667.26-.5267.38-.78s.246-.54.38-.86c.146-.32.293-.6333.44-.94l.76-1.66-4.26-9.64h2.4l2.92 6.96h.1l2.82-6.96h2.38l-5.28 12.16c-.147.3467-.307.7067-.48 1.08-.16.3867-.267.6467-.32.78zm11.113 0c-.04.1067-.087.2067-.14.3-.04.0933-.067.16-.08.2h-2.3c.067-.1467.16-.36.28-.64.133-.2667.26-.5267.38-.78s.247-.54.38-.86c.147-.32.293-.6333.44-.94l.76-1.66-4.26-9.64h2.4l2.92 6.96h.1l2.82-6.96h2.38l-5.28 12.16c-.147.3467-.307.7067-.48 1.08-.16.3867-.267.6467-.32.78z" fill="#fff"/><path d="m276.4 32.32c-1.027 0-1.993-.1867-2.9-.56-.893-.3733-1.687-.8933-2.38-1.56-.693-.68-1.24-1.4733-1.64-2.38-.387-.92-.58-1.9133-.58-2.98s.193-2.0533.58-2.96c.4-.92.94-1.7133 1.62-2.38.693-.68 1.493-1.2067 2.4-1.58s1.873-.56 2.9-.56c1.093 0 2.1.1933 3.02.58.933.3867 1.713.9267 2.34 1.62l-1.52 1.5c-.467-.52-1.027-.92-1.68-1.2-.64-.28-1.36-.42-2.16-.42-.947 0-1.82.2267-2.62.68-.8.44-1.447 1.0667-1.94 1.88-.48.8-.72 1.7467-.72 2.84s.247 2.0467.74 2.86c.493.8 1.14 1.4267 1.94 1.88.8.44 1.673.66 2.62.66.867 0 1.653-.16 2.36-.48.707-.3333 1.273-.8 1.7-1.4.44-.6.707-1.32.8-2.16h-4.9v-1.94h6.96c.08.36.12.74.12 1.14v.02c0 1.3867-.307 2.6-.92 3.64-.6 1.0267-1.433 1.8267-2.5 2.4s-2.28.86-3.64.86zm13.5 0c-1.053 0-1.98-.24-2.78-.72s-1.427-1.1267-1.88-1.94-.68-1.7333-.68-2.76c0-1.0133.227-1.9267.68-2.74.453-.8267 1.08-1.48 1.88-1.96s1.727-.72 2.78-.72c1.04 0 1.96.24 2.76.72s1.427 1.1333 1.88 1.96c.453.8133.68 1.7267.68 2.74 0 1.0267-.227 1.9467-.68 2.76s-1.08 1.46-1.88 1.94-1.72.72-2.76.72zm0-1.98c.56 0 1.08-.1333 1.56-.4.48-.28.867-.6733 1.16-1.18.307-.52.46-1.14.46-1.86s-.153-1.3333-.46-1.84c-.293-.52-.68-.9133-1.16-1.18-.48-.28-1-.42-1.56-.42s-1.087.14-1.58.42c-.48.2667-.873.66-1.18 1.18-.293.5067-.44 1.12-.44 1.84s.147 1.34.44 1.86c.307.5067.7.9 1.18 1.18.493.2667 1.02.4 1.58.4zm12.109 1.98c-1.053 0-1.98-.24-2.78-.72s-1.426-1.1267-1.88-1.94c-.453-.8133-.68-1.7333-.68-2.76 0-1.0133.227-1.9267.68-2.74.454-.8267 1.08-1.48 1.88-1.96s1.727-.72 2.78-.72c1.04 0 1.96.24 2.76.72s1.427 1.1333 1.88 1.96c.454.8133.68 1.7267.68 2.74 0 1.0267-.226 1.9467-.68 2.76-.453.8133-1.08 1.46-1.88 1.94s-1.72.72-2.76.72zm0-1.98c.56 0 1.08-.1333 1.56-.4.48-.28.867-.6733 1.16-1.18.307-.52.46-1.14.46-1.86s-.153-1.3333-.46-1.84c-.293-.52-.68-.9133-1.16-1.18-.48-.28-1-.42-1.56-.42s-1.086.14-1.58.42c-.48.2667-.873.66-1.18 1.18-.293.5067-.44 1.12-.44 1.84s.147 1.34.44 1.86c.307.5067.7.9 1.18 1.18.494.2667 1.02.4 1.58.4zm11.91 6.3c-.894 0-1.667-.1467-2.32-.44-.64-.28-1.16-.6467-1.56-1.1-.4-.44-.687-.8933-.86-1.36l2-.84c.213.5333.553.9667 1.02 1.3.48.3467 1.053.52 1.72.52.933 0 1.666-.28 2.2-.84.546-.56.82-1.3533.82-2.38v-.98h-.12c-.32.48-.767.8667-1.34 1.16-.56.28-1.2.42-1.92.42-.867 0-1.66-.22-2.38-.66s-1.3-1.0533-1.74-1.84c-.44-.8-.66-1.7333-.66-2.8 0-1.08.22-2.0133.66-2.8.44-.8 1.02-1.42 1.74-1.86s1.513-.66 2.38-.66c.72 0 1.36.1467 1.92.44.573.2933 1.02.68 1.34 1.16h.12v-1.28h2.06v9.66c0 1.1067-.22 2.0467-.66 2.82-.427.7733-1.02 1.36-1.78 1.76s-1.64.6-2.64.6zm.02-6.5c.533 0 1.026-.1267 1.48-.38.453-.2667.82-.6467 1.1-1.14.28-.5067.42-1.1133.42-1.82 0-.7333-.14-1.3467-.42-1.84-.28-.5067-.647-.8867-1.1-1.14-.454-.2533-.947-.38-1.48-.38-.534 0-1.034.1333-1.5.4-.454.2533-.82.6267-1.1 1.12s-.42 1.1067-.42 1.84c0 .72.14 1.3333.42 1.84.28.4933.646.8667 1.1 1.12.466.2533.966.38 1.5.38zm7.607 1.86v-14.32h2.16v14.32zm9.269.32c-1 0-1.894-.2333-2.68-.7-.787-.4667-1.407-1.1067-1.86-1.92-.44-.8133-.66-1.74-.66-2.78 0-.9733.213-1.8733.64-2.7.426-.8267 1.02-1.4867 1.78-1.98.773-.5067 1.66-.76 2.66-.76 1.053 0 1.946.2267 2.68.68.746.4533 1.313 1.0733 1.7 1.86.386.7867.58 1.6733.58 2.66 0 .1467-.007.28-.02.4 0 .12-.007.2133-.02.28h-7.88c.106 1.0133.46 1.7733 1.06 2.28.613.5067 1.306.76 2.08.76.693 0 1.266-.1533 1.72-.46.453-.32.813-.7133 1.08-1.18l1.78.86c-.44.8-1.04 1.4533-1.8 1.96-.76.4933-1.707.74-2.84.74zm-.1-9c-.72 0-1.334.22-1.84.66-.507.44-.847 1.0267-1.02 1.76h5.66c-.027-.3467-.14-.7067-.34-1.08s-.507-.6867-.92-.94c-.4-.2667-.914-.4-1.54-.4zm13.731 8.68-3.84-14.32h2.44l2.28 9.3.24 1.24h.12l.3-1.24 2.88-9.3h2.2l2.76 9.3.3 1.22h.12l.24-1.22 2.28-9.3h2.42l-3.78 14.32h-2.32l-2.74-9.5-.32-1.34h-.12l-.34 1.34-2.86 9.5zm18.756.32c-.733 0-1.386-.14-1.96-.42-.573-.2933-1.02-.7-1.34-1.22s-.48-1.1133-.48-1.78c0-.72.187-1.3333.56-1.84.387-.52.9-.9133 1.54-1.18s1.347-.4 2.12-.4c.64 0 1.2.06 1.68.18.494.12.867.2467 1.12.38v-.54c0-.6667-.24-1.2-.72-1.6s-1.1-.6-1.86-.6c-.52 0-1.013.12-1.48.36-.466.2267-.84.54-1.12.94l-1.48-1.14c.44-.6133 1.02-1.0933 1.74-1.44.734-.36 1.534-.54 2.4-.54 1.48 0 2.62.3667 3.42 1.1.8.72 1.2 1.7333 1.2 3.04v6.38h-2.1v-1.26h-.12c-.266.4133-.666.78-1.2 1.1-.533.32-1.173.48-1.92.48zm.38-1.76c.56 0 1.054-.1333 1.48-.4.427-.2667.76-.6133 1-1.04.254-.44.38-.9133.38-1.42-.306-.1733-.666-.3133-1.08-.42-.413-.12-.853-.18-1.32-.18-.88 0-1.506.18-1.88.54-.373.3467-.56.7733-.56 1.28 0 .48.18.8733.54 1.18s.84.46 1.44.46zm7.358 1.44v-14.32h2.16v14.32zm4.727 0v-14.32h2.16v14.32zm9.269.32c-1 0-1.894-.2333-2.68-.7-.787-.4667-1.407-1.1067-1.86-1.92-.44-.8133-.66-1.74-.66-2.78 0-.9733.213-1.8733.64-2.7.426-.8267 1.02-1.4867 1.78-1.98.773-.5067 1.66-.76 2.66-.76 1.053 0 1.946.2267 2.68.68.746.4533 1.313 1.0733 1.7 1.86.386.7867.58 1.6733.58 2.66 0 .1467-.007.28-.02.4 0 .12-.007.2133-.02.28h-7.88c.106 1.0133.46 1.7733 1.06 2.28.613.5067 1.306.76 2.08.76.693 0 1.266-.1533 1.72-.46.453-.32.813-.7133 1.08-1.18l1.78.86c-.44.8-1.04 1.4533-1.8 1.96-.76.4933-1.707.74-2.84.74zm-.1-9c-.72 0-1.334.22-1.84.66-.507.44-.847 1.0267-1.02 1.76h5.66c-.027-.3467-.14-.7067-.34-1.08s-.507-.6867-.92-.94c-.4-.2667-.914-.4-1.54-.4zm7.731 5.72v-5.36h-1.78v-1.88h1.78v-2.88h2.16v2.88h2.5v1.88h-2.5v4.9c0 .5067.1.8933.3 1.16.213.2667.566.4 1.06.4.253 0 .466-.0333.64-.1.186-.0667.373-.16.56-.28v2.1c-.227.0933-.467.1667-.72.22-.254.0533-.554.08-.9.08-.947 0-1.7-.2733-2.26-.82-.56-.56-.84-1.3267-.84-2.3z" fill="#fff"/><rect height="49" rx="24.5" stroke="#747775" width="419" x=".5" y=".5"/></svg>