<svg fill="none" height="50" viewBox="0 0 339 50" width="339" xmlns="http://www.w3.org/2000/svg" xmlns:xlink="http://www.w3.org/1999/xlink"><linearGradient id="a" gradientUnits="userSpaceOnUse" x1="34.5703" x2="18.7309" y1="30.7864" y2="48.9133"><stop offset="0" stop-color="#4285f4"/><stop offset="1" stop-color="#1b74e8"/></linearGradient><rect fill="#1f1f1f" height="49" rx="24.5" width="338" x=".5" y=".5"/><path d="m51 22h-30v-5c0-2.7143 2.2018-5 4.8165-5h20.367c2.6147 0 4.8165 2.2857 4.8165 5z" fill="#34a853"/><path d="m51 26.0537h-30v-5c0-2.7143 2.2018-5 4.8165-5h20.367c2.6147 0 4.8165 2.2857 4.8165 5z" fill="#fbbc04"/><path d="m51 30.2468h-30v-5c0-2.7143 2.2018-5 4.8165-5h20.367c2.6147 0 4.8165 2.2857 4.8165 5z" fill="#ea4335"/><path d="m21 23.2752 19.0411 4.4037c2.1918.5505 4.6575 0 6.4384-1.3761l4.5205-3.3028v10.3211c0 2.6147-2.1918 4.6789-4.7945 4.6789h-20.411c-2.6027 0-4.7945-2.0642-4.7945-4.6789z" fill="url(#a)"/><path d="m64.62 32v-14.32h4.92c.8667 0 1.6533.1867 2.36.56s1.2667.8867 1.68 1.54c.4267.6533.64 1.4133.64 2.28s-.2133 1.6333-.64 2.3c-.4133.6533-.9733 1.1667-1.68 1.54-.7067.36-1.4933.54-2.36.54h-2.72v5.56zm4.98-12.24h-2.78v4.6h2.78c.52 0 .96-.1067 1.32-.32.36-.2267.6333-.5133.82-.86.2-.36.3-.7333.3-1.12s-.1-.7533-.3-1.1c-.1867-.3467-.46-.6333-.82-.86s-.8-.34-1.32-.34zm6.5155 12.24v-10.2h2.04v1.5h.12c.2266-.52.6133-.9467 1.16-1.28.56-.3467 1.16-.52 1.8-.52.28 0 .5133.02.7.06.2.04.38.0867.54.14v2.24c-.2534-.1067-.5134-.1933-.78-.26-.2534-.0667-.52-.1-.8-.1-.5067 0-.96.14-1.36.42-.3867.2667-.6934.6333-.92 1.1-.2267.4533-.34.9533-.34 1.5v5.4zm9.2673-11.7c-.4 0-.7467-.14-1.04-.42-.28-.2933-.42-.64-.42-1.04s.14-.74.42-1.02c.2933-.28.64-.42 1.04-.42s.74.14 1.02.42c.2933.28.44.62.44 1.02s-.1467.7467-.44 1.04c-.28.28-.62.42-1.02.42zm-1.08 11.7v-10.2h2.16v10.2zm9.1024.32c-.92 0-1.7534-.2267-2.5-.68-.7334-.4667-1.32-1.1067-1.76-1.92-.4267-.8267-.64-1.7667-.64-2.82s.2133-1.9867.64-2.8c.44-.8133 1.0266-1.4533 1.76-1.92.7466-.4667 1.58-.7 2.5-.7.7866 0 1.46.1733 2.02.52.5733.3467.9933.74 1.26 1.18h.12l-.12-1.42v-4.08h2.14v14.32h-2.02v-1.36h-.12c-.2667.44-.6867.8333-1.26 1.18-.56.3333-1.2334.5-2.02.5zm.32-1.98c.5333 0 1.0333-.14 1.5-.42.48-.28.86-.6733 1.14-1.18.2933-.52.44-1.1333.44-1.84s-.1467-1.3133-.44-1.82c-.28-.52-.66-.92-1.14-1.2-.4667-.28-.9667-.42-1.5-.42-.5334 0-1.0334.14-1.5.42-.4667.28-.8467.68-1.14 1.2-.2934.5067-.44 1.1133-.44 1.82s.1466 1.32.44 1.84c.2933.5067.6733.9 1.14 1.18.4666.28.9666.42 1.5.42zm12.2068 1.98c-1 0-1.894-.2333-2.68-.7-.787-.4667-1.407-1.1067-1.86-1.92-.44-.8133-.66-1.74-.66-2.78 0-.9733.213-1.8733.64-2.7.426-.8267 1.02-1.4867 1.78-1.98.773-.5067 1.66-.76 2.66-.76 1.053 0 1.946.2267 2.68.68.746.4533 1.313 1.0733 1.7 1.86.386.7867.58 1.6733.58 2.66 0 .1467-.007.28-.02.4 0 .12-.007.2133-.02.28h-7.88c.106 1.0133.46 1.7733 1.06 2.28.613.5067 1.306.76 2.08.76.693 0 1.266-.1533 1.72-.46.453-.32.813-.7133 1.08-1.18l1.78.86c-.44.8-1.04 1.4533-1.8 1.96-.76.4933-1.707.74-2.84.74zm-.1-9c-.72 0-1.334.22-1.84.66-.507.44-.847 1.0267-1.02 1.76h5.66c-.027-.3467-.14-.7067-.34-1.08s-.507-.6867-.92-.94c-.4-.2667-.914-.4-1.54-.4zm-.02-3.52c-.347 0-.647-.1267-.9-.38-.254-.2533-.38-.56-.38-.92s.126-.66.38-.9c.253-.2533.553-.38.9-.38.373 0 .68.1267.92.38.24.24.36.54.36.9s-.12.6667-.36.92-.547.38-.92.38zm7.751 9.24v-5.36h-1.78v-1.88h1.78v-2.88h2.16v2.88h2.5v1.88h-2.5v4.9c0 .5067.1.8933.3 1.16.213.2667.566.4 1.06.4.253 0 .466-.0333.64-.1.186-.0667.373-.16.56-.28v2.1c-.227.0933-.467.1667-.72.22-.254.0533-.554.08-.9.08-.947 0-1.7-.2733-2.26-.82-.56-.56-.84-1.3267-.84-2.3zm8.07-8.74c-.4 0-.747-.14-1.04-.42-.28-.2933-.42-.64-.42-1.04s.14-.74.42-1.02c.293-.28.64-.42 1.04-.42s.74.14 1.02.42c.293.28.44.62.44 1.02s-.147.7467-.44 1.04c-.28.28-.62.42-1.02.42zm-1.08 11.7v-10.2h2.16v10.2zm9.488 4.32v-14.52h2.02v1.38h.12c.266-.44.68-.8333 1.24-1.18.573-.3467 1.253-.52 2.04-.52.933 0 1.766.2333 2.5.7.733.4667 1.313 1.1067 1.74 1.92.44.8133.66 1.7467.66 2.8s-.22 1.9933-.66 2.82c-.427.8133-1.007 1.4533-1.74 1.92-.734.4533-1.567.68-2.5.68-.787 0-1.467-.1667-2.04-.5-.56-.3467-.974-.74-1.24-1.18h-.12l.12 1.42v4.26zm5.1-5.98c.533 0 1.033-.14 1.5-.42.466-.28.846-.6733 1.14-1.18.293-.52.44-1.1333.44-1.84s-.147-1.3133-.44-1.82c-.294-.52-.674-.92-1.14-1.2-.467-.28-.967-.42-1.5-.42-.534 0-1.034.14-1.5.42-.467.28-.847.68-1.14 1.2-.294.5067-.44 1.1133-.44 1.82s.146 1.32.44 1.84c.293.5067.673.9 1.14 1.18.466.28.966.42 1.5.42zm7.107 1.66v-10.2h2.04v1.5h.12c.227-.52.614-.9467 1.16-1.28.56-.3467 1.16-.52 1.8-.52.28 0 .514.02.7.06.2.04.38.0867.54.14v2.24c-.253-.1067-.513-.1933-.78-.26-.253-.0667-.52-.1-.8-.1-.506 0-.96.14-1.36.42-.386.2667-.693.6333-.92 1.1-.226.4533-.34.9533-.34 1.5v5.4zm9.268-11.7c-.4 0-.747-.14-1.04-.42-.28-.2933-.42-.64-.42-1.04s.14-.74.42-1.02c.293-.28.64-.42 1.04-.42s.74.14 1.02.42c.293.28.44.62.44 1.02s-.147.7467-.44 1.04c-.28.28-.62.42-1.02.42zm-1.08 11.7v-10.2h2.16v10.2zm9.402.32c-1 0-1.893-.2333-2.68-.7s-1.407-1.1067-1.86-1.92c-.44-.8133-.66-1.74-.66-2.78 0-.9733.213-1.8733.64-2.7s1.02-1.4867 1.78-1.98c.773-.5067 1.66-.76 2.66-.76 1.053 0 1.947.2267 2.68.68.747.4533 1.313 1.0733 1.7 1.86s.58 1.6733.58 2.66c0 .1467-.007.28-.02.4 0 .12-.007.2133-.02.28h-7.88c.107 1.0133.46 1.7733 1.06 2.28.613.5067 1.307.76 2.08.76.693 0 1.267-.1533 1.72-.46.453-.32.813-.7133 1.08-1.18l1.78.86c-.44.8-1.04 1.4533-1.8 1.96-.76.4933-1.707.74-2.84.74zm-.1-9c-.72 0-1.333.22-1.84.66s-.847 1.0267-1.02 1.76h5.66c-.027-.3467-.14-.7067-.34-1.08s-.507-.6867-.92-.94c-.4-.2667-.913-.4-1.54-.4z" fill="#fff"/><path d="m179.4 32.32c-1.027 0-1.993-.1867-2.9-.56-.893-.3733-1.687-.8933-2.38-1.56-.693-.68-1.24-1.4733-1.64-2.38-.387-.92-.58-1.9133-.58-2.98s.193-2.0533.58-2.96c.4-.92.94-1.7133 1.62-2.38.693-.68 1.493-1.2067 2.4-1.58s1.873-.56 2.9-.56c1.093 0 2.1.1933 3.02.58.933.3867 1.713.9267 2.34 1.62l-1.52 1.5c-.467-.52-1.027-.92-1.68-1.2-.64-.28-1.36-.42-2.16-.42-.947 0-1.82.2267-2.62.68-.8.44-1.447 1.0667-1.94 1.88-.48.8-.72 1.7467-.72 2.84s.247 2.0467.74 2.86c.493.8 1.14 1.4267 1.94 1.88.8.44 1.673.66 2.62.66.867 0 1.653-.16 2.36-.48.707-.3333 1.273-.8 1.7-1.4.44-.6.707-1.32.8-2.16h-4.9v-1.94h6.96c.08.36.12.74.12 1.14v.02c0 1.3867-.307 2.6-.92 3.64-.6 1.0267-1.433 1.8267-2.5 2.4s-2.28.86-3.64.86zm13.5 0c-1.053 0-1.98-.24-2.78-.72s-1.427-1.1267-1.88-1.94-.68-1.7333-.68-2.76c0-1.0133.227-1.9267.68-2.74.453-.8267 1.08-1.48 1.88-1.96s1.727-.72 2.78-.72c1.04 0 1.96.24 2.76.72s1.427 1.1333 1.88 1.96c.453.8133.68 1.7267.68 2.74 0 1.0267-.227 1.9467-.68 2.76s-1.08 1.46-1.88 1.94-1.72.72-2.76.72zm0-1.98c.56 0 1.08-.1333 1.56-.4.48-.28.867-.6733 1.16-1.18.307-.52.46-1.14.46-1.86s-.153-1.3333-.46-1.84c-.293-.52-.68-.9133-1.16-1.18-.48-.28-1-.42-1.56-.42s-1.087.14-1.58.42c-.48.2667-.873.66-1.18 1.18-.293.5067-.44 1.12-.44 1.84s.147 1.34.44 1.86c.307.5067.7.9 1.18 1.18.493.2667 1.02.4 1.58.4zm12.109 1.98c-1.053 0-1.98-.24-2.78-.72s-1.426-1.1267-1.88-1.94c-.453-.8133-.68-1.7333-.68-2.76 0-1.0133.227-1.9267.68-2.74.454-.8267 1.08-1.48 1.88-1.96s1.727-.72 2.78-.72c1.04 0 1.96.24 2.76.72s1.427 1.1333 1.88 1.96c.454.8133.68 1.7267.68 2.74 0 1.0267-.226 1.9467-.68 2.76-.453.8133-1.08 1.46-1.88 1.94s-1.72.72-2.76.72zm0-1.98c.56 0 1.08-.1333 1.56-.4.48-.28.867-.6733 1.16-1.18.307-.52.46-1.14.46-1.86s-.153-1.3333-.46-1.84c-.293-.52-.68-.9133-1.16-1.18-.48-.28-1-.42-1.56-.42s-1.086.14-1.58.42c-.48.2667-.873.66-1.18 1.18-.293.5067-.44 1.12-.44 1.84s.147 1.34.44 1.86c.307.5067.7.9 1.18 1.18.494.2667 1.02.4 1.58.4zm11.91 6.3c-.894 0-1.667-.1467-2.32-.44-.64-.28-1.16-.6467-1.56-1.1-.4-.44-.687-.8933-.86-1.36l2-.84c.213.5333.553.9667 1.02 1.3.48.3467 1.053.52 1.72.52.933 0 1.666-.28 2.2-.84.546-.56.82-1.3533.82-2.38v-.98h-.12c-.32.48-.767.8667-1.34 1.16-.56.28-1.2.42-1.92.42-.867 0-1.66-.22-2.38-.66s-1.3-1.0533-1.74-1.84c-.44-.8-.66-1.7333-.66-2.8 0-1.08.22-2.0133.66-2.8.44-.8 1.02-1.42 1.74-1.86s1.513-.66 2.38-.66c.72 0 1.36.1467 1.92.44.573.2933 1.02.68 1.34 1.16h.12v-1.28h2.06v9.66c0 1.1067-.22 2.0467-.66 2.82-.427.7733-1.02 1.36-1.78 1.76s-1.64.6-2.64.6zm.02-6.5c.533 0 1.026-.1267 1.48-.38.453-.2667.82-.6467 1.1-1.14.28-.5067.42-1.1133.42-1.82 0-.7333-.14-1.3467-.42-1.84-.28-.5067-.647-.8867-1.1-1.14-.454-.2533-.947-.38-1.48-.38-.534 0-1.034.1333-1.5.4-.454.2533-.82.6267-1.1 1.12s-.42 1.1067-.42 1.84c0 .72.14 1.3333.42 1.84.28.4933.646.8667 1.1 1.12.466.2533.966.38 1.5.38zm7.607 1.86v-14.32h2.16v14.32zm9.269.32c-1 0-1.894-.2333-2.68-.7-.787-.4667-1.407-1.1067-1.86-1.92-.44-.8133-.66-1.74-.66-2.78 0-.9733.213-1.8733.64-2.7.426-.8267 1.02-1.4867 1.78-1.98.773-.5067 1.66-.76 2.66-.76 1.053 0 1.946.2267 2.68.68.746.4533 1.313 1.0733 1.7 1.86.386.7867.58 1.6733.58 2.66 0 .1467-.007.28-.02.4 0 .12-.007.2133-.02.28h-7.88c.106 1.0133.46 1.7733 1.06 2.28.613.5067 1.306.76 2.08.76.693 0 1.266-.1533 1.72-.46.453-.32.813-.7133 1.08-1.18l1.78.86c-.44.8-1.04 1.4533-1.8 1.96-.76.4933-1.707.74-2.84.74zm-.1-9c-.72 0-1.334.22-1.84.66-.507.44-.847 1.0267-1.02 1.76h5.66c-.027-.3467-.14-.7067-.34-1.08s-.507-.6867-.92-.94c-.4-.2667-.914-.4-1.54-.4zm11.971 8.68v-14.32h4.92c.867 0 1.654.1867 2.36.56.707.3733 1.267.8867 1.68 1.54.427.6533.64 1.4133.64 2.28s-.213 1.6333-.64 2.3c-.413.6533-.973 1.1667-1.68 1.54-.706.36-1.493.54-2.36.54h-2.72v5.56zm4.98-12.24h-2.78v4.6h2.78c.52 0 .96-.1067 1.32-.32.36-.2267.634-.5133.82-.86.2-.36.3-.7333.3-1.12s-.1-.7533-.3-1.1c-.186-.3467-.46-.6333-.82-.86s-.8-.34-1.32-.34zm7.756.54c-.4 0-.747-.14-1.04-.42-.28-.2933-.42-.64-.42-1.04s.14-.74.42-1.02c.293-.28.64-.42 1.04-.42s.74.14 1.02.42c.293.28.44.62.44 1.02s-.147.7467-.44 1.04c-.28.28-.62.42-1.02.42zm-1.08 11.7v-10.2h2.16v10.2zm4.84 0v-10.2h2.04v1.4h.12c.293-.4933.727-.9 1.3-1.22.587-.3333 1.227-.5 1.92-.5 1.253 0 2.193.3733 2.82 1.12s.94 1.7333.94 2.96v6.44h-2.14v-6.16c0-.8267-.207-1.4267-.62-1.8-.413-.3867-.953-.58-1.62-.58-.52 0-.973.1467-1.36.44-.387.28-.693.6533-.92 1.12-.213.4667-.32.9667-.32 1.5v5.48zm12.841-11.7c-.4 0-.746-.14-1.04-.42-.28-.2933-.42-.64-.42-1.04s.14-.74.42-1.02c.294-.28.64-.42 1.04-.42s.74.14 1.02.42c.294.28.44.62.44 1.02s-.146.7467-.44 1.04c-.28.28-.62.42-1.02.42zm-1.08 11.7v-10.2h2.16v10.2zm9.343 4.64c-.894 0-1.667-.1467-2.32-.44-.64-.28-1.16-.6467-1.56-1.1-.4-.44-.687-.8933-.86-1.36l2-.84c.213.5333.553.9667 1.02 1.3.48.3467 1.053.52 1.72.52.933 0 1.666-.28 2.2-.84.546-.56.82-1.3533.82-2.38v-.98h-.12c-.32.48-.767.8667-1.34 1.16-.56.28-1.2.42-1.92.42-.867 0-1.66-.22-2.38-.66s-1.3-1.0533-1.74-1.84c-.44-.8-.66-1.7333-.66-2.8 0-1.08.22-2.0133.66-2.8.44-.8 1.02-1.42 1.74-1.86s1.513-.66 2.38-.66c.72 0 1.36.1467 1.92.44.573.2933 1.02.68 1.34 1.16h.12v-1.28h2.06v9.66c0 1.1067-.22 2.0467-.66 2.82-.427.7733-1.02 1.36-1.78 1.76s-1.64.6-2.64.6zm.02-6.5c.533 0 1.026-.1267 1.48-.38.453-.2667.82-.6467 1.1-1.14.28-.5067.42-1.1133.42-1.82 0-.7333-.14-1.3467-.42-1.84-.28-.5067-.647-.8867-1.1-1.14-.454-.2533-.947-.38-1.48-.38-.534 0-1.034.1333-1.5.4-.454.2533-.82.6267-1.1 1.12s-.42 1.1067-.42 1.84c0 .72.14 1.3333.42 1.84.28.4933.646.8667 1.1 1.12.466.2533.966.38 1.5.38zm8.827-9.84c-.4 0-.747-.14-1.04-.42-.28-.2933-.42-.64-.42-1.04s.14-.74.42-1.02c.293-.28.64-.42 1.04-.42s.74.14 1.02.42c.293.28.44.62.44 1.02s-.147.7467-.44 1.04c-.28.28-.62.42-1.02.42zm-1.08 11.7v-10.2h2.16v10.2zm4.84 0v-10.2h2.04v1.4h.12c.293-.4933.726-.9 1.3-1.22.586-.3333 1.226-.5 1.92-.5 1.253 0 2.193.3733 2.82 1.12.626.7467.94 1.7333.94 2.96v6.44h-2.14v-6.16c0-.8267-.207-1.4267-.62-1.8-.414-.3867-.954-.58-1.62-.58-.52 0-.974.1467-1.36.44-.387.28-.694.6533-.92 1.12-.214.4667-.32.9667-.32 1.5v5.48zm16.261.32c-1 0-1.893-.2333-2.68-.7-.786-.4667-1.406-1.1067-1.86-1.92-.44-.8133-.66-1.74-.66-2.78 0-.9733.214-1.8733.64-2.7.427-.8267 1.02-1.4867 1.78-1.98.774-.5067 1.66-.76 2.66-.76 1.054 0 1.947.2267 2.68.68.747.4533 1.314 1.0733 1.7 1.86.387.7867.58 1.6733.58 2.66 0 .1467-.006.28-.02.4 0 .12-.006.2133-.02.28h-7.88c.107 1.0133.46 1.7733 1.06 2.28.614.5067 1.307.76 2.08.76.694 0 1.267-.1533 1.72-.46.454-.32.814-.7133 1.08-1.18l1.78.86c-.44.8-1.04 1.4533-1.8 1.96-.76.4933-1.706.74-2.84.74zm-.1-9c-.72 0-1.333.22-1.84.66-.506.44-.846 1.0267-1.02 1.76h5.66c-.026-.3467-.14-.7067-.34-1.08s-.506-.6867-.92-.94c-.4-.2667-.913-.4-1.54-.4zm-.02-3.52c-.346 0-.646-.1267-.9-.38-.253-.2533-.38-.56-.38-.92s.127-.66.38-.9c.254-.2533.554-.38.9-.38.374 0 .68.1267.92.38.24.24.36.54.36.9s-.12.6667-.36.92-.546.38-.92.38z" fill="#fff"/><rect height="49" rx="24.5" stroke="#747775" width="338" x=".5" y=".5"/></svg>