<svg fill="none" height="50" viewBox="0 0 341 50" width="341" xmlns="http://www.w3.org/2000/svg" xmlns:xlink="http://www.w3.org/1999/xlink"><linearGradient id="a" gradientUnits="userSpaceOnUse" x1="34.5703" x2="18.7309" y1="30.7864" y2="48.9133"><stop offset="0" stop-color="#4285f4"/><stop offset="1" stop-color="#1b74e8"/></linearGradient><rect fill="#1f1f1f" height="49" rx="24.5" width="340" x=".5" y=".5"/><path d="m51 22h-30v-5c0-2.7143 2.2018-5 4.8165-5h20.367c2.6147 0 4.8165 2.2857 4.8165 5z" fill="#34a853"/><path d="m51 26.0537h-30v-5c0-2.7143 2.2018-5 4.8165-5h20.367c2.6147 0 4.8165 2.2857 4.8165 5z" fill="#fbbc04"/><path d="m51 30.2468h-30v-5c0-2.7143 2.2018-5 4.8165-5h20.367c2.6147 0 4.8165 2.2857 4.8165 5z" fill="#ea4335"/><path d="m21 23.2752 19.0411 4.4037c2.1918.5505 4.6575 0 6.4384-1.3761l4.5205-3.3028v10.3211c0 2.6147-2.1918 4.6789-4.7945 4.6789h-20.411c-2.6027 0-4.7945-2.0642-4.7945-4.6789z" fill="url(#a)"/><path d="m63.3 32 5.4-14.32h2.5l5.42 14.32h-2.42l-1.32-3.68h-5.84l-1.32 3.68zm6.06-10.1-1.58 4.38h4.36l-1.58-4.38-.54-1.64h-.12zm12.8928 10.42c-.92 0-1.7533-.2267-2.5-.68-.7333-.4667-1.32-1.1067-1.76-1.92-.4267-.8267-.64-1.7667-.64-2.82s.2133-1.9867.64-2.8c.44-.8133 1.0267-1.4533 1.76-1.92.7467-.4667 1.58-.7 2.5-.7.7867 0 1.46.1733 2.02.52.5733.3467.9933.74 1.26 1.18h.12l-.12-1.42v-4.08h2.14v14.32h-2.02v-1.36h-.12c-.2667.44-.6867.8333-1.26 1.18-.56.3333-1.2333.5-2.02.5zm.32-1.98c.5333 0 1.0333-.14 1.5-.42.48-.28.86-.6733 1.14-1.18.2933-.52.44-1.1333.44-1.84s-.1467-1.3133-.44-1.82c-.28-.52-.66-.92-1.14-1.2-.4667-.28-.9667-.42-1.5-.42s-1.0333.14-1.5.42-.8467.68-1.14 1.2c-.2933.5067-.44 1.1133-.44 1.82s.1467 1.32.44 1.84c.2933.5067.6733.9 1.14 1.18s.9667.42 1.5.42zm10.7466 1.98c-.7334 0-1.3867-.14-1.96-.42-.5734-.2933-1.02-.7-1.34-1.22s-.48-1.1133-.48-1.78c0-.72.1866-1.3333.56-1.84.3866-.52.9-.9133 1.54-1.18s1.3466-.4 2.12-.4c.64 0 1.2.06 1.68.18.4933.12.8666.2467 1.12.38v-.54c0-.6667-.24-1.2-.72-1.6s-1.1-.6-1.86-.6c-.52 0-1.0134.12-1.48.36-.4667.2267-.84.54-1.12.94l-1.48-1.14c.44-.6133 1.02-1.0933 1.74-1.44.7333-.36 1.5333-.54 2.4-.54 1.48 0 2.62.3667 3.42 1.1.8.72 1.2 1.7333 1.2 3.04v6.38h-2.1v-1.26h-.12c-.2667.4133-.6667.78-1.2 1.1-.5334.32-1.1734.48-1.92.48zm.38-1.76c.56 0 1.0533-.1333 1.48-.4.4266-.2667.76-.6133 1-1.04.2533-.44.38-.9133.38-1.42-.3067-.1733-.6667-.3133-1.08-.42-.4134-.12-.8534-.18-1.32-.18-.88 0-1.5067.18-1.88.54-.3734.3467-.56.7733-.56 1.28 0 .48.18.8733.54 1.18s.84.46 1.44.46zm.44-10.68c-.4667 0-.9-.1133-1.3-.34s-.7267-.5333-.98-.92c-.24-.4-.36-.8467-.36-1.34h1.6c0 .28.0933.5267.28.74.1866.2133.44.32.76.32.3066 0 .5466-.1067.72-.32.1866-.2133.28-.46.28-.74h1.6c0 .4933-.1267.94-.38 1.34-.24.3867-.56.6933-.96.92-.3867.2267-.8067.34-1.26.34zm10.5976 12.44c-1.253 0-2.2-.3733-2.84-1.12-.626-.76-.94-1.7867-.94-3.08v-6.32h2.16v6.02c0 .8667.2 1.5067.6 1.92.414.4.927.6 1.54.6.547 0 1.02-.14 1.42-.42.414-.2933.727-.6667.94-1.12.227-.4667.34-.9733.34-1.52v-5.48h2.14v10.2h-2.02v-1.38h-.12c-.293.48-.733.8867-1.32 1.22-.573.32-1.206.48-1.9.48zm12.404 4.32c-.893 0-1.666-.1467-2.32-.44-.64-.28-1.16-.6467-1.56-1.1-.4-.44-.686-.8933-.86-1.36l2-.84c.214.5333.554.9667 1.02 1.3.48.3467 1.054.52 1.72.52.934 0 1.667-.28 2.2-.84.547-.56.82-1.3533.82-2.38v-.98h-.12c-.32.48-.766.8667-1.34 1.16-.56.28-1.2.42-1.92.42-.866 0-1.66-.22-2.38-.66s-1.3-1.0533-1.74-1.84c-.44-.8-.66-1.7333-.66-2.8 0-1.08.22-2.0133.66-2.8.44-.8 1.02-1.42 1.74-1.86s1.514-.66 2.38-.66c.72 0 1.36.1467 1.92.44.574.2933 1.02.68 1.34 1.16h.12v-1.28h2.06v9.66c0 1.1067-.22 2.0467-.66 2.82-.426.7733-1.02 1.36-1.78 1.76s-1.64.6-2.64.6zm.02-6.5c.534 0 1.027-.1267 1.48-.38.454-.2667.82-.6467 1.1-1.14.28-.5067.42-1.1133.42-1.82 0-.7333-.14-1.3467-.42-1.84-.28-.5067-.646-.8867-1.1-1.14-.453-.2533-.946-.38-1.48-.38-.533 0-1.033.1333-1.5.4-.453.2533-.82.6267-1.1 1.12s-.42 1.1067-.42 1.84c0 .72.14 1.3333.42 1.84.28.4933.647.8667 1.1 1.12.467.2533.967.38 1.5.38zm10.69 2.18c-.734 0-1.387-.14-1.96-.42-.574-.2933-1.02-.7-1.34-1.22s-.48-1.1133-.48-1.78c0-.72.186-1.3333.56-1.84.386-.52.9-.9133 1.54-1.18s1.346-.4 2.12-.4c.64 0 1.2.06 1.68.18.493.12.866.2467 1.12.38v-.54c0-.6667-.24-1.2-.72-1.6s-1.1-.6-1.86-.6c-.52 0-1.014.12-1.48.36-.467.2267-.84.54-1.12.94l-1.48-1.14c.44-.6133 1.02-1.0933 1.74-1.44.733-.36 1.533-.54 2.4-.54 1.48 0 2.62.3667 3.42 1.1.8.72 1.2 1.7333 1.2 3.04v6.38h-2.1v-1.26h-.12c-.267.4133-.667.78-1.2 1.1-.534.32-1.174.48-1.92.48zm.38-1.76c.56 0 1.053-.1333 1.48-.4.426-.2667.76-.6133 1-1.04.253-.44.38-.9133.38-1.42-.307-.1733-.667-.3133-1.08-.42-.414-.12-.854-.18-1.32-.18-.88 0-1.507.18-1.88.54-.374.3467-.56.7733-.56 1.28 0 .48.18.8733.54 1.18s.84.46 1.44.46zm8.222-1.52v-5.36h-1.78v-1.88h1.78v-2.88h2.16v2.88h2.5v1.88h-2.5v4.9c0 .5067.1.8933.3 1.16.214.2667.567.4 1.06.4.254 0 .467-.0333.64-.1.187-.0667.374-.16.56-.28v2.1c-.226.0933-.466.1667-.72.22-.253.0533-.553.08-.9.08-.946 0-1.7-.2733-2.26-.82-.56-.56-.84-1.3267-.84-2.3zm1.88 8.18-.86-.58.84-1.26c-.253-.08-.46-.2267-.62-.44-.146-.2133-.22-.4533-.22-.72 0-.32.12-.6133.36-.88.24-.2533.54-.38.9-.38.374 0 .68.1267.92.38s.36.56.36.92c0 .32-.12.6533-.36 1zm6.21-16.92c-.4 0-.747-.14-1.04-.42-.28-.2933-.42-.64-.42-1.04s.14-.74.42-1.02c.293-.28.64-.42 1.04-.42s.74.14 1.02.42c.293.28.44.62.44 1.02s-.147.7467-.44 1.04c-.28.28-.62.42-1.02.42zm-1.08 11.7v-10.2h2.16v10.2zm9.528 0v-14.32h2.16v14.32zm7.809.32c-.733 0-1.387-.14-1.96-.42-.573-.2933-1.02-.7-1.34-1.22s-.48-1.1133-.48-1.78c0-.72.187-1.3333.56-1.84.387-.52.9-.9133 1.54-1.18s1.347-.4 2.12-.4c.64 0 1.2.06 1.68.18.493.12.867.2467 1.12.38v-.54c0-.6667-.24-1.2-.72-1.6s-1.1-.6-1.86-.6c-.52 0-1.013.12-1.48.36-.467.2267-.84.54-1.12.94l-1.48-1.14c.44-.6133 1.02-1.0933 1.74-1.44.733-.36 1.533-.54 2.4-.54 1.48 0 2.62.3667 3.42 1.1.8.72 1.2 1.7333 1.2 3.04v6.38h-2.1v-1.26h-.12c-.267.4133-.667.78-1.2 1.1s-1.173.48-1.92.48zm.38-1.76c.56 0 1.053-.1333 1.48-.4s.76-.6133 1-1.04c.253-.44.38-.9133.38-1.42-.307-.1733-.667-.3133-1.08-.42-.413-.12-.853-.18-1.32-.18-.88 0-1.507.18-1.88.54-.373.3467-.56.7733-.56 1.28 0 .48.18.8733.54 1.18s.84.46 1.44.46z" fill="#fff"/><path d="m174.62 32v-14.32h4.92c.867 0 1.653.1867 2.36.56s1.267.8867 1.68 1.54c.427.6533.64 1.4133.64 2.28s-.213 1.6333-.64 2.3c-.413.6533-.973 1.1667-1.68 1.54-.707.36-1.493.54-2.36.54h-2.72v5.56zm4.98-12.24h-2.78v4.6h2.78c.52 0 .96-.1067 1.32-.32.36-.2267.633-.5133.82-.86.2-.36.3-.7333.3-1.12s-.1-.7533-.3-1.1c-.187-.3467-.46-.6333-.82-.86s-.8-.34-1.32-.34zm10.612 12.56c-1.053 0-1.98-.24-2.78-.72s-1.426-1.1267-1.88-1.94c-.453-.8133-.68-1.7333-.68-2.76 0-1.0133.227-1.9267.68-2.74.454-.8267 1.08-1.48 1.88-1.96s1.727-.72 2.78-.72c1.04 0 1.96.24 2.76.72s1.427 1.1333 1.88 1.96c.454.8133.68 1.7267.68 2.74 0 1.0267-.226 1.9467-.68 2.76-.453.8133-1.08 1.46-1.88 1.94s-1.72.72-2.76.72zm0-1.98c.56 0 1.08-.1333 1.56-.4.48-.28.867-.6733 1.16-1.18.307-.52.46-1.14.46-1.86s-.153-1.3333-.46-1.84c-.293-.52-.68-.9133-1.16-1.18-.48-.28-1-.42-1.56-.42s-1.086.14-1.58.42c-.48.2667-.873.66-1.18 1.18-.293.5067-.44 1.12-.44 1.84s.147 1.34.44 1.86c.307.5067.7.9 1.18 1.18.494.2667 1.02.4 1.58.4zm16.294-1.3v-5.36h-1.78v-1.88h1.78v-2.88h2.16v2.88h2.5v1.88h-2.5v4.9c0 .5067.1.8933.3 1.16.214.2667.567.4 1.06.4.254 0 .467-.0333.64-.1.187-.0667.374-.16.56-.28v2.1c-.226.0933-.466.1667-.72.22-.253.0533-.546.08-.88.08-.96 0-1.72-.2733-2.28-.82-.56-.56-.84-1.3267-.84-2.3zm-9.18 2.96v-10.2h2.04v1.5h.12c.267-.56.68-.9933 1.24-1.3.56-.32 1.167-.48 1.82-.48.374 0 .654.0267.84.08v2.16c-.293-.0933-.653-.14-1.08-.14-.853 0-1.54.2733-2.06.82-.506.5467-.76 1.2867-.76 2.22v5.34zm20.347.32c-1.053 0-1.98-.24-2.78-.72s-1.426-1.1267-1.88-1.94c-.453-.8133-.68-1.7333-.68-2.76 0-1.0133.227-1.9267.68-2.74.454-.8267 1.08-1.48 1.88-1.96s1.727-.72 2.78-.72c1.04 0 1.96.24 2.76.72s1.427 1.1333 1.88 1.96c.454.8133.68 1.7267.68 2.74 0 1.0267-.226 1.9467-.68 2.76-.453.8133-1.08 1.46-1.88 1.94s-1.72.72-2.76.72zm0-1.98c.56 0 1.08-.1333 1.56-.4.48-.28.867-.6733 1.16-1.18.307-.52.46-1.14.46-1.86s-.153-1.3333-.46-1.84c-.293-.52-.68-.9133-1.16-1.18-.48-.28-1-.42-1.56-.42s-1.086.14-1.58.42c-.48.2667-.873.66-1.18 1.18-.293.5067-.44 1.12-.44 1.84s.147 1.34.44 1.86c.307.5067.7.9 1.18 1.18.494.2667 1.02.4 1.58.4zm8.177 1.66v-8.32h-1.86v-1.88h1.86v-.84c0-.72.153-1.3333.46-1.84.306-.52.72-.9133 1.24-1.18.533-.28 1.133-.42 1.8-.42.36 0 .666.0267.92.08.266.04.486.0933.66.16v2.1c-.174-.0667-.374-.1333-.6-.2-.214-.08-.48-.12-.8-.12-.414 0-.774.14-1.08.42-.307.2667-.46.66-.46 1.18v.66h2.56v1.88h-2.56v8.32zm10.804.32c-1 0-1.893-.2333-2.68-.7-.786-.4667-1.406-1.1067-1.86-1.92-.44-.8133-.66-1.74-.66-2.78 0-.9733.214-1.8733.64-2.7.427-.8267 1.02-1.4867 1.78-1.98.774-.5067 1.66-.76 2.66-.76 1.054 0 1.947.2267 2.68.68.747.4533 1.314 1.0733 1.7 1.86.387.7867.58 1.6733.58 2.66 0 .1467-.006.28-.02.4 0 .12-.006.2133-.02.28h-7.88c.107 1.0133.46 1.7733 1.06 2.28.614.5067 1.307.76 2.08.76.694 0 1.267-.1533 1.72-.46.454-.32.814-.7133 1.08-1.18l1.78.86c-.44.8-1.04 1.4533-1.8 1.96-.76.4933-1.706.74-2.84.74zm-.1-9c-.72 0-1.333.22-1.84.66-.506.44-.846 1.0267-1.02 1.76h5.66c-.026-.3467-.14-.7067-.34-1.08s-.506-.6867-.92-.94c-.4-.2667-.913-.4-1.54-.4zm6.964 8.68v-14.32h2.16v14.32zm16.124.32c-1.026 0-1.993-.1867-2.9-.56-.893-.3733-1.686-.8933-2.38-1.56-.693-.68-1.24-1.4733-1.64-2.38-.386-.92-.58-1.9133-.58-2.98s.194-2.0533.58-2.96c.4-.92.94-1.7133 1.62-2.38.694-.68 1.494-1.2067 2.4-1.58.907-.3733 1.874-.56 2.9-.56 1.094 0 2.1.1933 3.02.58.934.3867 1.714.9267 2.34 1.62l-1.52 1.5c-.466-.52-1.026-.92-1.68-1.2-.64-.28-1.36-.42-2.16-.42-.946 0-1.82.2267-2.62.68-.8.44-1.446 1.0667-1.94 1.88-.48.8-.72 1.7467-.72 2.84s.247 2.0467.74 2.86c.494.8 1.14 1.4267 1.94 1.88.8.44 1.674.66 2.62.66.867 0 1.654-.16 2.36-.48.707-.3333 1.274-.8 1.7-1.4.44-.6.707-1.32.8-2.16h-4.9v-1.94h6.96c.08.36.12.74.12 1.14v.02c0 1.3867-.306 2.6-.92 3.64-.6 1.0267-1.433 1.8267-2.5 2.4-1.066.5733-2.28.86-3.64.86zm13.5 0c-1.053 0-1.98-.24-2.78-.72s-1.427-1.1267-1.88-1.94-.68-1.7333-.68-2.76c0-1.0133.227-1.9267.68-2.74.453-.8267 1.08-1.48 1.88-1.96s1.727-.72 2.78-.72c1.04 0 1.96.24 2.76.72s1.427 1.1333 1.88 1.96c.453.8133.68 1.7267.68 2.74 0 1.0267-.227 1.9467-.68 2.76s-1.08 1.46-1.88 1.94-1.72.72-2.76.72zm0-1.98c.56 0 1.08-.1333 1.56-.4.48-.28.867-.6733 1.16-1.18.307-.52.46-1.14.46-1.86s-.153-1.3333-.46-1.84c-.293-.52-.68-.9133-1.16-1.18-.48-.28-1-.42-1.56-.42s-1.087.14-1.58.42c-.48.2667-.873.66-1.18 1.18-.293.5067-.44 1.12-.44 1.84s.147 1.34.44 1.86c.307.5067.7.9 1.18 1.18.493.2667 1.02.4 1.58.4zm12.109 1.98c-1.053 0-1.98-.24-2.78-.72s-1.426-1.1267-1.88-1.94c-.453-.8133-.68-1.7333-.68-2.76 0-1.0133.227-1.9267.68-2.74.454-.8267 1.08-1.48 1.88-1.96s1.727-.72 2.78-.72c1.04 0 1.96.24 2.76.72s1.427 1.1333 1.88 1.96c.454.8133.68 1.7267.68 2.74 0 1.0267-.226 1.9467-.68 2.76-.453.8133-1.08 1.46-1.88 1.94s-1.72.72-2.76.72zm0-1.98c.56 0 1.08-.1333 1.56-.4.48-.28.867-.6733 1.16-1.18.307-.52.46-1.14.46-1.86s-.153-1.3333-.46-1.84c-.293-.52-.68-.9133-1.16-1.18-.48-.28-1-.42-1.56-.42s-1.086.14-1.58.42c-.48.2667-.873.66-1.18 1.18-.293.5067-.44 1.12-.44 1.84s.147 1.34.44 1.86c.307.5067.7.9 1.18 1.18.494.2667 1.02.4 1.58.4zm11.91 6.3c-.894 0-1.667-.1467-2.32-.44-.64-.28-1.16-.6467-1.56-1.1-.4-.44-.687-.8933-.86-1.36l2-.84c.213.5333.553.9667 1.02 1.3.48.3467 1.053.52 1.72.52.933 0 1.666-.28 2.2-.84.546-.56.82-1.3533.82-2.38v-.98h-.12c-.32.48-.767.8667-1.34 1.16-.56.28-1.2.42-1.92.42-.867 0-1.66-.22-2.38-.66s-1.3-1.0533-1.74-1.84c-.44-.8-.66-1.7333-.66-2.8 0-1.08.22-2.0133.66-2.8.44-.8 1.02-1.42 1.74-1.86s1.513-.66 2.38-.66c.72 0 1.36.1467 1.92.44.573.2933 1.02.68 1.34 1.16h.12v-1.28h2.06v9.66c0 1.1067-.22 2.0467-.66 2.82-.427.7733-1.02 1.36-1.78 1.76s-1.64.6-2.64.6zm.02-6.5c.533 0 1.026-.1267 1.48-.38.453-.2667.82-.6467 1.1-1.14.28-.5067.42-1.1133.42-1.82 0-.7333-.14-1.3467-.42-1.84-.28-.5067-.647-.8867-1.1-1.14-.454-.2533-.947-.38-1.48-.38-.534 0-1.034.1333-1.5.4-.454.2533-.82.6267-1.1 1.12s-.42 1.1067-.42 1.84c0 .72.14 1.3333.42 1.84.28.4933.646.8667 1.1 1.12.466.2533.966.38 1.5.38zm7.607 1.86v-14.32h2.16v14.32zm9.269.32c-1 0-1.894-.2333-2.68-.7-.787-.4667-1.407-1.1067-1.86-1.92-.44-.8133-.66-1.74-.66-2.78 0-.9733.213-1.8733.64-2.7.426-.8267 1.02-1.4867 1.78-1.98.773-.5067 1.66-.76 2.66-.76 1.053 0 1.946.2267 2.68.68.746.4533 1.313 1.0733 1.7 1.86.386.7867.58 1.6733.58 2.66 0 .1467-.007.28-.02.4 0 .12-.007.2133-.02.28h-7.88c.106 1.0133.46 1.7733 1.06 2.28.613.5067 1.306.76 2.08.76.693 0 1.266-.1533 1.72-.46.453-.32.813-.7133 1.08-1.18l1.78.86c-.44.8-1.04 1.4533-1.8 1.96-.76.4933-1.707.74-2.84.74zm-.1-9c-.72 0-1.334.22-1.84.66-.507.44-.847 1.0267-1.02 1.76h5.66c-.027-.3467-.14-.7067-.34-1.08s-.507-.6867-.92-.94c-.4-.2667-.914-.4-1.54-.4z" fill="#fff"/><rect height="49" rx="24.5" stroke="#747775" width="340" x=".5" y=".5"/></svg>