<svg fill="none" height="50" viewBox="0 0 294 50" width="294" xmlns="http://www.w3.org/2000/svg" xmlns:xlink="http://www.w3.org/1999/xlink"><linearGradient id="a" gradientUnits="userSpaceOnUse" x1="34.5703" x2="18.7309" y1="30.7864" y2="48.9133"><stop offset="0" stop-color="#4285f4"/><stop offset="1" stop-color="#1b74e8"/></linearGradient><rect fill="#1f1f1f" height="49" rx="24.5" width="293" x=".5" y=".5"/><path d="m51 22h-30v-5c0-2.7143 2.2018-5 4.8165-5h20.367c2.6147 0 4.8165 2.2857 4.8165 5z" fill="#34a853"/><path d="m51 26.0537h-30v-5c0-2.7143 2.2018-5 4.8165-5h20.367c2.6147 0 4.8165 2.2857 4.8165 5z" fill="#fbbc04"/><path d="m51 30.2468h-30v-5c0-2.7143 2.2018-5 4.8165-5h20.367c2.6147 0 4.8165 2.2857 4.8165 5z" fill="#ea4335"/><path d="m21 23.2752 19.0411 4.4037c2.1918.5505 4.6575 0 6.4384-1.3761l4.5205-3.3028v10.3211c0 2.6147-2.1918 4.6789-4.7945 4.6789h-20.411c-2.6027 0-4.7945-2.0642-4.7945-4.6789z" fill="url(#a)"/><path d="m66.76 32.24c-.68 0-1.2267-.2067-1.64-.62-.4-.4133-.6-.96-.6-1.64v-8.78h2.1v6.88c.1067-.0267.22-.04.34-.04.6 0 1.0933.2 1.48.6.3867.3867.58.88.58 1.48 0 .6267-.2133 1.14-.64 1.54-.4267.3867-.9667.58-1.62.58zm.02-1.3c.2533 0 .4533-.0733.6-.22.16-.16.24-.36.24-.6 0-.2533-.08-.4533-.24-.6-.1467-.16-.3467-.24-.6-.24-.24 0-.44.08-.6.24-.1467.1467-.22.3467-.22.6 0 .24.0733.44.22.6.16.1467.36.22.6.22zm4.8756 1.06v-6.84c-.0933.0133-.1933.02-.3.02-.6133 0-1.12-.1933-1.52-.58-.4-.4-.6-.9-.6-1.5 0-.6133.2067-1.12.62-1.52.4267-.4.9667-.6 1.62-.6.6667 0 1.2.2067 1.6.62.4134.4.62.94.62 1.62v3.32l-.06 2.14.58-1.6 1.76-4.34h1.1l1.76 4.34.56 1.54-.04-2.08v-5.34h2.04v10.8h-2.22l-2.18-5.34-.46-1.26-.46 1.26-2.18 5.34zm-.22-8.06c.24 0 .4334-.0733.58-.22.16-.16.24-.3667.24-.62 0-.24-.08-.4333-.24-.58-.1466-.16-.34-.24-.58-.24s-.44.08-.6.24c-.1466.1467-.22.34-.22.58 0 .2533.0734.46.22.62.16.1467.36.22.6.22zm.7705-4.1v-.14c.1867-1.0667.7-1.9133 1.54-2.54.8267-.64 1.84-.96 3.04-.96 1.2133 0 2.24.32 3.08.96.8267.6267 1.3333 1.4733 1.52 2.54v.14zm2.2-1.16h4.78c-.1333-.3733-.4133-.6733-.84-.9-.44-.2267-.96-.34-1.56-.34-.5867 0-1.0933.1133-1.52.34-.44.2267-.7267.5267-.86.9zm4.9995-3.9-.2-2.96h2.06l-.2 2.96zm6.6005 17.44c-.68 0-1.24-.2133-1.68-.64s-.66-.98-.66-1.66c0-.6667.2133-1.2133.64-1.64.44-.4267.9933-.64 1.66-.64h.1v-2.48c-.1067.0133-.2133.02-.32.02-.6133 0-1.12-.1933-1.52-.58-.4-.4-.6-.9-.6-1.5 0-.6133.2133-1.12.64-1.52s.9667-.6 1.62-.6c.68 0 1.22.2067 1.62.62s.6.96.6 1.64v4.76l3.48 2v-8.8h2.1v10.8h-1.94l-3.4-1.96c-.0267.64-.26 1.1667-.7 1.58-.4267.4-.9733.6-1.64.6zm-.16-8.28c.24 0 .4333-.0733.58-.22.16-.16.24-.3667.24-.62 0-.24-.08-.4333-.24-.58-.1467-.16-.34-.24-.58-.24s-.44.08-.6.24c-.1467.1467-.22.34-.22.58 0 .2533.0733.46.22.62.16.1467.36.22.6.22zm.16 6.92c.2533 0 .4667-.0867.64-.26s.26-.4.26-.68-.0867-.5067-.26-.68-.3867-.26-.64-.26c-.2667 0-.4867.0867-.66.26-.16.1733-.24.4-.24.68s.08.5067.24.68c.1733.1733.3933.26.66.26zm13.7047 1.38c-.68 0-1.2267-.2067-1.64-.62-.4134-.4133-.62-.96-.62-1.64v-7.9c0-.56.0866-1.0733.26-1.54.1866-.48.4133-.9267.68-1.34.2666-.4133.5333-.8067.8-1.18.2666-.3733.4866-.7267.66-1.06.1862-.3467.2802-.6867.2802-1.02 0-.2933-.074-.52-.2202-.68-.1334-.16-.3-.2467-.5-.26l-1.96 2.52h-1.42l-2.1-3.92v-.2h1.94l1.08 2.26 1.66-2.26h.74c.8402 0 1.4802.2467 1.9202.74.453.48.68 1.08.68 1.8 0 .5867-.12 1.1267-.36 1.62-.24.48-.52.9533-.84 1.42s-.6.9533-.8402 1.46c-.24.4933-.36 1.0467-.36 1.66v5.98c.12-.0267.24-.04.36-.04.6002 0 1.0862.2 1.4602.6.386.3867.58.88.58 1.48 0 .6267-.214 1.14-.64 1.54-.414.3867-.947.58-1.6002.58zm.02-1.3c.24 0 .4402-.0733.6002-.22.16-.16.24-.36.24-.6 0-.2533-.08-.4533-.24-.6-.16-.16-.3602-.24-.6002-.24s-.44.08-.6.24c-.1467.1467-.22.3467-.22.6 0 .24.0733.44.22.6.16.1467.36.22.6.22zm4.8732 1.06v-6.84c-.093.0133-.186.02-.28.02-.613 0-1.12-.1933-1.52-.58-.4-.4-.6-.9-.6-1.5 0-.6133.214-1.12.64-1.52.427-.4.967-.6 1.62-.6.68 0 1.22.2067 1.62.62s.6.96.6 1.64v7h4.42v-12.64h2.1v14.4zm-.18-8.06c.24 0 .434-.0733.58-.22.16-.16.24-.3667.24-.62 0-.24-.08-.4333-.24-.58-.146-.16-.34-.24-.58-.24s-.44.08-.6.24c-.146.1467-.22.34-.22.58 0 .2533.074.46.22.62.16.1467.36.22.6.22zm11.799 8.06v-3.08c0-1.0133.413-1.6533 1.24-1.92v-.08c-.56-.1867-1.02-.5733-1.38-1.16s-.54-1.2333-.54-1.94c0-.84.246-1.52.74-2.04.506-.52 1.153-.78 1.94-.78.68 0 1.226.1933 1.64.58.426.3867.64.88.64 1.48 0 .5733-.18 1.0467-.54 1.42-.36.36-.834.54-1.42.54-.36 0-.667-.0867-.92-.26.12.4267.326.7333.62.92.306.1733.74.26 1.3.26h1.48v1.54h-1.16c-1.04 0-1.56.5133-1.56 1.54v1.22h4.7v-9.04h2.1v10.8zm2.06-8.1c.24 0 .433-.0733.58-.22.16-.16.24-.3667.24-.62 0-.24-.08-.4333-.24-.58-.147-.16-.34-.24-.58-.24s-.44.08-.6.24c-.147.1467-.22.34-.22.58 0 .2533.073.46.22.62.16.1467.36.22.6.22zm4.994-3.92c-1.08 0-1.947-.2133-2.6-.64s-.98-1-.98-1.72c0-.5333.173-.9667.52-1.3s.793-.5 1.34-.5c.533 0 .973.16 1.32.48.347.3067.52.7.52 1.18 0 .44-.147.7867-.44 1.04.093.0133.193.02.3.02 1.4 0 2.367-.7867 2.9-2.36l1.74.7c-.347 1-.913 1.7667-1.7 2.3s-1.76.8-2.92.8zm-1.72-1.72c.187 0 .347-.0667.48-.2s.2-.3.2-.5-.067-.36-.2-.48c-.133-.1333-.293-.2-.48-.2-.2 0-.367.0667-.5.2-.133.12-.2.28-.2.48s.067.3667.2.5.3.2.5.2zm8.341 13.74-3.12-6.96 1.96-.76 2.56 5.96h1.72v-5.08c-.094.0133-.187.02-.28.02-.627 0-1.14-.1933-1.54-.58-.4-.4-.6-.9-.6-1.5 0-.6133.213-1.12.64-1.52.426-.4.966-.6 1.62-.6.68 0 1.22.2067 1.62.62.4.4.6.94.6 1.62v8.78zm2.92-8.06c.24 0 .433-.0733.58-.22.16-.16.24-.3667.24-.62 0-.24-.08-.4333-.24-.58-.147-.16-.34-.24-.58-.24s-.44.08-.6.24c-.147.1467-.22.34-.22.58 0 .2533.073.46.22.62.16.1467.36.22.6.22z" fill="#fff"/><path d="m150.4 32.32c-1.027 0-1.993-.1867-2.9-.56-.893-.3733-1.687-.8933-2.38-1.56-.693-.68-1.24-1.4733-1.64-2.38-.387-.92-.58-1.9133-.58-2.98s.193-2.0533.58-2.96c.4-.92.94-1.7133 1.62-2.38.693-.68 1.493-1.2067 2.4-1.58s1.873-.56 2.9-.56c1.093 0 2.1.1933 3.02.58.933.3867 1.713.9267 2.34 1.62l-1.52 1.5c-.467-.52-1.027-.92-1.68-1.2-.64-.28-1.36-.42-2.16-.42-.947 0-1.82.2267-2.62.68-.8.44-1.447 1.0667-1.94 1.88-.48.8-.72 1.7467-.72 2.84s.247 2.0467.74 2.86c.493.8 1.14 1.4267 1.94 1.88.8.44 1.673.66 2.62.66.867 0 1.653-.16 2.36-.48.707-.3333 1.273-.8 1.7-1.4.44-.6.707-1.32.8-2.16h-4.9v-1.94h6.96c.08.36.12.74.12 1.14v.02c0 1.3867-.307 2.6-.92 3.64-.6 1.0267-1.433 1.8267-2.5 2.4s-2.28.86-3.64.86zm13.5 0c-1.053 0-1.98-.24-2.78-.72s-1.427-1.1267-1.88-1.94-.68-1.7333-.68-2.76c0-1.0133.227-1.9267.68-2.74.453-.8267 1.08-1.48 1.88-1.96s1.727-.72 2.78-.72c1.04 0 1.96.24 2.76.72s1.427 1.1333 1.88 1.96c.453.8133.68 1.7267.68 2.74 0 1.0267-.227 1.9467-.68 2.76s-1.08 1.46-1.88 1.94-1.72.72-2.76.72zm0-1.98c.56 0 1.08-.1333 1.56-.4.48-.28.867-.6733 1.16-1.18.307-.52.46-1.14.46-1.86s-.153-1.3333-.46-1.84c-.293-.52-.68-.9133-1.16-1.18-.48-.28-1-.42-1.56-.42s-1.087.14-1.58.42c-.48.2667-.873.66-1.18 1.18-.293.5067-.44 1.12-.44 1.84s.147 1.34.44 1.86c.307.5067.7.9 1.18 1.18.493.2667 1.02.4 1.58.4zm12.109 1.98c-1.053 0-1.98-.24-2.78-.72s-1.426-1.1267-1.88-1.94c-.453-.8133-.68-1.7333-.68-2.76 0-1.0133.227-1.9267.68-2.74.454-.8267 1.08-1.48 1.88-1.96s1.727-.72 2.78-.72c1.04 0 1.96.24 2.76.72s1.427 1.1333 1.88 1.96c.454.8133.68 1.7267.68 2.74 0 1.0267-.226 1.9467-.68 2.76-.453.8133-1.08 1.46-1.88 1.94s-1.72.72-2.76.72zm0-1.98c.56 0 1.08-.1333 1.56-.4.48-.28.867-.6733 1.16-1.18.307-.52.46-1.14.46-1.86s-.153-1.3333-.46-1.84c-.293-.52-.68-.9133-1.16-1.18-.48-.28-1-.42-1.56-.42s-1.086.14-1.58.42c-.48.2667-.873.66-1.18 1.18-.293.5067-.44 1.12-.44 1.84s.147 1.34.44 1.86c.307.5067.7.9 1.18 1.18.494.2667 1.02.4 1.58.4zm11.91 6.3c-.894 0-1.667-.1467-2.32-.44-.64-.28-1.16-.6467-1.56-1.1-.4-.44-.687-.8933-.86-1.36l2-.84c.213.5333.553.9667 1.02 1.3.48.3467 1.053.52 1.72.52.933 0 1.666-.28 2.2-.84.546-.56.82-1.3533.82-2.38v-.98h-.12c-.32.48-.767.8667-1.34 1.16-.56.28-1.2.42-1.92.42-.867 0-1.66-.22-2.38-.66s-1.3-1.0533-1.74-1.84c-.44-.8-.66-1.7333-.66-2.8 0-1.08.22-2.0133.66-2.8.44-.8 1.02-1.42 1.74-1.86s1.513-.66 2.38-.66c.72 0 1.36.1467 1.92.44.573.2933 1.02.68 1.34 1.16h.12v-1.28h2.06v9.66c0 1.1067-.22 2.0467-.66 2.82-.427.7733-1.02 1.36-1.78 1.76s-1.64.6-2.64.6zm.02-6.5c.533 0 1.026-.1267 1.48-.38.453-.2667.82-.6467 1.1-1.14.28-.5067.42-1.1133.42-1.82 0-.7333-.14-1.3467-.42-1.84-.28-.5067-.647-.8867-1.1-1.14-.454-.2533-.947-.38-1.48-.38-.534 0-1.034.1333-1.5.4-.454.2533-.82.6267-1.1 1.12s-.42 1.1067-.42 1.84c0 .72.14 1.3333.42 1.84.28.4933.646.8667 1.1 1.12.466.2533.966.38 1.5.38zm7.607 1.86v-14.32h2.16v14.32zm9.269.32c-1 0-1.894-.2333-2.68-.7-.787-.4667-1.407-1.1067-1.86-1.92-.44-.8133-.66-1.74-.66-2.78 0-.9733.213-1.8733.64-2.7.426-.8267 1.02-1.4867 1.78-1.98.773-.5067 1.66-.76 2.66-.76 1.053 0 1.946.2267 2.68.68.746.4533 1.313 1.0733 1.7 1.86.386.7867.58 1.6733.58 2.66 0 .1467-.007.28-.02.4 0 .12-.007.2133-.02.28h-7.88c.106 1.0133.46 1.7733 1.06 2.28.613.5067 1.306.76 2.08.76.693 0 1.266-.1533 1.72-.46.453-.32.813-.7133 1.08-1.18l1.78.86c-.44.8-1.04 1.4533-1.8 1.96-.76.4933-1.707.74-2.84.74zm-.1-9c-.72 0-1.334.22-1.84.66-.507.44-.847 1.0267-1.02 1.76h5.66c-.027-.3467-.14-.7067-.34-1.08s-.507-.6867-.92-.94c-.4-.2667-.914-.4-1.54-.4zm13.731 8.68-3.84-14.32h2.44l2.28 9.3.24 1.24h.12l.3-1.24 2.88-9.3h2.2l2.76 9.3.3 1.22h.12l.24-1.22 2.28-9.3h2.42l-3.78 14.32h-2.32l-2.74-9.5-.32-1.34h-.12l-.34 1.34-2.86 9.5zm18.756.32c-.733 0-1.386-.14-1.96-.42-.573-.2933-1.02-.7-1.34-1.22s-.48-1.1133-.48-1.78c0-.72.187-1.3333.56-1.84.387-.52.9-.9133 1.54-1.18s1.347-.4 2.12-.4c.64 0 1.2.06 1.68.18.494.12.867.2467 1.12.38v-.54c0-.6667-.24-1.2-.72-1.6s-1.1-.6-1.86-.6c-.52 0-1.013.12-1.48.36-.466.2267-.84.54-1.12.94l-1.48-1.14c.44-.6133 1.02-1.0933 1.74-1.44.734-.36 1.534-.54 2.4-.54 1.48 0 2.62.3667 3.42 1.1.8.72 1.2 1.7333 1.2 3.04v6.38h-2.1v-1.26h-.12c-.266.4133-.666.78-1.2 1.1-.533.32-1.173.48-1.92.48zm.38-1.76c.56 0 1.054-.1333 1.48-.4.427-.2667.76-.6133 1-1.04.254-.44.38-.9133.38-1.42-.306-.1733-.666-.3133-1.08-.42-.413-.12-.853-.18-1.32-.18-.88 0-1.506.18-1.88.54-.373.3467-.56.7733-.56 1.28 0 .48.18.8733.54 1.18s.84.46 1.44.46zm7.358 1.44v-14.32h2.16v14.32zm4.727 0v-14.32h2.16v14.32zm9.269.32c-1 0-1.894-.2333-2.68-.7-.787-.4667-1.407-1.1067-1.86-1.92-.44-.8133-.66-1.74-.66-2.78 0-.9733.213-1.8733.64-2.7.426-.8267 1.02-1.4867 1.78-1.98.773-.5067 1.66-.76 2.66-.76 1.053 0 1.946.2267 2.68.68.746.4533 1.313 1.0733 1.7 1.86.386.7867.58 1.6733.58 2.66 0 .1467-.007.28-.02.4 0 .12-.007.2133-.02.28h-7.88c.106 1.0133.46 1.7733 1.06 2.28.613.5067 1.306.76 2.08.76.693 0 1.266-.1533 1.72-.46.453-.32.813-.7133 1.08-1.18l1.78.86c-.44.8-1.04 1.4533-1.8 1.96-.76.4933-1.707.74-2.84.74zm-.1-9c-.72 0-1.334.22-1.84.66-.507.44-.847 1.0267-1.02 1.76h5.66c-.027-.3467-.14-.7067-.34-1.08s-.507-.6867-.92-.94c-.4-.2667-.914-.4-1.54-.4zm7.731 5.72v-5.36h-1.78v-1.88h1.78v-2.88h2.16v2.88h2.5v1.88h-2.5v4.9c0 .5067.1.8933.3 1.16.213.2667.566.4 1.06.4.253 0 .466-.0333.64-.1.186-.0667.373-.16.56-.28v2.1c-.227.0933-.467.1667-.72.22-.254.0533-.554.08-.9.08-.947 0-1.7-.2733-2.26-.82-.56-.56-.84-1.3267-.84-2.3z" fill="#fff"/><rect height="49" rx="24.5" stroke="#747775" width="293" x=".5" y=".5"/></svg>