<svg fill="none" height="50" viewBox="0 0 283 50" width="283" xmlns="http://www.w3.org/2000/svg" xmlns:xlink="http://www.w3.org/1999/xlink"><linearGradient id="a" gradientUnits="userSpaceOnUse" x1="34.5703" x2="18.7309" y1="30.7864" y2="48.9133"><stop offset="0" stop-color="#4285f4"/><stop offset="1" stop-color="#1b74e8"/></linearGradient><rect fill="#1f1f1f" height="49" rx="24.5" width="282" x=".5" y=".5"/><path d="m51 22h-30v-5c0-2.7143 2.2018-5 4.8165-5h20.367c2.6147 0 4.8165 2.2857 4.8165 5z" fill="#34a853"/><path d="m51 26.0537h-30v-5c0-2.7143 2.2018-5 4.8165-5h20.367c2.6147 0 4.8165 2.2857 4.8165 5z" fill="#fbbc04"/><path d="m51 30.2468h-30v-5c0-2.7143 2.2018-5 4.8165-5h20.367c2.6147 0 4.8165 2.2857 4.8165 5z" fill="#ea4335"/><path d="m21 23.2752 19.0411 4.4037c2.1918.5505 4.6575 0 6.4384-1.3761l4.5205-3.3028v10.3211c0 2.6147-2.1918 4.6789-4.7945 4.6789h-20.411c-2.6027 0-4.7945-2.0642-4.7945-4.6789z" fill="url(#a)"/><path d="m71.4 32.32c-1.0267 0-1.9933-.1867-2.9-.56-.8933-.3733-1.6867-.8933-2.38-1.56-.6933-.68-1.24-1.4733-1.64-2.38-.3867-.92-.58-1.9133-.58-2.98s.1933-2.0533.58-2.96c.4-.92.94-1.7133 1.62-2.38.6933-.68 1.4933-1.2067 2.4-1.58s1.8733-.56 2.9-.56c1.0933 0 2.1.1933 3.02.58.9333.3867 1.7133.9267 2.34 1.62l-1.52 1.5c-.4667-.52-1.0267-.92-1.68-1.2-.64-.28-1.36-.42-2.16-.42-.9467 0-1.82.2267-2.62.68-.8.44-1.4467 1.0667-1.94 1.88-.48.8-.72 1.7467-.72 2.84s.2467 2.0467.74 2.86c.4933.8 1.14 1.4267 1.94 1.88.8.44 1.6733.66 2.62.66.8667 0 1.6533-.16 2.36-.48.7067-.3333 1.2733-.8 1.7-1.4.44-.6.7067-1.32.8-2.16h-4.9v-1.94h6.96c.08.36.12.74.12 1.14v.02c0 1.3867-.3067 2.6-.92 3.64-.6 1.0267-1.4333 1.8267-2.5 2.4s-2.28.86-3.64.86zm13.4998 0c-1.0533 0-1.98-.24-2.78-.72s-1.4266-1.1267-1.88-1.94c-.4533-.8133-.68-1.7333-.68-2.76 0-1.0133.2267-1.9267.68-2.74.4534-.8267 1.08-1.48 1.88-1.96s1.7267-.72 2.78-.72c1.04 0 1.96.24 2.76.72s1.4267 1.1333 1.88 1.96c.4534.8133.68 1.7267.68 2.74 0 1.0267-.2266 1.9467-.68 2.76-.4533.8133-1.08 1.46-1.88 1.94s-1.72.72-2.76.72zm0-1.98c.56 0 1.08-.1333 1.56-.4.48-.28.8667-.6733 1.16-1.18.3067-.52.46-1.14.46-1.86s-.1533-1.3333-.46-1.84c-.2933-.52-.68-.9133-1.16-1.18-.48-.28-1-.42-1.56-.42s-1.0866.14-1.58.42c-.48.2667-.8733.66-1.18 1.18-.2933.5067-.44 1.12-.44 1.84s.1467 1.34.44 1.86c.3067.5067.7.9 1.18 1.18.4934.2667 1.02.4 1.58.4zm12.1094 1.98c-1.0533 0-1.98-.24-2.78-.72s-1.4266-1.1267-1.88-1.94c-.4533-.8133-.68-1.7333-.68-2.76 0-1.0133.2267-1.9267.68-2.74.4534-.8267 1.08-1.48 1.88-1.96s1.7267-.72 2.78-.72c1.04 0 1.96.24 2.76.72.7998.48 1.4268 1.1333 1.8798 1.96.454.8133.68 1.7267.68 2.74 0 1.0267-.226 1.9467-.68 2.76-.453.8133-1.08 1.46-1.8798 1.94-.8.48-1.72.72-2.76.72zm0-1.98c.56 0 1.08-.1333 1.56-.4.48-.28.8667-.6733 1.16-1.18.3068-.52.4598-1.14.4598-1.86s-.153-1.3333-.4598-1.84c-.2933-.52-.68-.9133-1.16-1.18-.48-.28-1-.42-1.56-.42s-1.0866.14-1.58.42c-.48.2667-.8733.66-1.18 1.18-.2933.5067-.44 1.12-.44 1.84s.1467 1.34.44 1.86c.3067.5067.7.9 1.18 1.18.4934.2667 1.02.4 1.58.4zm11.9098 6.3c-.894 0-1.667-.1467-2.32-.44-.64-.28-1.16-.6467-1.56-1.1-.4-.44-.687-.8933-.86-1.36l2-.84c.213.5333.553.9667 1.02 1.3.48.3467 1.053.52 1.72.52.933 0 1.666-.28 2.2-.84.546-.56.82-1.3533.82-2.38v-.98h-.12c-.32.48-.767.8667-1.34 1.16-.56.28-1.2.42-1.92.42-.867 0-1.66-.22-2.38-.66s-1.3-1.0533-1.74-1.84c-.44-.8-.66-1.7333-.66-2.8 0-1.08.22-2.0133.66-2.8.44-.8 1.02-1.42 1.74-1.86s1.513-.66 2.38-.66c.72 0 1.36.1467 1.92.44.573.2933 1.02.68 1.34 1.16h.12v-1.28h2.06v9.66c0 1.1067-.22 2.0467-.66 2.82-.427.7733-1.02 1.36-1.78 1.76s-1.64.6-2.64.6zm.02-6.5c.533 0 1.026-.1267 1.48-.38.453-.2667.82-.6467 1.1-1.14.28-.5067.42-1.1133.42-1.82 0-.7333-.14-1.3467-.42-1.84-.28-.5067-.647-.8867-1.1-1.14-.454-.2533-.947-.38-1.48-.38-.534 0-1.034.1333-1.5.4-.454.2533-.82.6267-1.1 1.12s-.42 1.1067-.42 1.84c0 .72.14 1.3333.42 1.84.28.4933.646.8667 1.1 1.12.466.2533.966.38 1.5.38zm7.607 1.86v-14.32h2.16v14.32zm9.269.32c-1 0-1.894-.2333-2.68-.7-.787-.4667-1.407-1.1067-1.86-1.92-.44-.8133-.66-1.74-.66-2.78 0-.9733.213-1.8733.64-2.7.426-.8267 1.02-1.4867 1.78-1.98.773-.5067 1.66-.76 2.66-.76 1.053 0 1.946.2267 2.68.68.746.4533 1.313 1.0733 1.7 1.86.386.7867.58 1.6733.58 2.66 0 .1467-.007.28-.02.4 0 .12-.007.2133-.02.28h-7.88c.106 1.0133.46 1.7733 1.06 2.28.613.5067 1.306.76 2.08.76.693 0 1.266-.1533 1.72-.46.453-.32.813-.7133 1.08-1.18l1.78.86c-.44.8-1.04 1.4533-1.8 1.96-.76.4933-1.707.74-2.84.74zm-.1-9c-.72 0-1.334.22-1.84.66-.507.44-.847 1.0267-1.02 1.76h5.66c-.027-.3467-.14-.7067-.34-1.08s-.507-.6867-.92-.94c-.4-.2667-.914-.4-1.54-.4zm18.321 9c-1.054 0-2.034-.1867-2.94-.56-.907-.3867-1.7-.92-2.38-1.6-.667-.68-1.194-1.4733-1.58-2.38-.374-.9067-.56-1.8867-.56-2.94s.186-2.0333.56-2.94c.386-.9067.913-1.7 1.58-2.38.68-.68 1.473-1.2067 2.38-1.58.906-.3867 1.886-.58 2.94-.58 1.12 0 2.12.2067 3 .62.88.4 1.646.9733 2.3 1.72l-1.54 1.5c-.48-.5733-1.027-1.0067-1.64-1.3-.6-.3067-1.3-.46-2.1-.46-.96 0-1.84.2267-2.64.68-.8.44-1.44 1.0667-1.92 1.88-.467.8-.7 1.7467-.7 2.84s.233 2.0467.7 2.86c.48.8 1.12 1.4267 1.92 1.88.8.44 1.68.66 2.64.66.866 0 1.633-.18 2.3-.54.68-.36 1.28-.8533 1.8-1.48l1.58 1.52c-.667.7867-1.487 1.4133-2.46 1.88-.96.4667-2.04.7-3.24.7zm11.209 0c-1.253 0-2.2-.3733-2.84-1.12-.627-.76-.94-1.7867-.94-3.08v-6.32h2.16v6.02c0 .8667.2 1.5067.6 1.92.413.4.927.6 1.54.6.547 0 1.02-.14 1.42-.42.413-.2933.727-.6667.94-1.12.227-.4667.34-.9733.34-1.52v-5.48h2.14v10.2h-2.02v-1.38h-.12c-.293.48-.733.8867-1.32 1.22-.573.32-1.207.48-1.9.48zm2.56-12.6c-.333 0-.627-.12-.88-.36-.24-.2533-.36-.5533-.36-.9s.12-.6333.36-.86c.253-.24.547-.36.88-.36.36 0 .66.12.9.36.24.2267.36.5133.36.86s-.12.6467-.36.9c-.24.24-.54.36-.9.36zm-3.54 0c-.333 0-.627-.12-.88-.36-.24-.2533-.36-.5533-.36-.9s.12-.6333.36-.86c.253-.24.547-.36.88-.36.36 0 .653.12.88.36.24.2267.36.5133.36.86s-.12.6467-.36.9c-.227.24-.52.36-.88.36zm8.655 12.28v-1.8l5.68-6.52h-5.5v-1.88h8.14v1.8l-5.66 6.52h5.82v1.88zm14.665.32c-.92 0-1.753-.2267-2.5-.68-.733-.4667-1.32-1.1067-1.76-1.92-.427-.8267-.64-1.7667-.64-2.82s.213-1.9867.64-2.8c.44-.8133 1.027-1.4533 1.76-1.92.747-.4667 1.58-.7 2.5-.7.787 0 1.46.1733 2.02.52.573.3467.993.74 1.26 1.18h.12l-.12-1.42v-4.08h2.14v14.32h-2.02v-1.36h-.12c-.267.44-.687.8333-1.26 1.18-.56.3333-1.233.5-2.02.5zm.32-1.98c.533 0 1.033-.14 1.5-.42.48-.28.86-.6733 1.14-1.18.293-.52.44-1.1333.44-1.84s-.147-1.3133-.44-1.82c-.28-.52-.66-.92-1.14-1.2-.467-.28-.967-.42-1.5-.42s-1.033.14-1.5.42-.847.68-1.14 1.2c-.293.5067-.44 1.1133-.44 1.82s.147 1.32.44 1.84c.293.5067.673.9 1.14 1.18s.967.42 1.5.42zm10.746 1.98c-.733 0-1.386-.14-1.96-.42-.573-.2933-1.02-.7-1.34-1.22s-.48-1.1133-.48-1.78c0-.72.187-1.3333.56-1.84.387-.52.9-.9133 1.54-1.18s1.347-.4 2.12-.4c.64 0 1.2.06 1.68.18.494.12.867.2467 1.12.38v-.54c0-.6667-.24-1.2-.72-1.6s-1.1-.6-1.86-.6c-.52 0-1.013.12-1.48.36-.466.2267-.84.54-1.12.94l-1.48-1.14c.44-.6133 1.02-1.0933 1.74-1.44.734-.36 1.534-.54 2.4-.54 1.48 0 2.62.3667 3.42 1.1.8.72 1.2 1.7333 1.2 3.04v6.38h-2.1v-1.26h-.12c-.266.4133-.666.78-1.2 1.1-.533.32-1.173.48-1.92.48zm.38-1.76c.56 0 1.054-.1333 1.48-.4.427-.2667.76-.6133 1-1.04.254-.44.38-.9133.38-1.42-.306-.1733-.666-.3133-1.08-.42-.413-.12-.853-.18-1.32-.18-.88 0-1.506.18-1.88.54-.373.3467-.56.7733-.56 1.28 0 .48.18.8733.54 1.18s.84.46 1.44.46zm7.338 1.44v-10.2h2.04v1.4h.12c.294-.4933.727-.9 1.3-1.22.587-.3333 1.227-.5 1.92-.5 1.254 0 2.194.3733 2.82 1.12.627.7467.94 1.7333.94 2.96v6.44h-2.14v-6.16c0-.8267-.206-1.4267-.62-1.8-.413-.3867-.953-.58-1.62-.58-.52 0-.973.1467-1.36.44-.386.28-.693.6533-.92 1.12-.213.4667-.32.9667-.32 1.5v5.48zm14.704.32c-.733 0-1.386-.14-1.96-.42-.573-.2933-1.02-.7-1.34-1.22s-.48-1.1133-.48-1.78c0-.72.187-1.3333.56-1.84.387-.52.9-.9133 1.54-1.18s1.347-.4 2.12-.4c.64 0 1.2.06 1.68.18.494.12.867.2467 1.12.38v-.54c0-.6667-.24-1.2-.72-1.6s-1.1-.6-1.86-.6c-.52 0-1.013.12-1.48.36-.466.2267-.84.54-1.12.94l-1.48-1.14c.44-.6133 1.02-1.0933 1.74-1.44.734-.36 1.534-.54 2.4-.54 1.48 0 2.62.3667 3.42 1.1.8.72 1.2 1.7333 1.2 3.04v6.38h-2.1v-1.26h-.12c-.266.4133-.666.78-1.2 1.1-.533.32-1.173.48-1.92.48zm.38-1.76c.56 0 1.054-.1333 1.48-.4.427-.2667.76-.6133 1-1.04.254-.44.38-.9133.38-1.42-.306-.1733-.666-.3133-1.08-.42-.413-.12-.853-.18-1.32-.18-.88 0-1.506.18-1.88.54-.373.3467-.56.7733-.56 1.28 0 .48.18.8733.54 1.18s.84.46 1.44.46z" fill="#fff"/><path d="m228.92 32.32c-1 0-1.893-.2333-2.68-.7s-1.407-1.1067-1.86-1.92c-.44-.8133-.66-1.74-.66-2.78 0-.9733.213-1.8733.64-2.7s1.02-1.4867 1.78-1.98c.773-.5067 1.66-.76 2.66-.76 1.053 0 1.947.2267 2.68.68.747.4533 1.313 1.0733 1.7 1.86s.58 1.6733.58 2.66c0 .1467-.007.28-.02.4 0 .12-.007.2133-.02.28h-7.88c.107 1.0133.46 1.7733 1.06 2.28.613.5067 1.307.76 2.08.76.693 0 1.267-.1533 1.72-.46.453-.32.813-.7133 1.08-1.18l1.78.86c-.44.8-1.04 1.4533-1.8 1.96-.76.4933-1.707.74-2.84.74zm-.1-9c-.72 0-1.333.22-1.84.66s-.847 1.0267-1.02 1.76h5.66c-.027-.3467-.14-.7067-.34-1.08s-.507-.6867-.92-.94c-.4-.2667-.913-.4-1.54-.4zm6.944 8.68v-14.32h2.16v8.44l4.32-4.32h2.68v.12l-3.94 3.9 4.08 6.06v.12h-2.56l-3.04-4.68-1.54 1.52v3.16zm10.664 0v-14.32h2.16v14.32zm9.269.32c-1 0-1.893-.2333-2.68-.7-.786-.4667-1.406-1.1067-1.86-1.92-.44-.8133-.66-1.74-.66-2.78 0-.9733.214-1.8733.64-2.7.427-.8267 1.02-1.4867 1.78-1.98.774-.5067 1.66-.76 2.66-.76 1.054 0 1.947.2267 2.68.68.747.4533 1.314 1.0733 1.7 1.86.387.7867.58 1.6733.58 2.66 0 .1467-.006.28-.02.4 0 .12-.006.2133-.02.28h-7.88c.107 1.0133.46 1.7733 1.06 2.28.614.5067 1.307.76 2.08.76.694 0 1.267-.1533 1.72-.46.454-.32.814-.7133 1.08-1.18l1.78.86c-.44.8-1.04 1.4533-1.8 1.96-.76.4933-1.706.74-2.84.74zm-.1-9c-.72 0-1.333.22-1.84.66-.506.44-.846 1.0267-1.02 1.76h5.66c-.026-.3467-.14-.7067-.34-1.08s-.506-.6867-.92-.94c-.4-.2667-.913-.4-1.54-.4z" fill="#fff"/><rect height="49" rx="24.5" stroke="#747775" width="282" x=".5" y=".5"/></svg>