<svg fill="none" height="50" viewBox="0 0 271 50" width="271" xmlns="http://www.w3.org/2000/svg" xmlns:xlink="http://www.w3.org/1999/xlink"><linearGradient id="a" gradientUnits="userSpaceOnUse" x1="34.5703" x2="18.7309" y1="30.7864" y2="48.9133"><stop offset="0" stop-color="#4285f4"/><stop offset="1" stop-color="#1b74e8"/></linearGradient><rect fill="#1f1f1f" height="49" rx="24.5" width="270" x=".5" y=".5"/><path d="m51 22h-30v-5c0-2.7143 2.2018-5 4.8165-5h20.367c2.6147 0 4.8165 2.2857 4.8165 5z" fill="#34a853"/><path d="m51 26.0537h-30v-5c0-2.7143 2.2018-5 4.8165-5h20.367c2.6147 0 4.8165 2.2857 4.8165 5z" fill="#fbbc04"/><path d="m51 30.2468h-30v-5c0-2.7143 2.2018-5 4.8165-5h20.367c2.6147 0 4.8165 2.2857 4.8165 5z" fill="#ea4335"/><path d="m21 23.2752 19.0411 4.4037c2.1918.5505 4.6575 0 6.4384-1.3761l4.5205-3.3028v10.3211c0 2.6147-2.1918 4.6789-4.7945 4.6789h-20.411c-2.6027 0-4.7945-2.0642-4.7945-4.6789z" fill="url(#a)"/><path d="m67.54 32v-12.24h-4.02v-2.08h10.2v2.08h-4v12.24zm8.1458 0v-14.32h2.16v3.92l-.12 1.6h.12c.28-.4933.7066-.9 1.28-1.22.5866-.3333 1.2333-.5 1.94-.5 1.2666 0 2.22.38 2.86 1.14.64.7467.96 1.7267.96 2.94v6.44h-2.14v-6.16c0-.8267-.22-1.4267-.66-1.8-.4267-.3867-.9534-.58-1.58-.58-.52 0-.98.1467-1.38.44s-.7134.68-.94 1.16c-.2267.4667-.34.9667-.34 1.5v5.44zm16.3201.32c-1 0-1.8933-.2333-2.68-.7-.7866-.4667-1.4066-1.1067-1.86-1.92-.44-.8133-.66-1.74-.66-2.78 0-.9733.2134-1.8733.64-2.7.4267-.8267 1.02-1.4867 1.78-1.98.7734-.5067 1.66-.76 2.66-.76 1.0534 0 1.9467.2267 2.68.68.7467.4533 1.3134 1.0733 1.7 1.86.3867.7867.58 1.6733.58 2.66 0 .1467-.0066.28-.02.4 0 .12-.0066.2133-.02.28h-7.88c.1067 1.0133.46 1.7733 1.06 2.28.6134.5067 1.3067.76 2.08.76.6934 0 1.2667-.1533 1.72-.46.4534-.32.8134-.7133 1.08-1.18l1.78.86c-.44.8-1.04 1.4533-1.8 1.96-.76.4933-1.7066.74-2.84.74zm-.1-9c-.72 0-1.3333.22-1.84.66-.5066.44-.8466 1.0267-1.02 1.76h5.66c-.0266-.3467-.14-.7067-.34-1.08s-.5066-.6867-.92-.94c-.4-.2667-.9133-.4-1.54-.4zm-3.1-3.48v-.14l2.14-2.42h1.9l2.16 2.42v.14h-2.08l-.94-1.24h-.2l-.92 1.24zm10.0439 12.16v-10.2h2.0402v1.4h.12c.293-.4933.72-.9 1.28-1.22.56-.3333 1.18-.5 1.86-.5.76 0 1.407.18 1.94.54s.913.8133 1.14 1.36c.333-.5333.787-.98 1.36-1.34.573-.3733 1.273-.56 2.1-.56 1.2 0 2.093.3667 2.68 1.1.587.72.88 1.68.88 2.88v6.54h-2.14v-6.18c0-.8133-.18-1.4067-.54-1.78-.347-.3867-.833-.58-1.46-.58-.493 0-.927.14-1.3.42-.373.2667-.667.6333-.88 1.1-.2.4667-.3.9867-.3 1.56v5.46h-2.14v-6.18c0-.8133-.18-1.4067-.54-1.78-.36-.3867-.867-.58-1.52-.58-.48 0-.9.14-1.26.42s-.647.6533-.86 1.12c-.2.4667-.3.9867-.3 1.56v5.44zm25.6002 0-4.22-10.2h2.4l2.86 7.42h.1l2.92-7.42h2.36l-4.26 10.2zm10.823.32c-.734 0-1.387-.14-1.961-.42-.573-.2933-1.019-.7-1.339-1.22s-.48-1.1133-.48-1.78c0-.72.186-1.3333.56-1.84.386-.52.9-.9133 1.54-1.18s1.346-.4 2.12-.4c.64 0 1.2.06 1.68.18.493.12.866.2467 1.12.38v-.54c0-.6667-.24-1.2-.72-1.6s-1.1-.6-1.86-.6c-.52 0-1.014.12-1.48.36-.467.2267-.84.54-1.12.94l-1.48-1.14c.44-.6133 1.02-1.0933 1.74-1.44.733-.36 1.533-.54 2.4-.54 1.48 0 2.62.3667 3.42 1.1.8.72 1.2 1.7333 1.2 3.04v6.38h-2.1v-1.26h-.12c-.267.4133-.667.78-1.2 1.1-.534.32-1.174.48-1.92.48zm.38-1.76c.56 0 1.053-.1333 1.48-.4.426-.2667.76-.6133 1-1.04.253-.44.38-.9133.38-1.42-.307-.1733-.667-.3133-1.08-.42-.414-.12-.854-.18-1.32-.18-.88 0-1.507.18-1.88.54-.374.3467-.56.7733-.56 1.28 0 .48.18.8733.54 1.18s.84.46 1.44.46zm-.46-10.72-1.6-2.56h2.46l.94 2.56zm12.5 12.48c-1.054 0-1.98-.24-2.78-.72s-1.427-1.1267-1.88-1.94c-.454-.8133-.68-1.7333-.68-2.76 0-1.0133.226-1.9267.68-2.74.453-.8267 1.08-1.48 1.88-1.96s1.726-.72 2.78-.72c1.04 0 1.96.24 2.76.72s1.426 1.1333 1.88 1.96c.453.8133.68 1.7267.68 2.74 0 1.0267-.227 1.9467-.68 2.76-.454.8133-1.08 1.46-1.88 1.94s-1.72.72-2.76.72zm0-1.98c.56 0 1.08-.1333 1.56-.4.48-.28.866-.6733 1.16-1.18.306-.52.46-1.14.46-1.86s-.154-1.3333-.46-1.84c-.294-.52-.68-.9133-1.16-1.18-.48-.28-1-.42-1.56-.42s-1.087.14-1.58.42c-.48.2667-.874.66-1.18 1.18-.294.5067-.44 1.12-.44 1.84s.146 1.34.44 1.86c.306.5067.7.9 1.18 1.18.493.2667 1.02.4 1.58.4z" fill="#fff"/><path d="m164.36 32-5.08-14.32h2.4l3.24 9.52.5 1.62h.12l.54-1.62 3.38-9.52h2.4l-5.22 14.32zm8.814 0v-10.2h2.16v10.2zm.2-12.16.94-2.56h2.44l-1.6 2.56zm16.057 12.48c-1.026 0-1.993-.1867-2.9-.56-.893-.3733-1.686-.8933-2.38-1.56-.693-.68-1.24-1.4733-1.64-2.38-.386-.92-.58-1.9133-.58-2.98s.194-2.0533.58-2.96c.4-.92.94-1.7133 1.62-2.38.694-.68 1.494-1.2067 2.4-1.58.907-.3733 1.874-.56 2.9-.56 1.094 0 2.1.1933 3.02.58.934.3867 1.714.9267 2.34 1.62l-1.52 1.5c-.466-.52-1.026-.92-1.68-1.2-.64-.28-1.36-.42-2.16-.42-.946 0-1.82.2267-2.62.68-.8.44-1.446 1.0667-1.94 1.88-.48.8-.72 1.7467-.72 2.84s.247 2.0467.74 2.86c.494.8 1.14 1.4267 1.94 1.88.8.44 1.674.66 2.62.66.867 0 1.654-.16 2.36-.48.707-.3333 1.274-.8 1.7-1.4.44-.6.707-1.32.8-2.16h-4.9v-1.94h6.96c.08.36.12.74.12 1.14v.02c0 1.3867-.306 2.6-.92 3.64-.6 1.0267-1.433 1.8267-2.5 2.4-1.066.5733-2.28.86-3.64.86zm13.5 0c-1.053 0-1.98-.24-2.78-.72s-1.427-1.1267-1.88-1.94-.68-1.7333-.68-2.76c0-1.0133.227-1.9267.68-2.74.453-.8267 1.08-1.48 1.88-1.96s1.727-.72 2.78-.72c1.04 0 1.96.24 2.76.72s1.427 1.1333 1.88 1.96c.453.8133.68 1.7267.68 2.74 0 1.0267-.227 1.9467-.68 2.76s-1.08 1.46-1.88 1.94-1.72.72-2.76.72zm0-1.98c.56 0 1.08-.1333 1.56-.4.48-.28.867-.6733 1.16-1.18.307-.52.46-1.14.46-1.86s-.153-1.3333-.46-1.84c-.293-.52-.68-.9133-1.16-1.18-.48-.28-1-.42-1.56-.42s-1.087.14-1.58.42c-.48.2667-.873.66-1.18 1.18-.293.5067-.44 1.12-.44 1.84s.147 1.34.44 1.86c.307.5067.7.9 1.18 1.18.493.2667 1.02.4 1.58.4zm12.109 1.98c-1.053 0-1.98-.24-2.78-.72s-1.426-1.1267-1.88-1.94c-.453-.8133-.68-1.7333-.68-2.76 0-1.0133.227-1.9267.68-2.74.454-.8267 1.08-1.48 1.88-1.96s1.727-.72 2.78-.72c1.04 0 1.96.24 2.76.72s1.427 1.1333 1.88 1.96c.454.8133.68 1.7267.68 2.74 0 1.0267-.226 1.9467-.68 2.76-.453.8133-1.08 1.46-1.88 1.94s-1.72.72-2.76.72zm0-1.98c.56 0 1.08-.1333 1.56-.4.48-.28.867-.6733 1.16-1.18.307-.52.46-1.14.46-1.86s-.153-1.3333-.46-1.84c-.293-.52-.68-.9133-1.16-1.18-.48-.28-1-.42-1.56-.42s-1.086.14-1.58.42c-.48.2667-.873.66-1.18 1.18-.293.5067-.44 1.12-.44 1.84s.147 1.34.44 1.86c.307.5067.7.9 1.18 1.18.494.2667 1.02.4 1.58.4zm11.91 6.3c-.893 0-1.667-.1467-2.32-.44-.64-.28-1.16-.6467-1.56-1.1-.4-.44-.687-.8933-.86-1.36l2-.84c.213.5333.553.9667 1.02 1.3.48.3467 1.053.52 1.72.52.933 0 1.667-.28 2.2-.84.547-.56.82-1.3533.82-2.38v-.98h-.12c-.32.48-.767.8667-1.34 1.16-.56.28-1.2.42-1.92.42-.867 0-1.66-.22-2.38-.66s-1.3-1.0533-1.74-1.84c-.44-.8-.66-1.7333-.66-2.8 0-1.08.22-2.0133.66-2.8.44-.8 1.02-1.42 1.74-1.86s1.513-.66 2.38-.66c.72 0 1.36.1467 1.92.44.573.2933 1.02.68 1.34 1.16h.12v-1.28h2.06v9.66c0 1.1067-.22 2.0467-.66 2.82-.427.7733-1.02 1.36-1.78 1.76s-1.64.6-2.64.6zm.02-6.5c.533 0 1.027-.1267 1.48-.38.453-.2667.82-.6467 1.1-1.14.28-.5067.42-1.1133.42-1.82 0-.7333-.14-1.3467-.42-1.84-.28-.5067-.647-.8867-1.1-1.14s-.947-.38-1.48-.38-1.033.1333-1.5.4c-.453.2533-.82.6267-1.1 1.12s-.42 1.1067-.42 1.84c0 .72.14 1.3333.42 1.84.28.4933.647.8667 1.1 1.12.467.2533.967.38 1.5.38zm7.607 1.86v-14.32h2.16v14.32zm9.269.32c-1 0-1.894-.2333-2.68-.7-.787-.4667-1.407-1.1067-1.86-1.92-.44-.8133-.66-1.74-.66-2.78 0-.9733.213-1.8733.64-2.7.426-.8267 1.02-1.4867 1.78-1.98.773-.5067 1.66-.76 2.66-.76 1.053 0 1.946.2267 2.68.68.746.4533 1.313 1.0733 1.7 1.86.386.7867.58 1.6733.58 2.66 0 .1467-.007.28-.02.4 0 .12-.007.2133-.02.28h-7.88c.106 1.0133.46 1.7733 1.06 2.28.613.5067 1.306.76 2.08.76.693 0 1.266-.1533 1.72-.46.453-.32.813-.7133 1.08-1.18l1.78.86c-.44.8-1.04 1.4533-1.8 1.96-.76.4933-1.707.74-2.84.74zm-.1-9c-.72 0-1.334.22-1.84.66-.507.44-.847 1.0267-1.02 1.76h5.66c-.027-.3467-.14-.7067-.34-1.08s-.507-.6867-.92-.94c-.4-.2667-.914-.4-1.54-.4z" fill="#fff"/><rect height="49" rx="24.5" stroke="#747775" width="270" x=".5" y=".5"/></svg>