<svg fill="none" height="50" viewBox="0 0 263 50" width="263" xmlns="http://www.w3.org/2000/svg" xmlns:xlink="http://www.w3.org/1999/xlink"><linearGradient id="a" gradientUnits="userSpaceOnUse" x1="34.5703" x2="18.7309" y1="30.7864" y2="48.9133"><stop offset="0" stop-color="#4285f4"/><stop offset="1" stop-color="#1b74e8"/></linearGradient><rect fill="#1f1f1f" height="49" rx="24.5" width="262" x=".5" y=".5"/><path d="m51 22h-30v-5c0-2.7143 2.2018-5 4.8165-5h20.367c2.6147 0 4.8165 2.2857 4.8165 5z" fill="#34a853"/><path d="m51 26.0537h-30v-5c0-2.7143 2.2018-5 4.8165-5h20.367c2.6147 0 4.8165 2.2857 4.8165 5z" fill="#fbbc04"/><path d="m51 30.2468h-30v-5c0-2.7143 2.2018-5 4.8165-5h20.367c2.6147 0 4.8165 2.2857 4.8165 5z" fill="#ea4335"/><path d="m21 23.2752 19.0411 4.4037c2.1918.5505 4.6575 0 6.4384-1.3761l4.5205-3.3028v10.3211c0 2.6147-2.1918 4.6789-4.7945 4.6789h-20.411c-2.6027 0-4.7945-2.0642-4.7945-4.6789z" fill="url(#a)"/><path d="m74.74 21.96v1.4h7.44v-1.4zm-10.52-4.66v1.28h8.82v-1.28zm-.22 7.94v1.3h9.14v-1.3zm-.06-3.36v1.28h9.34v-1.28zm14.52.64v10.98h1.46v-10.98zm-10.54-7.24v2.68h1.46v-2.68zm0 7.64v10.66h1.46v-10.66zm6.1-6.08v7c0 2.84-.28 6.3-2.84 8.82.36.2.9.7 1.08 1.04 2.82-2.78 3.18-6.84 3.18-9.84v-6.18c.28-.04.4-.12.42-.28zm6.7-1.4c-1.46.72-4.1 1.42-6.34 1.9.18.3.38.82.46 1.14 2.4-.42 5.2-1.1 7.08-1.94zm-11.48 11.48-.82.68c.74.62 2.62 2.38 3.26 3.12l.88-1.12c-.5-.46-2.68-2.24-3.32-2.68zm-3.82-7.98c.4.92.72 2.12.78 2.9l1.26-.34c-.1-.76-.44-1.94-.86-2.82zm5.12-.3c-.22.84-.64 2.08-1 2.88l1.2.28c.36-.74.78-1.86 1.16-2.86zm-2.6 7.26c-.96 1.96-2.78 4.12-4.4 5.18.34.24.78.72 1.02 1.06 1.6-1.24 3.44-3.6 4.46-5.82zm15.92-5.8v1.42h5.36v-1.42zm2.14-4.6v13.08h1.46v-13.08zm-2.44 13.42.52 1.5c1.7-.72 3.86-1.68 5.9-2.6l-.36-1.36c-2.22.94-4.54 1.9-6.06 2.46zm7.78-2.6v7.3h1.44v-6.16h5.94v6.1h1.48v-7.24zm.76 5.36v1.18h7.56v-1.18zm-.04-2.66v1.08h7.5v-1.08zm3.04-8.96v4.52h1.14v-4.52zm-3.5.6h8.24v3.38h-8.24zm-1.22-1.16v5.68h10.76v-5.68zm1.96 1.86c.36.74.72 1.72.84 2.32l.96-.32c-.12-.58-.48-1.54-.86-2.26zm5.56-.28c-.18.66-.58 1.64-.9 2.3l.82.3c.36-.58.76-1.44 1.14-2.26zm-3.84-5.34v1.3h4.06v-1.3zm-1.7.54c-.78 1.56-2.14 3.06-3.52 4.08.32.24.82.78 1.02 1.04 1.42-1.14 2.92-2.92 3.84-4.72zm4.54-.54v.76h.4c1.02 1.78 2.72 3.58 4.28 4.7.24-.38.68-.9 1-1.16-1.5-.92-3.22-2.62-4.18-4.3zm7.62.72v1.4h17.12v-1.4zm1.32 9.76v1.4h14.44v-1.4zm-1.76 5.16v1.4h17.88v-1.4zm8.06-7.64v8.62h1.56v-8.62zm-7.26-1.88.06 1.52c3.54-.12 9.1-.36 14.32-.6l.08-1.36c-5.38.2-11 .38-14.46.44zm5.46-4.76c-.6 1.58-1.74 3.78-2.64 5.16l1.38.5c.92-1.3 2.08-3.36 2.98-5.12zm4.48 2.18c2.02 1.48 4.42 3.6 5.54 5.02l1.34-.96c-1.18-1.44-3.68-3.5-5.66-4.88z" fill="#fff"/><path d="m136.4 32.32c-1.027 0-1.993-.1867-2.9-.56-.893-.3733-1.687-.8933-2.38-1.56-.693-.68-1.24-1.4733-1.64-2.38-.387-.92-.58-1.9133-.58-2.98s.193-2.0533.58-2.96c.4-.92.94-1.7133 1.62-2.38.693-.68 1.493-1.2067 2.4-1.58s1.873-.56 2.9-.56c1.093 0 2.1.1933 3.02.58.933.3867 1.713.9267 2.34 1.62l-1.52 1.5c-.467-.52-1.027-.92-1.68-1.2-.64-.28-1.36-.42-2.16-.42-.947 0-1.82.2267-2.62.68-.8.44-1.447 1.0667-1.94 1.88-.48.8-.72 1.7467-.72 2.84s.247 2.0467.74 2.86c.493.8 1.14 1.4267 1.94 1.88.8.44 1.673.66 2.62.66.867 0 1.653-.16 2.36-.48.707-.3333 1.273-.8 1.7-1.4.44-.6.707-1.32.8-2.16h-4.9v-1.94h6.96c.08.36.12.74.12 1.14v.02c0 1.3867-.307 2.6-.92 3.64-.6 1.0267-1.433 1.8267-2.5 2.4s-2.28.86-3.64.86zm13.5 0c-1.053 0-1.98-.24-2.78-.72s-1.427-1.1267-1.88-1.94-.68-1.7333-.68-2.76c0-1.0133.227-1.9267.68-2.74.453-.8267 1.08-1.48 1.88-1.96s1.727-.72 2.78-.72c1.04 0 1.96.24 2.76.72s1.427 1.1333 1.88 1.96c.453.8133.68 1.7267.68 2.74 0 1.0267-.227 1.9467-.68 2.76s-1.08 1.46-1.88 1.94-1.72.72-2.76.72zm0-1.98c.56 0 1.08-.1333 1.56-.4.48-.28.867-.6733 1.16-1.18.307-.52.46-1.14.46-1.86s-.153-1.3333-.46-1.84c-.293-.52-.68-.9133-1.16-1.18-.48-.28-1-.42-1.56-.42s-1.087.14-1.58.42c-.48.2667-.873.66-1.18 1.18-.293.5067-.44 1.12-.44 1.84s.147 1.34.44 1.86c.307.5067.7.9 1.18 1.18.493.2667 1.02.4 1.58.4zm12.109 1.98c-1.053 0-1.98-.24-2.78-.72s-1.426-1.1267-1.88-1.94c-.453-.8133-.68-1.7333-.68-2.76 0-1.0133.227-1.9267.68-2.74.454-.8267 1.08-1.48 1.88-1.96s1.727-.72 2.78-.72c1.04 0 1.96.24 2.76.72s1.427 1.1333 1.88 1.96c.454.8133.68 1.7267.68 2.74 0 1.0267-.226 1.9467-.68 2.76-.453.8133-1.08 1.46-1.88 1.94s-1.72.72-2.76.72zm0-1.98c.56 0 1.08-.1333 1.56-.4.48-.28.867-.6733 1.16-1.18.307-.52.46-1.14.46-1.86s-.153-1.3333-.46-1.84c-.293-.52-.68-.9133-1.16-1.18-.48-.28-1-.42-1.56-.42s-1.086.14-1.58.42c-.48.2667-.873.66-1.18 1.18-.293.5067-.44 1.12-.44 1.84s.147 1.34.44 1.86c.307.5067.7.9 1.18 1.18.494.2667 1.02.4 1.58.4zm11.91 6.3c-.894 0-1.667-.1467-2.32-.44-.64-.28-1.16-.6467-1.56-1.1-.4-.44-.687-.8933-.86-1.36l2-.84c.213.5333.553.9667 1.02 1.3.48.3467 1.053.52 1.72.52.933 0 1.666-.28 2.2-.84.546-.56.82-1.3533.82-2.38v-.98h-.12c-.32.48-.767.8667-1.34 1.16-.56.28-1.2.42-1.92.42-.867 0-1.66-.22-2.38-.66s-1.3-1.0533-1.74-1.84c-.44-.8-.66-1.7333-.66-2.8 0-1.08.22-2.0133.66-2.8.44-.8 1.02-1.42 1.74-1.86s1.513-.66 2.38-.66c.72 0 1.36.1467 1.92.44.573.2933 1.02.68 1.34 1.16h.12v-1.28h2.06v9.66c0 1.1067-.22 2.0467-.66 2.82-.427.7733-1.02 1.36-1.78 1.76s-1.64.6-2.64.6zm.02-6.5c.533 0 1.026-.1267 1.48-.38.453-.2667.82-.6467 1.1-1.14.28-.5067.42-1.1133.42-1.82 0-.7333-.14-1.3467-.42-1.84-.28-.5067-.647-.8867-1.1-1.14-.454-.2533-.947-.38-1.48-.38-.534 0-1.034.1333-1.5.4-.454.2533-.82.6267-1.1 1.12s-.42 1.1067-.42 1.84c0 .72.14 1.3333.42 1.84.28.4933.646.8667 1.1 1.12.466.2533.966.38 1.5.38zm7.607 1.86v-14.32h2.16v14.32zm9.269.32c-1 0-1.894-.2333-2.68-.7-.787-.4667-1.407-1.1067-1.86-1.92-.44-.8133-.66-1.74-.66-2.78 0-.9733.213-1.8733.64-2.7.426-.8267 1.02-1.4867 1.78-1.98.773-.5067 1.66-.76 2.66-.76 1.053 0 1.946.2267 2.68.68.746.4533 1.313 1.0733 1.7 1.86.386.7867.58 1.6733.58 2.66 0 .1467-.007.28-.02.4 0 .12-.007.2133-.02.28h-7.88c.106 1.0133.46 1.7733 1.06 2.28.613.5067 1.306.76 2.08.76.693 0 1.266-.1533 1.72-.46.453-.32.813-.7133 1.08-1.18l1.78.86c-.44.8-1.04 1.4533-1.8 1.96-.76.4933-1.707.74-2.84.74zm-.1-9c-.72 0-1.334.22-1.84.66-.507.44-.847 1.0267-1.02 1.76h5.66c-.027-.3467-.14-.7067-.34-1.08s-.507-.6867-.92-.94c-.4-.2667-.914-.4-1.54-.4zm19.231-5.26.14 1.22 9.82-.96-.12-1.22zm-.24 8.9.1 1.24 10.38-1-.14-1.22zm2.34-11.76c.4 5.02 3.54 9 6.32 9 1.12 0 1.62-.52 1.86-2.42-.36-.12-.78-.34-1.08-.6-.08 1.26-.22 1.7-.7 1.7-1.92.02-4.7-3.36-5.04-7.68zm.08 8.88c.34 5.34 3.16 9.52 6.26 9.52 1.2 0 1.7-.54 1.94-2.56-.36-.12-.8-.36-1.1-.64-.1 1.38-.24 1.86-.76 1.86-2.16.04-4.68-3.52-4.96-8.18zm5.22-5.16c-1.56 1.88-4.74 3.2-7.8 3.92.28.26.72.84.9 1.12 3.06-.9 6.4-2.38 8.16-4.56zm.3 8.86c-1.68 2.24-5.2 3.7-8.72 4.48.28.28.72.92.88 1.22 3.54-.98 7.24-2.64 9.18-5.22zm-2.46-11.74c.9.34 2.04.88 2.6 1.34l.7-.9c-.58-.42-1.72-.94-2.6-1.22zm-.3 8.56c.92.38 2.04 1.02 2.6 1.5l.84-.86c-.58-.48-1.72-1.06-2.64-1.42zm-11.66-4.44v1.3h5.62v-1.3zm-1.08 3.42v1.32h7.32v-1.32zm.46 2.64c.38 1.22.7 2.78.72 3.82l1.12-.28c-.08-1.04-.4-2.58-.8-3.8zm-.64 5.38.3 1.4c2.08-.44 4.84-1.04 7.48-1.62l-.1-1.26c-2.82.58-5.74 1.16-7.68 1.48zm6.2-5.82c-.18 1.06-.54 2.64-.84 3.62l.98.28c.34-.94.68-2.38 1.02-3.6zm-2.88-5.14v11.12l1.32-.22v-10.9zm-.06-5.42c-.68 1.6-1.96 3.64-3.78 5.16.28.2.72.64.94.94 1.98-1.74 3.28-3.86 4.06-5.4v-.38h-.44v-.32zm.24 0v1.06h.28c1.16 1 2.52 2.66 3.2 3.68l1-1.14c-.7-1-2.18-2.54-3.36-3.6zm21.24-.12c-1.12 2.86-2.96 5.64-5.04 7.38.4.24 1.04.78 1.34 1.06 2.04-1.92 4-4.88 5.26-8zm-.24 2.4-.72 1.42h12v-1.42zm10.8 0v.3c-.18 6.54-.38 8.84-.84 9.36-.16.22-.38.28-.7.28-.38 0-1.34-.02-2.36-.12.24.4.4 1 .42 1.44 1.08.04 2.08.06 2.64 0 .6-.06 1-.22 1.36-.68.58-.74.78-3.12.98-9.86 0-.22 0-.72 0-.72zm-11.86 8.32v1.34h7.72v-6.1h-8.14v1.34h6.64v3.42zm-.72 0v5.14c0 1.98.94 2.42 4.14 2.42h7.48c2.84 0 3.42-.7 3.72-3.58-.42-.08-1.06-.32-1.44-.54-.18 2.3-.48 2.7-2.3 2.7-1.34 0-6.52 0-7.54 0-2.16 0-2.56-.18-2.56-1v-5.14z" fill="#fff"/><rect height="49" rx="24.5" stroke="#747775" width="262" x=".5" y=".5"/></svg>